<svg width="129" height="129" viewBox="0 0 129 129" fill="none" xmlns="http://www.w3.org/2000/svg">
<mask id="mask0" mask-type="alpha" maskUnits="userSpaceOnUse" x="0" y="0" width="129" height="129">
<circle cx="64.5" cy="64.5" r="64" fill="#EAE7F6"/>
</mask>
<g mask="url(#mask0)">
<circle cx="64.5" cy="64.5" r="64" fill="#EAE7F6"/>
<path d="M97.9077 102.418L76.271 88.7456L84.5945 75.6657C86.1874 73.1626 87.0334 70.2573 87.0334 67.2904V47.5664C87.0334 41.5902 84.6593 35.8587 80.4335 31.6329C76.2077 27.4071 70.4762 25.033 64.5 25.033V25.033C58.5238 25.033 52.7923 27.4071 48.5665 31.6329C44.3406 35.8587 41.9666 41.5902 41.9666 47.5664V67.2904C41.9666 70.2573 42.8126 73.1626 44.4055 75.6657L52.729 88.7456L31.0923 102.418C29.114 103.668 27.4843 105.399 26.3549 107.449C25.2255 109.498 24.6332 111.8 24.6332 114.141V129.157L104.367 129.033V114.141C104.367 111.8 103.775 109.498 102.645 107.449C101.516 105.399 99.886 103.668 97.9077 102.418Z" fill="#B2AAE0"/>
</g>
</svg>