<svg width="512" height="512" viewBox="0 0 512 512" fill="none" xmlns="http://www.w3.org/2000/svg">
<path d="M477.538 374L436.538 333.06L460.008 309.58C461.508 308.08 462.35 306.046 462.35 303.925C462.35 301.804 461.508 299.77 460.008 298.27L424.768 263C423.268 261.501 421.234 260.659 419.113 260.659C416.993 260.659 414.959 261.501 413.458 263L354.528 321.93L191.408 158.78L250.338 99.8502C251.082 99.1073 251.672 98.2249 252.075 97.2538C252.478 96.2826 252.685 95.2416 252.685 94.1902C252.685 93.1389 252.478 92.0979 252.075 91.1267C251.672 90.1555 251.082 89.2732 250.338 88.5302L215.048 53.2402C213.548 51.7411 211.514 50.8989 209.393 50.8989C207.273 50.8989 205.239 51.7411 203.738 53.2402L180.268 76.7102L139.268 35.7602C137.768 34.2611 135.734 33.4189 133.613 33.4189C131.493 33.4189 129.459 34.2611 127.958 35.7602L34.4585 129.31C32.9593 130.81 32.1172 132.844 32.1172 134.965C32.1172 137.086 32.9593 139.12 34.4585 140.62L75.4085 181.57L51.9385 205C51.1947 205.743 50.6046 206.626 50.202 207.597C49.7994 208.568 49.5922 209.609 49.5922 210.66C49.5922 211.712 49.7994 212.753 50.202 213.724C50.6046 214.695 51.1947 215.577 51.9385 216.32L87.2285 251.61C88.7286 253.109 90.7627 253.952 92.8835 253.952C95.0043 253.952 97.0383 253.109 98.5385 251.61L157.468 192.68L320.588 355.83L261.658 414.76C260.915 415.503 260.325 416.386 259.922 417.357C259.519 418.328 259.312 419.369 259.312 420.42C259.312 421.472 259.519 422.513 259.922 423.484C260.325 424.455 260.915 425.337 261.658 426.08L296.998 461.37C298.499 462.869 300.533 463.712 302.653 463.712C304.774 463.712 306.808 462.869 308.308 461.37L331.778 437.9L372.728 478.84C374.229 480.339 376.263 481.182 378.383 481.182C380.504 481.182 382.538 480.339 384.038 478.84L477.588 385.3C479.078 383.794 479.909 381.758 479.9 379.64C479.89 377.522 479.041 375.493 477.538 374Z" fill="black"/>
</svg>
