<svg width="28" height="27" viewBox="0 0 28 27" fill="none" xmlns="http://www.w3.org/2000/svg">
<path fill-rule="evenodd" clip-rule="evenodd" d="M6.36393 9.75961C5.68228 10.5355 5.03312 11.3438 4.41254 12.1807C4.05599 12.6607 3.94842 13.3511 4.42547 13.7284C5.46568 14.5756 6.49012 15.4359 7.47564 16.3378C7.67867 16.5408 7.79186 16.7827 7.78837 17.0655C7.78327 17.35 7.67016 17.594 7.4512 17.7773C7.26926 17.9267 7.05806 18.0437 6.83694 18.1121C6.54642 18.2045 6.2724 18.3648 6.04235 18.5949C5.27659 19.3606 5.28631 20.6091 6.05946 21.3822C6.8326 22.1554 8.07618 22.1634 8.84354 21.3961C9.13633 21.1033 9.31887 20.7421 9.38428 20.3603C9.45041 19.9953 9.70221 19.7162 10.0612 19.6151C10.4196 19.5134 10.7802 19.6166 11.0321 19.8942C11.8577 20.8163 12.6675 21.7549 13.4352 22.7381C13.8125 23.2119 14.4965 23.0948 14.983 22.7448C15.8899 22.0912 16.7563 21.4132 17.5805 20.6995C17.8429 20.4728 17.9545 20.1436 17.8887 19.8011C17.8272 19.45 17.598 19.1887 17.2612 19.0771C17.245 19.0609 17.2336 19.0495 17.2045 19.0526C16.9147 18.9559 16.6319 18.8017 16.3996 18.5695C15.6265 17.7963 15.62 16.5511 16.3858 15.7854C17.1515 15.0196 18.3983 15.0213 19.1731 15.796C19.4005 16.0234 19.5998 16.2871 19.6916 16.572C19.8032 16.9088 20.0723 17.1457 20.4122 17.2282C20.7681 17.2946 21.0998 17.1854 21.3296 16.9133C21.9485 16.1841 22.5332 15.4271 23.0836 14.6455C23.4271 14.1557 23.5685 13.4381 23.0722 13.0962C21.9564 12.3311 20.9076 11.5011 19.9092 10.6185C19.7094 10.4187 19.5802 10.193 19.5804 9.90684C19.5823 9.61912 19.6813 9.38036 19.8906 9.19063C20.0854 9.0283 20.3046 8.8968 20.558 8.81558C20.8485 8.72322 21.1209 8.56451 21.351 8.33446C22.1167 7.56871 22.1135 6.32354 21.3387 5.54877C20.5656 4.77562 19.3171 4.7659 18.5498 5.53327C18.2618 5.82123 18.0857 6.17923 18.0154 6.55618C17.9493 6.92441 17.6888 7.20119 17.3255 7.29804C16.9623 7.3949 16.6003 7.28066 16.3549 6.99337C15.5535 6.06329 14.7897 5.09363 14.064 4.08795C13.706 3.60129 12.9945 3.71668 12.5178 4.07971C11.6062 4.77687 10.7231 5.49922 9.87322 6.25487C9.63658 6.45902 9.52802 6.743 9.55764 7.05253C9.58178 7.36623 9.74657 7.6179 10.006 7.79049C10.1779 7.898 10.3597 7.98326 10.5475 8.04235C10.8356 8.13749 11.104 8.30931 11.3363 8.54158C12.1094 9.31473 12.1175 10.5583 11.3501 11.3257C10.5844 12.0914 9.33597 12.0882 8.56282 11.315C8.26396 11.0162 8.08257 10.6417 8.00799 10.2583C7.95121 9.87974 7.68591 9.60157 7.31688 9.50281C6.95429 9.39761 6.58965 9.50594 6.34046 9.78763L6.36393 9.75961Z" fill="#0DD2AB"/>
</svg>
