<svg width="512" height="512" viewBox="0 0 512 512" fill="none" xmlns="http://www.w3.org/2000/svg">
<path d="M256.25 503.5C305.25 503.5 353.15 488.97 393.892 461.746C434.635 434.523 466.389 395.83 485.141 350.56C503.892 305.289 508.799 255.475 499.239 207.417C489.68 159.358 466.084 115.213 431.435 80.5645C386.086 35.2108 324.914 9.21341 260.788 8.04152C196.663 6.86964 134.581 30.6146 87.6055 74.2811L29.324 16L24 21.3239V169.068H173.115L177.753 164.43L121.587 108.263C158.393 74.6696 206.418 56.0311 256.25 56C366.393 56 456 145.607 456 255.75C456 365.893 366.393 455.5 256.25 455.5C146.107 455.5 56.5 365.893 56.5 255.75H8.5C8.50019 321.457 34.6024 384.473 81.0645 430.936C127.527 477.398 190.543 503.5 256.25 503.5Z" fill="black"/>
<path d="M232.484 103.927L231.926 288H368.484V240H280.072L280.484 104.073L232.484 103.927Z" fill="black"/>
</svg>
