<svg xmlns="http://www.w3.org/2000/svg" viewBox="0 0 512 512">
  <path fill="currentColor" d="M503.832,232a214.573,214.573,0,0,0-19.6142-81.7432A235.0169,235.0169,0,0,0,430.8057,76.49C383.6914,32.3242,321.6113,8,256,8A248,248,0,0,0,80.6377,431.3623a248,248,0,0,0,348.9277,1.7793L395.97,398.8584A198.8692,198.8692,0,0,1,256,456C145.72,456,56,366.28,56,256S145.72,56,256,56c108.4111,0,200,84.2617,200,184v36c0,24.2617-21.5332,44-48,44s-48-19.7383-48-44V152H312v18.2444a108.0017,108.0017,0,1,0,20.1431,162.0725A97.4023,97.4023,0,0,0,408,368c52.9346,0,96-41.2715,96-92V232ZM252,320a60,60,0,1,1,60-60A60.0681,60.0681,0,0,1,252,320Z"/>
</svg>
