<svg viewBox="0 0 50 48" fill="none" xmlns="http://www.w3.org/2000/svg">
  <path fill-rule="evenodd" clip-rule="evenodd" d="M14.4949 30.5785C12.6927 30.5785 11.2509 30.0979 10.2897 29.0165C9.3285 27.9352 8.8479 26.3733 8.8479 24.4509C8.8479 22.4084 9.3285 20.8464 10.2897 19.7651C11.2509 18.6838 12.6927 18.083 14.615 18.083C15.9367 18.083 17.018 18.3233 18.0993 18.8039L17.3785 20.8464C16.2971 20.3658 15.4561 20.2457 14.7352 20.2457C12.6927 20.2457 11.6113 21.6875 11.6113 24.4509C11.6113 25.7725 11.8516 26.8539 12.4524 27.4546C12.933 28.1755 13.774 28.5359 14.7352 28.5359C15.9367 28.5359 17.018 28.2956 17.9792 27.6949V29.9777C17.4986 30.218 17.018 30.4583 16.5374 30.5785H14.4949Z" fill="#1F00C5"/>
  <path fill-rule="evenodd" clip-rule="evenodd" d="M30.8352 30.4587H28.312V23.0094C28.312 22.0483 28.1919 21.4475 27.8314 20.9669C27.471 20.4851 26.9904 20.246 26.1494 20.246C25.1882 20.246 24.4673 20.6065 23.9867 21.2072C23.5061 21.808 23.2658 22.8881 23.2658 24.4512V30.4587H20.7427V18.3225H22.7852L23.1456 19.8844H23.2658C23.6262 19.2836 24.1068 18.9232 24.7076 18.5639C25.3083 18.2035 26.0292 18.0822 26.8703 18.0822C28.6725 18.0822 29.9941 18.6829 30.5949 20.0057H30.715C31.0755 19.405 31.5561 18.9232 32.2769 18.5639C32.8777 18.2035 33.7187 18.0822 34.5598 18.0822C36.0016 18.0822 37.0829 18.4438 37.6836 19.1647C38.2844 19.8844 38.6448 20.9669 38.6448 22.5277V30.4587H36.1217V23.0094C36.1217 22.0483 36.0016 21.4475 35.6411 20.9669C35.2807 20.4851 34.6799 20.246 33.959 20.246C32.9978 20.246 32.2769 20.6065 31.7964 21.2072C31.3158 21.808 31.0755 22.7692 31.0755 24.0896V30.4587H30.8352Z" fill="#1F00C5"/>
  <path fill-rule="evenodd" clip-rule="evenodd" d="M17.7391 47.1587C13.654 46.0786 9.92942 43.9147 6.92571 40.911C3.92199 37.9073 1.75932 34.1827 0.677979 30.0976L2.48021 29.617C3.56155 33.463 5.60407 36.8259 8.36749 39.5893C11.1309 42.3528 14.4951 44.2763 18.3398 45.3565L17.7391 47.1587Z" fill="#1F00C5"/>
  <path fill-rule="evenodd" clip-rule="evenodd" d="M0.797951 30.2181C-1.36472 21.9278 0.918099 13.0368 7.04568 7.02942L8.36731 8.35105C2.84048 13.8767 0.557653 22.048 2.60018 29.7375L0.797951 30.2181Z" fill="#FF91D0"/>
  <path fill-rule="evenodd" clip-rule="evenodd" d="M8.36778 8.35096L7.04614 7.02932C13.0536 1.02189 21.9446 -1.38108 30.2348 0.781591L29.7542 2.58382C22.0647 0.541294 13.8946 2.82412 8.36778 8.35096Z" fill="#00FFCD"/>
  <path fill-rule="evenodd" clip-rule="evenodd" d="M45.3732 18.2033C44.412 14.4775 42.3695 11.1145 39.6061 8.3511C36.8427 5.58768 33.4785 3.6641 29.7539 2.58397L30.2345 0.781738C34.3196 1.86187 38.0442 4.02575 41.0479 7.02947C44.0516 10.0332 46.2143 13.7578 47.2956 17.8428L45.3732 18.2033Z" fill="#1F00C5"/>
  <path fill-rule="evenodd" clip-rule="evenodd" d="M40.9276 40.9107L39.606 39.5891C45.1328 34.0635 47.4156 25.8922 45.3731 18.2038L47.1753 17.722C49.4581 26.0135 47.0552 34.9033 40.9276 40.9107Z" fill="#FF91D0"/>
  <path fill-rule="evenodd" clip-rule="evenodd" d="M23.987 48C21.9444 48 19.9019 47.7597 17.8594 47.159L18.34 45.3567C25.9093 47.3993 34.0794 45.2366 39.7264 39.5896L41.0481 40.9112C36.4824 45.4769 30.2347 48 23.987 48Z" fill="#00FFCD"/>
</svg>
