<svg width="310" height="236" viewBox="0 0 310 236" fill="none" xmlns="http://www.w3.org/2000/svg">
    <path fill-rule="evenodd" clip-rule="evenodd" d="M65.3085 92.405C76.6445 91.593 92.1855 93.841 95.4646 106.771C96.4816 111.477 98.4845 113.542 101.851 116.619C123.216 143.975 48.6725 148.574 44.8405 121.898C36.7675 124.839 27.9795 125.462 19.9021 128.435C15.521 130.054 11.5483 132.608 7.74155 135.28C-7.78215 146.31 -23.0862 157.655 -38.5546 168.764C-32.5688 171.521 -21.1882 182.049 -25.8255 189.124C-26.9058 190.502 -28.5093 191.452 -29.9277 192.46L-30.6756 192.994C-32.2848 194.147 -34.9937 196.114 -36.4916 197.182L-36.7678 197.383C-36.8761 197.462 -36.9983 197.55 -37.1087 197.629C-26.3066 213.428 -13.6645 228.006 0.35865 241.021C1.55265 242.132 1.06365 244.614 -0.664551 244.904L-2.72345 245.206C-9.37125 246.174 -16.1455 247.046 -22.8447 246.52C-29.3693 245.81 -33.301 240.032 -37.7613 235.847C-46.6681 226.74 -54.9593 217.025 -62.5113 206.762L-62.6685 206.545C-65.0189 203.332 -68.1386 200.048 -68.367 195.899C-68.7834 194.652 -67.6875 192.864 -66.6346 192.014L-66.2751 191.495C-60.6277 183.37 -54.2361 175.534 -46.2283 169.649C-46.2581 168.772 -45.8529 167.851 -45.0505 167.27L-11.584 143.041C-2.94895 137.097 5.07684 130.11 14.4364 125.31C24.0069 120.7 34.8075 120.519 44.6145 116.672C44.8225 113.899 50.6495 113.191 50.4655 113.619C56.6145 109.907 59.7796 105.489 60.7556 101.429C61.7326 97.37 60.5186 93.667 65.3085 92.405ZM148.069 179.391C158.417 163.814 168.281 181.048 172.589 191.436C177.679 205.651 167.138 223.136 160.329 235.391C157.821 238.794 154.522 245.972 150.101 246.493C138.963 246.447 127.809 245.663 116.665 245.429C109.468 243.643 119.565 232.825 126.539 236.776C128.652 237.567 129.708 239.967 131.768 240.737C132.519 240.897 132.571 240.562 132.876 239.815L132.92 239.71C133.464 238.416 133.992 237.115 134.528 235.817C139.066 224.639 143.863 213.559 148.632 202.484C149.651 200.08 148.222 198.099 146.364 196.668C144.942 195.496 138.827 192.637 144.588 193.895C142.37 188.744 145.036 183.516 148.069 179.391ZM122.377 158.068C123.373 157.943 124.653 158.948 124.806 159.921C126.077 167.987 124.661 175.962 122.963 183.852L122.651 185.297C122.025 188.175 121.325 191.11 119.764 193.632C118.17 196.206 115.759 198.147 112.992 199.326C104.113 202.865 93.0706 199.365 86.5396 192.748C82.3616 187.022 86.0345 179.83 86.7355 173.554C86.0726 171.863 85.8285 169.908 85.4455 168.164L85.3985 167.956L83.9095 161.452C83.5806 160.018 84.6255 158.055 86.3436 158.252C98.3156 159.626 110.418 159.564 122.377 158.068Z" fill="white"/>
    <path fill-rule="evenodd" clip-rule="evenodd" d="M164.191 177.353C164.155 177.192 164.347 177.07 164.472 177.19C166.578 179.221 168.066 181.817 169.699 184.222C171.254 186.513 172.946 188.715 174.106 191.243C175.183 193.593 175.878 195.977 176.085 198.56C176.292 201.124 176.024 203.694 175.572 206.219C174.682 211.194 172.781 215.905 170.694 220.481C168.664 224.929 166.371 229.251 163.95 233.494L163.082 235.009C162.023 236.854 160.953 238.694 159.807 240.481C158.381 242.705 157.08 245 155.199 246.856C153.864 248.176 151.348 246.856 151.956 244.968C152.22 244.146 152.428 243.372 152.837 242.609C153.148 242.028 153.499 241.464 153.828 240.891C154.487 239.746 155.14 238.596 155.799 237.45C157.183 235.043 158.641 232.68 160.012 230.265C162.391 226.076 164.637 221.808 166.623 217.417L166.856 216.898C168.684 212.831 170.415 208.619 171.218 204.22C172.063 199.585 171.306 195.216 169.661 190.86C168.809 188.607 167.852 186.405 166.857 184.211L166.666 183.792C165.705 181.698 164.686 179.616 164.191 177.353ZM61.9055 97.1829C61.9245 97.1009 62.0636 97.0949 62.0766 97.1829C62.6685 101.119 61.3515 105.282 59.2076 108.556C58.0376 110.344 56.5945 111.959 54.8935 113.257L54.7605 113.357C53.0235 114.656 50.6765 115.911 48.5195 115.068C48.4515 115.042 48.3885 115.013 48.3295 114.979C48.5725 115.355 48.7965 115.751 49.0245 116.146C49.7025 117.323 50.3105 118.543 50.9725 119.73C52.1555 121.854 53.5646 123.754 55.3456 125.418C62.4675 132.068 72.4675 133.648 81.8586 133.572L82.5215 133.566C86.6465 133.537 92.0415 133.748 95.2265 130.761C96.9375 129.157 97.8795 126.876 98.7316 124.735C99.5686 122.636 100.141 120.47 100.836 118.335C99.3845 117.34 98.0536 116.125 97.0076 114.704C95.9176 113.225 95.0936 111.56 94.6185 109.782L94.5475 109.517C94.1805 108.099 93.8105 106.224 94.4025 104.885C94.4705 104.731 94.7235 104.741 94.7955 104.885C95.1145 105.526 95.1755 106.248 95.3725 106.933C95.6005 107.73 95.8586 108.522 96.1985 109.277C96.8555 110.74 97.7235 112.13 98.7655 113.348C99.6255 114.356 100.557 115.281 101.622 116.059C102.25 114.975 103.705 114.829 104.924 115.186C106.558 115.664 108.17 116.277 109.745 116.925L110.06 117.055C111.617 117.701 113.377 118.295 114.835 119.177C115.72 119.599 116.569 120.024 117.368 120.4C121.347 122.27 125.267 124.255 129.17 126.277L130.006 126.711C131.641 127.563 133.261 128.423 134.683 129.611C136.131 130.82 137.254 132.473 138.311 134.022C140.726 137.564 143.001 141.208 145.388 144.769C150.209 151.955 155.03 159.141 159.879 166.31C161.052 168.045 162.374 169.738 163.426 171.547C164.434 173.276 164.407 175.051 164.21 176.981L164.173 177.335C163.797 180.875 163.149 184.274 161.164 187.31C158.039 192.082 153.116 195.053 147.909 197.099C148.545 197.573 149.142 198.084 149.901 198.41C151.067 198.909 152.311 199.167 153.573 199.27C154.919 199.378 156.435 199.042 157.526 199.957C157.963 200.322 157.976 201.202 157.526 201.567C156.478 202.423 155.123 202.178 153.846 202.034L153.769 202.026C152.584 201.895 151.416 201.675 150.302 201.24C150.028 201.132 149.755 201.011 149.491 200.878C149.5 200.902 149.504 200.929 149.5 200.959C149.309 202.415 148.897 203.792 148.462 205.183L148.185 206.065C147.623 207.866 147.057 209.662 146.474 211.458C145.365 214.878 144.156 218.266 142.943 221.649L141.896 224.569C140.821 227.564 139.732 230.555 138.528 233.5C137.785 235.318 137.037 237.135 136.291 238.951C135.562 240.724 134.956 242.639 134.052 244.328C133.308 245.718 131.28 244.723 131.605 243.294C132.032 241.42 132.837 239.56 133.452 237.736C134.077 235.884 134.69 234.031 135.326 232.183C136.431 228.974 137.656 225.808 138.888 222.645L140.108 219.509C141.305 216.437 142.516 213.367 143.81 210.334L143.952 210.002C145.296 206.83 146.685 203.263 149.128 200.805C149.159 200.771 149.204 200.754 149.248 200.749C148.648 200.424 148.086 200.029 147.592 199.562L147.568 199.537C147.372 199.33 146.565 198.31 146.305 197.7C145.967 197.82 145.629 197.936 145.291 198.05C144.702 198.249 144.214 198.105 143.869 197.79L143.213 198.197C142.512 198.625 141.758 199.031 140.983 199.052C140.007 199.078 139.24 198.539 138.719 197.744C138.25 197.034 137.971 196.267 137.377 195.63C136.793 195.005 136.118 194.477 135.427 193.974L134.613 193.381C133.121 192.291 131.674 191.19 130.473 189.751C129.869 189.024 129.059 188.161 128.692 187.288C128.62 187.12 128.576 186.961 128.567 186.807C128.487 187.352 128.404 187.899 128.322 188.445C127.169 196.119 126.237 203.846 125.939 211.606C125.793 215.434 125.728 219.266 125.899 223.095C125.983 225.008 126.123 226.919 126.315 228.825C126.41 229.78 126.509 230.734 126.626 231.685L126.652 231.905C126.686 232.196 126.708 232.478 126.683 232.746C127.612 233.204 128.147 234.363 128.519 235.267C128.802 235.956 128.582 236.626 128.126 237.11C128.671 237.607 129.157 238.19 129.564 238.858C129.647 238.993 129.469 239.099 129.364 239.014C128.694 238.482 127.973 238.044 127.221 237.708C126.826 237.858 126.395 237.898 125.998 237.789C125.567 237.67 125.195 237.383 124.927 237.017C122.791 236.666 120.571 237.095 118.648 238.433C118.249 238.712 117.888 239.027 117.543 239.369C117.484 239.429 117.423 239.505 117.361 239.579L117.781 239.74C117.955 239.806 118.097 239.857 118.152 239.868C118.518 239.943 118.89 239.983 119.261 240.015L119.819 240.061C121.959 240.238 124.092 240.297 126.083 241.193C126.501 241.381 126.355 242.026 125.96 242.134C124.507 242.528 123.065 242.498 121.585 242.392L121.268 242.368C119.892 242.263 118.416 242.269 117.074 241.889C117.395 242.768 116.958 243.916 115.616 244.095C111.588 244.632 107.533 244.379 103.5 244.023C99.4265 243.664 95.3555 243.324 91.2715 243.111C78.0615 242.415 64.8315 242.549 51.6105 242.738L44.1385 242.846C38.1796 242.93 32.2206 242.995 26.262 242.95L23.473 242.924C22.2943 242.912 21.115 242.898 19.9376 242.863L19.2314 242.84C17.8286 242.789 15.9716 243 14.7525 242.17C13.7469 241.485 13.523 240.23 14.1293 239.217C14.3046 238.926 14.5455 238.666 14.7969 238.412C15.3124 234.006 15.6018 229.578 15.8976 225.152C16.9244 209.664 16.3244 194.257 13.9561 178.925C7.60114 180.868 1.34344 183.305 -4.75375 185.919C-8.05165 187.333 -11.3327 188.8 -14.5756 190.338C-17.5355 191.744 -20.508 193.5 -23.6707 194.413C-23.9582 194.668 -24.3602 194.79 -24.7167 194.677L-24.763 194.66H-24.7651C-25.0904 194.736 -25.4517 194.69 -25.8066 194.477C-25.8785 194.433 -25.9503 194.389 -26.0221 194.344L-26.1299 194.276C-27.2432 193.574 -28.363 192.71 -29.151 191.653C-30.108 192.541 -31.1369 193.354 -32.1489 194.179C-33.2475 195.075 -34.3418 195.975 -35.4277 196.884C-35.8587 197.245 -36.3341 197.59 -36.7144 198.006L-36.7696 198.067C-36.7785 198.077 -36.7868 198.087 -36.7946 198.097C-35.1489 199.162 -33.708 200.779 -32.4172 202.184C-31.0311 203.693 -29.6928 205.249 -28.3656 206.812L-27.0807 208.328C-17.9949 219.061 -8.81606 230.183 2.94695 238.072C4.80614 239.319 3.03355 242.356 1.18705 241.081C-2.30725 238.674 -5.61366 236 -8.78895 233.187C-14.3538 228.261 -19.3608 222.734 -24.0489 216.975C-26.4214 214.06 -28.7242 211.074 -30.9806 208.068L-31.7464 207.049C-32.7669 205.689 -33.782 204.325 -34.7538 202.931L-34.9571 202.638C-35.8096 201.408 -36.7161 200.025 -37.2658 198.608C-37.477 198.822 -37.7158 199.001 -38.0644 199.137C-38.6601 199.369 -39.3911 198.881 -39.5369 198.3C-39.8918 196.89 -38.6665 196.051 -37.6693 195.303C-36.4587 194.398 -35.2249 193.525 -33.989 192.657L-33.5475 192.345C-32.002 191.248 -30.4484 190.123 -28.7644 189.256C-28.7137 189.189 -28.6524 189.125 -28.5827 189.07C-28.5024 189.007 -28.4242 188.945 -28.3439 188.884C-30.3552 185.621 -32.5608 182.484 -35.0221 179.521C-36.8728 177.292 -38.8376 175.163 -40.9165 173.147L-41.8504 172.242C-43.263 170.878 -44.7318 169.493 -46.2996 168.307L-46.7904 168.864C-47.4457 169.605 -48.1076 170.341 -48.8073 171.038C-50.1848 172.407 -51.5432 173.805 -52.8954 175.201C-55.1408 177.526 -57.3102 179.921 -59.4728 182.32L-60.5538 183.52C-62.8059 186.02 -65.2185 188.474 -67.2657 191.145L-67.368 191.281C-68.2617 192.48 -68.8979 193.807 -68.4826 195.33C-68.0819 196.799 -67.1292 198.101 -66.3079 199.369L-66.2263 199.496C-62.8735 204.721 -59.282 209.812 -55.4348 214.684C-47.7299 224.442 -38.9411 233.69 -28.4538 240.475C-27.0003 241.415 -28.3587 243.753 -29.8144 242.802C-35.939 238.797 -41.5651 233.987 -46.7411 228.821C-51.4925 224.08 -55.7982 218.86 -59.8334 213.502C-61.8003 210.888 -63.6847 208.219 -65.4911 205.49C-67.2425 202.842 -69.2685 200.118 -70.5383 197.197C-71.2037 195.66 -71.4488 193.997 -70.9038 192.378C-70.4039 190.89 -69.4153 189.654 -68.3869 188.492L-68.2904 188.383C-65.9263 185.727 -63.52 183.102 -61.0925 180.502C-58.6566 177.894 -56.1087 175.379 -53.508 172.938C-51.4651 171.017 -49.3355 169.324 -47.058 167.755C-47.263 167.61 -47.4679 167.47 -47.677 167.335C-48.313 166.921 -48.4735 166.035 -47.9158 165.473C-46.3925 163.934 -44.6369 162.596 -42.9848 161.195C-41.432 159.878 -39.8792 158.56 -38.3263 157.241C-35.1658 154.561 -32.0052 151.879 -28.8446 149.197C-23.1679 144.38 -17.5228 139.53 -11.8651 134.692C-9.50585 132.675 -7.12476 130.684 -4.74966 128.686L-0.529953 125.134L1.53384 123.4C2.59125 122.514 3.67125 121.638 4.87375 120.963C7.70305 119.373 11.1046 118.685 14.2219 117.842L14.4293 117.786C17.9258 116.829 21.4413 115.928 24.9758 115.125C28.5145 114.322 32.0685 113.591 35.6365 112.929C38.8435 112.333 42.1265 111.822 45.3965 111.746C46.2085 111.437 47.2265 111.329 48.0255 111.659C48.3545 111.796 48.6995 111.997 49.0055 112.251C50.6045 111.688 52.1825 111.42 53.6765 110.469C55.1685 109.52 56.4885 108.273 57.5995 106.899C59.8965 104.055 61.0985 100.694 61.9055 97.1829ZM98.6685 193.515C97.4005 193.426 96.2596 193.95 95.1275 194.508C95.7655 194.785 96.4035 195.06 97.0415 195.332L101.288 197.146C102.691 197.744 104.176 198.264 105.509 199.001C105.605 199.054 105.681 199.118 105.738 199.192C107.124 198.304 108.59 197.512 109.995 196.668C110.316 196.476 110.639 196.284 110.962 196.091C109.289 196.651 107.574 196.932 105.757 196.406C103.333 195.707 101.229 193.695 98.6685 193.515ZM102.142 189.263L101.914 189.108C100.685 188.264 99.2165 187.179 97.7235 187.937C97.0205 188.295 96.4435 188.872 95.7505 189.256C95.0535 189.645 94.2865 189.943 93.5085 190.123C92.2186 190.421 90.7395 190.465 89.3515 190.177L89.3725 192.054C90.4225 192.488 91.4655 192.932 92.5096 193.38C93.1875 193.148 93.8395 192.87 94.5255 192.564L94.9875 192.357C96.3085 191.763 97.6415 191.366 99.1015 191.554C101.85 191.907 103.927 193.95 106.555 194.631C109.777 195.468 112.684 193.063 115.728 192.469C116.23 192.37 116.748 192.312 117.262 192.303L117.433 192.302L117.509 192.257C118.164 191.873 119.145 191.505 119.601 190.858C120.097 190.157 120.14 188.981 120.302 188.157C120.319 188.075 120.336 187.99 120.351 187.908C120.064 187.908 119.772 187.922 119.476 187.978C118.547 188.149 117.672 188.478 116.806 188.846C115.169 189.542 113.567 190.334 111.843 190.797C110.155 191.251 108.391 191.467 106.652 191.215C104.956 190.97 103.547 190.205 102.142 189.263ZM102.406 182.664L102.152 182.5C101.48 182.071 100.71 181.627 99.8866 181.785C99.1516 181.927 98.5206 182.512 97.8795 182.873C96.4745 183.666 94.8985 184.099 93.2915 184.209C91.9536 184.3 90.5655 184.137 89.2795 183.74L89.3235 187.895C89.7945 188.045 90.2825 188.153 90.7965 188.191C92.3555 188.307 93.8765 187.933 95.1845 187.073L95.8456 186.634C96.9776 185.889 98.0405 185.299 99.5385 185.57C101.022 185.841 102.266 186.792 103.479 187.62L103.678 187.754C105.07 188.674 106.482 189.267 108.19 189.282C110.035 189.296 111.858 188.783 113.575 188.151C115.28 187.525 116.901 186.775 118.724 186.545C119.282 186.475 119.962 186.454 120.602 186.564C120.687 186.092 120.767 185.623 120.843 185.152C121.008 184.139 121.149 183.129 121.272 182.117C118.037 181.246 115.05 184.063 112.046 184.932C110.303 185.435 108.406 185.429 106.663 184.943C105.05 184.492 103.782 183.558 102.406 182.664ZM102.414 175.666C101.723 175.533 101.041 175.852 100.454 176.18C98.9556 177.011 97.6626 178.167 95.9655 178.604C93.7835 179.166 91.3965 178.682 89.2285 177.763C89.2375 179.046 89.2475 180.329 89.2585 181.612C89.6655 181.766 90.0845 181.891 90.5116 181.99C92.0276 182.336 93.6355 182.29 95.1295 181.852C96.6525 181.406 97.8205 180.202 99.3485 179.826C100.911 179.44 102.383 180.191 103.642 181.044L104.021 181.303C105.459 182.279 106.855 183.128 108.655 183.294C110.559 183.469 112.213 182.873 113.914 182.083L114.31 181.9C116.463 180.91 119.258 179.784 121.407 180.91C121.576 179.312 121.699 177.714 121.781 176.114C121.485 176.004 121.179 175.924 120.826 175.922C119.983 175.918 119.098 176.184 118.312 176.461C116.595 177.068 114.995 177.972 113.295 178.621C111.683 179.238 109.897 179.559 108.178 179.283C106.585 179.027 105.389 178.194 104.288 177.053L104.128 176.884C103.646 176.37 103.129 175.805 102.414 175.666ZM103.676 169.734C102.879 169.313 101.91 168.922 100.988 169.045C100.11 169.161 99.5235 169.757 98.9825 170.395L98.6895 170.744C97.7206 171.89 96.7675 172.853 95.2755 173.325C93.7285 173.811 92.0895 173.62 90.6505 172.908C90.1395 172.655 89.6636 172.34 89.1866 172.029L89.2115 175.4C90.1665 175.875 91.1385 176.305 92.2056 176.565C94.1745 177.044 95.8475 176.689 97.5315 175.603L97.7085 175.488C98.9765 174.655 100.277 173.663 101.844 173.57C103.373 173.478 104.52 174.326 105.527 175.364L105.645 175.487C106.914 176.826 108.197 177.48 110.086 177.325C111.917 177.176 113.63 176.367 115.308 175.67L115.46 175.607C116.994 174.977 118.762 174.328 120.446 174.569C120.85 174.626 121.372 174.751 121.836 174.969C121.904 173.392 121.936 171.813 121.942 170.233C120.985 169.402 119.495 169.265 118.298 169.605C116.422 170.137 114.886 171.511 113.094 172.257C111.505 172.919 109.849 173.067 108.229 172.441C106.555 171.794 105.243 170.562 103.676 169.734ZM121.836 163.093C119.033 163.19 116.29 165.014 113.614 165.71C110.623 166.486 108.183 165.428 105.519 164.253L105.175 164.102C103.809 163.501 102.34 162.962 100.825 163.207C99.3486 163.448 98.0426 164.266 96.7726 165.006L96.5295 165.146C94.2165 166.463 91.8616 167.365 89.1606 167.14C89.1756 167.988 89.1695 168.833 89.1715 169.662C89.6155 169.916 90.0415 170.203 90.4475 170.465L90.5936 170.557C91.8806 171.363 93.2076 171.892 94.7426 171.395C96.2256 170.913 96.9225 169.622 97.9415 168.559C98.8775 167.582 100.099 166.989 101.468 167.045C102.94 167.104 104.333 167.753 105.549 168.546C106.766 169.339 107.943 170.363 109.367 170.761C112.561 171.648 115.297 168.269 118.318 167.743C119.586 167.521 120.985 167.802 121.942 168.567C121.931 166.745 121.891 164.919 121.836 163.093ZM97.7045 162.328C97.3095 162.343 96.9146 162.36 96.5195 162.377C95.0575 162.44 93.5956 162.512 92.1335 162.594C91.1216 162.649 89.8775 162.96 88.8846 162.651C88.8596 162.753 88.8255 162.85 88.7805 162.945C88.9305 163.693 89.0235 164.467 89.0806 165.249C89.9976 165.348 90.9295 165.314 91.8335 165.126C94.0035 164.676 95.7655 163.307 97.7045 162.328ZM121.794 161.7C116.455 162.068 111.076 161.942 105.728 162.057L105.087 162.072C105.061 162.072 105.036 162.075 105.011 162.075C105.624 162.312 106.232 162.584 106.839 162.862L107.444 163.14C108.877 163.799 110.335 164.338 111.938 164.222C113.656 164.097 115.274 163.395 116.88 162.829C118.411 162.288 120.175 161.924 121.809 162.161C121.804 162.007 121.8 161.855 121.794 161.7Z" fill="#3317CA"/>
    <path fill-rule="evenodd" clip-rule="evenodd" d="M77.5376 17.4949C89.5336 17.4949 107.092 25.5085 108.413 33.2184C109.969 42.3044 113.425 76.4699 111.543 87.6499C109.662 98.8309 102.325 107.091 86.0996 107.091C69.8746 107.091 57.7636 98.2399 54.9836 95.2009C52.2026 92.1609 48.8336 82.7039 48.8336 82.7039C48.8336 82.7039 39.9506 81.1969 39.9086 74.1129C39.8676 67.0289 44.3716 64.8399 44.3716 64.8399C44.3716 64.8399 41.9406 35.4514 47.0496 28.1727C52.1586 20.894 65.5416 17.4949 77.5376 17.4949Z" fill="white"/>
    <path fill-rule="evenodd" clip-rule="evenodd" d="M113.756 54.9202C114.413 62.0617 114.66 69.2649 114.787 76.4339C114.909 83.2259 114.312 90.3109 110.443 96.1189C107.061 101.2 101.91 104.888 96.1736 106.879C92.9096 108.014 89.2946 108.434 85.8476 108.538C84.0666 108.591 82.2806 108.514 80.5106 108.331C80.2876 108.307 80.0636 108.287 79.8396 108.267C78.3406 108.134 76.8536 108.001 75.7606 106.868C75.4166 106.511 75.4206 105.777 75.9306 105.545C76.8996 105.103 77.5566 105.057 78.6196 105.203C79.5006 105.323 80.3836 105.418 81.2706 105.479C83.1726 105.613 85.0866 105.617 86.9876 105.471C90.4826 105.203 94.0566 104.215 97.2296 102.719C102.206 100.369 106.48 96.5179 108.787 91.4649C111.432 85.6789 111.299 78.9879 111.175 72.7579L111.17 72.5019C111.033 65.5909 110.777 58.7012 110.177 51.8133C109.95 49.2076 109.626 46.616 109.302 44.0235C109.21 43.2937 109.119 42.5637 109.03 41.8334C108.816 40.0665 108.536 38.3078 108.191 36.5623C108.087 36.0351 107.966 35.5121 107.844 34.9898C107.753 34.5969 107.662 34.2043 107.579 33.8105C107.437 33.8335 107.293 33.8464 107.145 33.8526C106.262 33.8824 105.297 33.6668 104.642 33.0391C104.39 33.2103 104.071 33.3181 103.687 33.3371C101.338 33.4531 98.9656 33.4014 96.5986 33.3498C95.3056 33.3216 94.0136 33.2934 92.7276 33.2927C89.0776 33.2906 85.4246 33.2927 81.7716 33.3033C81.2146 33.3048 80.6576 33.307 80.1006 33.3091C77.0066 33.3209 73.9076 33.3328 70.8176 33.2504C70.1626 33.2329 69.5036 33.2215 68.8426 33.2101C66.0746 33.1622 63.2666 33.1137 60.5626 32.6121C59.4366 36.6151 59.4766 41.0133 61.8236 44.5894C62.4866 45.5975 61.9486 46.7853 61.0846 47.4151C60.2016 48.0578 58.6136 49.0434 57.2546 49.1446C57.2026 49.263 57.1486 49.3811 57.0956 49.499C57.0166 49.6757 56.9366 49.8519 56.8596 50.0278C56.2116 51.5058 55.6276 52.9931 55.2186 54.5579C55.0076 55.3644 54.8266 56.1843 54.6736 57.0092C54.6866 57.1535 54.6996 57.2976 54.7146 57.4416C54.7146 57.4564 54.7166 57.471 54.7186 57.4879C54.7276 57.5473 54.7376 57.6149 54.7446 57.6529C54.7636 57.7545 54.7826 57.856 54.8016 57.9576C54.8596 58.2702 54.9186 58.5825 54.9806 58.8936C55.1776 59.8975 55.3296 60.9098 55.4376 61.9262C55.6336 63.7859 55.6146 66.2039 53.8016 67.3049C52.8326 67.8949 51.6706 67.8339 50.6456 67.4379C50.0746 67.2179 49.5736 66.9209 49.0576 66.6149C48.9526 66.5519 48.8456 66.4889 48.7376 66.4259C48.5716 66.3289 48.4016 66.2389 48.2316 66.1499C48.0186 66.0369 47.8056 65.9259 47.6016 65.7979C47.4996 65.7349 47.4026 65.6589 47.3116 65.5789C46.6256 65.7239 45.9556 65.9969 45.5796 66.1829C44.5716 66.6839 43.6866 67.4089 42.9346 68.2419C41.3356 70.0149 40.8556 72.5129 41.0796 74.8319C41.2886 76.9889 42.1356 79.4679 43.8406 80.9039C44.5826 81.5289 45.5076 81.8949 46.4856 81.8839C46.9676 81.8799 47.4116 81.7789 47.8756 81.6559C48.0746 81.6039 48.2926 81.5809 48.5106 81.5579C48.7976 81.5279 49.0836 81.4979 49.3236 81.4019C49.9506 81.1509 50.7236 81.9179 50.4686 82.5479C50.4116 82.6879 50.3616 82.8229 50.3136 82.9539C50.1996 83.2649 50.0946 83.5489 49.9246 83.8099C51.6746 86.6669 53.5906 89.4359 55.6296 92.0929C56.9216 93.7749 58.3756 95.2699 59.8356 96.7709C60.4516 97.4039 61.0686 98.0379 61.6756 98.6889C62.5786 99.6569 62.9546 101.563 61.3206 101.977C59.8846 102.345 58.7686 101.027 57.8826 99.9819C57.7646 99.8419 57.6496 99.7059 57.5396 99.5809C53.6626 95.1699 50.7326 90.1059 49.3606 84.3889C48.7426 84.8279 48.0326 85.0669 47.2846 85.1709C45.7946 85.3759 44.2886 85.0819 42.9826 84.3279C38.0396 81.4719 36.8436 73.7559 39.1586 68.9199C39.7176 67.7559 40.5416 66.7159 41.5476 65.9089C41.4686 65.7579 41.4366 65.5799 41.4876 65.3889C41.5776 65.0549 41.6756 64.7249 41.7786 64.3959C41.6656 64.3459 41.5836 64.2429 41.5996 64.0889C41.6776 63.2839 41.7546 62.4793 41.8316 61.6747L41.8736 61.2353C41.8646 60.7992 41.8506 60.3632 41.8376 59.9271C41.8076 58.9261 41.7776 57.9243 41.7896 56.9174C41.8006 55.846 41.8376 54.7751 41.8736 53.7042C41.9156 52.4724 41.9576 51.2407 41.9626 50.0084C41.9766 46.0173 42.0636 42.0283 42.1516 38.0394C42.2406 33.997 42.3286 29.9547 42.3406 25.9102C42.3536 21.981 42.3616 18.0459 42.2586 14.119C42.2566 14.0912 42.2566 14.0639 42.2556 14.0366C42.2556 14.0121 42.2546 13.9876 42.2546 13.9626C42.2416 13.4807 42.2106 12.9737 42.1796 12.4535C42.0056 9.58099 41.8086 6.30209 44.4086 4.58059C44.9136 4.24679 45.5436 4.24259 46.0926 4.45819C47.6736 3.35699 49.6546 2.82629 51.5496 2.51989C54.3436 2.06869 57.1556 1.79819 59.9696 1.52759C60.7926 1.44849 61.6156 1.36929 62.4386 1.28559C64.3356 1.09329 66.3326 1.01949 68.2416 1.06179C69.2356 1.08349 70.2356 1.04759 71.2376 1.01169C72.1826 0.977795 73.1296 0.943894 74.0736 0.958194C76.2786 0.994094 78.5016 1.07659 80.7156 1.25829C80.7666 1.25309 80.8186 1.24829 80.8706 1.24359C80.9236 1.23879 80.9766 1.23409 81.0286 1.22869C84.3816 0.906994 87.7316 1.07709 91.0836 1.24729C91.8946 1.28849 92.7066 1.32979 93.5186 1.36399C97.4856 1.53099 101.675 1.94099 105.238 3.84079C105.696 4.08469 106.084 4.36199 106.415 4.67099C106.879 4.73629 107.322 4.86799 107.719 5.08929C108.866 4.85739 110.146 5.37139 110.418 6.70269C110.813 8.65349 110.963 10.6209 110.726 12.5994C110.723 12.6243 110.72 12.6499 110.717 12.6761C110.715 12.6987 110.712 12.7218 110.709 12.7452C111.188 14.5806 111.156 16.585 110.758 18.3952C110.926 20.6825 111.022 22.9763 111.035 25.2662C111.037 25.6128 111.042 25.9607 111.047 26.3093C111.065 27.5544 111.083 28.8087 110.968 30.0426C110.838 31.4311 110.267 32.5299 109.368 33.5846C109.198 33.7832 108.912 33.8162 108.674 33.768C108.612 33.7556 108.559 33.7386 108.51 33.7186C108.954 34.6698 109.321 35.6684 109.681 36.6453C109.76 36.862 109.84 37.0776 109.919 37.2914C110.617 39.164 111.293 41.0683 111.772 43.0085C112.744 46.9204 113.384 50.9066 113.756 54.9202ZM46.4316 72.6239C46.2306 72.4859 46.0286 72.3459 45.8096 72.2429C45.7826 72.2299 44.6246 71.8539 44.8486 72.3499C44.9246 72.5149 44.7256 72.6989 44.5846 72.5529C44.1826 72.1449 44.4066 71.6549 44.7896 71.2909C45.4796 70.6339 46.5106 70.7859 47.3586 70.9429C48.5366 71.1599 49.6826 71.6759 50.6756 72.3379C51.7446 73.0499 53.0646 74.0369 53.2756 75.3869C53.4676 76.6279 52.2346 77.9949 50.9646 77.1649C50.2776 76.7149 49.7966 76.0449 49.3136 75.3729C48.9696 74.8949 48.6246 74.4139 48.2036 74.0119C47.7066 73.5379 47.1696 73.1219 46.6016 72.7409C46.5446 72.7029 46.4886 72.6639 46.4316 72.6239Z" fill="#3317CA"/>
    <path fill-rule="evenodd" clip-rule="evenodd" d="M90.9625 91.8199C89.5425 91.2409 88.2755 90.2739 87.3485 89.0389C87.0265 88.6089 86.9435 88.1559 87.0105 87.7409C87.0865 87.2749 87.3625 86.8519 87.7385 86.5689C88.1155 86.2849 88.5875 86.1439 89.0435 86.2159C89.4405 86.2779 89.8345 86.4949 90.1475 86.9449L90.2125 87.0349C90.7635 87.7809 91.4805 88.3919 92.2985 88.7869C93.0865 89.1669 93.9685 89.3439 94.8805 89.2409C96.6185 89.0449 97.8155 88.1049 99.0885 86.8279C99.2465 86.6669 99.4045 86.5009 99.5625 86.3319C99.6625 86.1789 99.8025 86.0799 99.9565 86.0289C100.128 85.9709 100.322 85.9749 100.5 86.0369C100.671 86.0959 100.824 86.2099 100.927 86.3609C101.024 86.5039 101.08 86.6809 101.062 86.8849C100.945 88.2069 100.254 89.3879 99.2715 90.3149C98.1805 91.3449 96.7345 92.0569 95.3735 92.3069C93.8745 92.5819 92.3465 92.3849 90.9625 91.8199ZM96.0815 71.4119C97.6765 72.3819 100.108 74.6439 98.3915 77.0489C96.3705 79.1699 93.4625 76.7389 92.0295 75.6389C90.7005 74.7869 89.2065 76.9789 90.4395 77.9739C100.797 85.6449 105.001 71.6659 96.8885 70.2719C95.9945 70.1179 95.6635 71.1119 96.0815 71.4119ZM77.5215 62.4888C77.6975 60.3 81.0295 59.8029 81.3615 61.9689C81.6575 63.9089 81.3085 65.6909 80.4345 67.4379C79.6005 69.1069 77.5025 68.3289 77.3435 66.8089C77.1305 64.7719 77.4115 63.8499 77.5215 62.4888ZM102.887 61.5197C103.352 60.9111 104.023 60.4955 104.826 60.7304C107.337 61.4644 106.597 65.0309 105.715 66.7659C105.236 67.7089 103.687 67.9479 102.987 67.1179C101.846 65.7649 101.3 63.0615 102.75 61.7284C102.79 61.6595 102.834 61.5899 102.887 61.5197ZM80.3995 52.9113L80.7965 52.8418C82.0235 52.6295 83.5485 52.4255 84.4165 53.4124C84.8775 53.9357 85.0355 54.9083 84.4165 55.4092C83.3285 56.2905 82.1245 55.949 80.8205 56.0236C79.7455 56.0853 78.7125 56.2633 77.6775 56.5594C75.4055 57.2089 73.5545 58.3945 71.6145 59.6965C71.3605 59.8672 71.1005 59.5415 71.2215 59.3033C72.3415 57.1089 74.5115 55.3063 76.6855 54.2075C77.8465 53.621 79.1155 53.1344 80.3995 52.9113ZM100.598 51.9282L100.902 51.9904C104.206 52.6812 108.498 54.0612 110.062 57.3074C110.122 57.7664 110.059 57.8648 110.008 57.9291L109.991 57.9505C109.948 58.0054 109.915 58.081 109.716 58.1435C109.661 58.1303 109.605 58.1164 109.549 58.1016C108.831 57.9136 108.264 57.6546 107.715 57.3859L107.119 57.0924C106.428 56.7535 105.731 56.4269 104.992 56.1858C103.416 55.6713 101.794 55.309 100.148 55.1155C99.7905 55.0736 99.4465 54.9531 99.1755 54.7465C98.9185 54.5505 98.7215 54.2791 98.6315 53.9183C98.5155 53.4515 98.5495 53.098 98.7995 52.6768C98.9875 52.3605 99.2575 52.1412 99.5665 52.0153C99.8815 51.887 100.241 51.8567 100.598 51.9282Z" fill="#3317CA"/>
    <path fill-rule="evenodd" clip-rule="evenodd" d="M304.037 211.887C303.186 207.076 302.405 202.252 301.696 197.418C301.359 195.123 301.03 192.825 300.735 190.524C300.528 188.912 300.213 187.068 301.31 185.874C302.853 184.194 304.254 182.755 304.443 180.348C304.621 178.083 303.855 175.614 303.376 173.415C302.372 168.804 301.123 164.25 299.742 159.74C298.339 155.157 296.8 150.617 295.239 146.086C293.78 141.85 292.378 137.576 290.477 133.511C286.871 125.798 280.77 120.086 273.229 116.272C271.354 115.323 267.528 111.937 265.569 111.179C263.768 110.482 263.774 112.517 262.002 111.75C260.584 111.137 259.265 110.32 258.471 108.951C257.61 107.465 255.449 105.386 255.12 103.656C254.423 99.9888 255.178 96.8668 252.562 94.1068C250.239 91.6558 247.117 89.9768 243.887 89.0758C236.781 87.0928 227.304 88.4788 223.016 95.0848C220.969 98.2398 220.253 102.053 217.49 104.627C215.077 106.875 215.617 108.412 212.492 109.571C212.315 109.637 207.518 108.607 207.341 108.673C203.922 107.941 200.654 109.99 197.518 111.179C192.842 112.951 188.39 115.257 184.208 117.999C175.774 123.527 168.551 130.705 162.596 138.828C156.592 147.017 151.933 156.197 148.616 165.791C147.81 168.121 147.087 170.48 146.448 172.862C146.091 174.194 145.709 175.577 146.144 176.942C146.5 178.058 147.292 178.889 148.221 179.559C149.481 180.467 152.008 181.058 151.959 182.884C151.921 184.273 151.45 185.734 151.22 187.106C150.947 188.741 150.722 190.384 150.497 192.026C149.474 199.497 148.679 207.01 148.327 214.545C147.98 221.964 147.693 229.534 148.207 236.951C148.241 237.44 148.387 237.889 148.622 238.268C148.402 238.352 148.386 238.762 148.659 238.82C148.85 238.86 149.041 238.901 149.233 238.941C149.63 239.242 150.126 239.427 150.697 239.445C151.083 239.457 151.47 239.475 151.856 239.494C155.934 240.347 160.011 241.153 164.142 241.763C169.164 242.504 174.2 243.108 179.252 243.6C189.632 244.609 199.931 244.274 210.325 243.73C220.703 243.187 231.076 243.06 241.465 243.33C251.863 243.601 262.257 244.053 272.658 244.238C284.277 244.445 295.879 244.128 307.465 243.204C309.053 243.077 310.036 241.813 309.723 240.234C307.846 230.778 305.719 221.385 304.037 211.887Z" fill="white"/>
    <path fill-rule="evenodd" clip-rule="evenodd" d="M204.1 108.44C205.174 108.393 206.27 108.567 207.342 108.673C207.435 108.682 207.471 108.826 207.366 108.848C205.447 109.249 203.55 109.798 201.665 110.355L200.859 110.593C198.734 111.222 196.672 111.871 194.615 112.709C190.515 114.381 186.622 116.637 183.039 119.229C169.24 129.209 159.254 144.319 152.951 159.963C151.24 164.212 149.79 168.566 148.615 172.994C148.33 174.071 148.061 175.152 147.806 176.237C147.731 176.555 147.405 177.37 147.584 177.695C147.742 177.983 148.356 178.161 148.642 178.31L149.605 178.81C151.485 179.779 154.616 181.372 154.93 181.528L155.42 181.769C163.429 185.697 171.987 189.028 181 189.258L181.07 188.488C181.472 184.231 182 179.952 183.151 175.826C183.212 175.604 183.494 175.679 183.52 175.876C184.161 180.761 183.956 185.683 183.733 190.59C183.337 199.281 182.811 207.968 182.343 216.656C182.109 221.002 181.806 225.345 181.533 229.688C181.26 234.041 181.171 238.498 180.546 242.814C180.407 243.776 179.281 244.299 178.428 244.198C177.484 244.085 176.758 243.254 176.753 242.3C176.742 239.786 177.058 237.241 177.233 234.733C177.4 232.35 177.579 229.968 177.762 227.586C178.432 218.893 179.203 210.21 179.916 201.521C180.169 198.439 180.442 195.36 180.723 192.281C171.175 191.973 162.255 188.435 153.746 184.302C153.622 187.099 153.325 189.892 153.037 192.678C152.233 200.453 151.524 208.224 150.994 216.023C150.726 219.962 150.531 223.906 150.361 227.85C150.278 229.789 150.21 231.728 150.157 233.667C150.14 234.314 150.124 234.96 150.11 235.607L150.081 237.088C150.058 238.026 149.962 238.896 149.173 239.579C148.371 240.273 147.288 240.31 146.495 239.579C145.432 238.6 145.62 237.267 145.652 235.953C145.678 234.845 145.709 233.736 145.746 232.628C145.819 230.412 145.913 228.196 146.027 225.981C146.425 218.238 147.221 210.526 148.262 202.845L148.668 199.88C149.426 194.368 150.259 188.731 151.955 183.421C151.295 183.092 150.636 182.762 149.98 182.429C148.817 181.84 147.614 181.287 146.484 180.637C145.587 180.121 144.813 179.413 144.563 178.369C144.285 177.206 144.711 175.933 144.994 174.798L145.018 174.698C145.296 173.555 145.594 172.417 145.91 171.284C147.188 166.69 148.768 162.185 150.618 157.79C154.321 148.991 159.102 140.632 164.941 133.074C170.197 126.27 176.406 120.101 183.684 115.473C187.241 113.211 191.033 111.353 195.042 110.04C196.916 109.426 198.956 108.892 200.918 108.673C201.976 108.554 203.036 108.486 204.1 108.44ZM223.137 94.4978C224.414 93.1258 226.951 94.5448 226.338 96.3618C224.896 100.635 222.599 104.533 219.016 107.341C215.647 109.981 211.629 111.695 207.303 111.329C207.27 111.326 207.241 111.318 207.216 111.306L207.588 111.811C210.515 115.772 213.603 119.679 217.325 122.916C224.908 129.513 235.232 133.07 245.202 130.539C253.046 128.548 259.957 122.343 261.989 114.435C261.698 114.566 261.351 114.611 260.971 114.528C259.345 114.175 257.735 112.464 256.687 111.237C255.552 109.91 254.666 108.477 254.017 106.857C252.828 103.893 252.447 100.076 254.07 97.2048C254.27 96.8508 254.732 97.0488 254.771 97.3948L254.833 97.9338C255.146 100.625 255.536 103.229 256.804 105.682C257.425 106.882 258.169 108.054 259.075 109.06C259.559 109.597 260.085 110.111 260.652 110.562C261.205 111.002 261.874 111.32 262.369 111.824L262.46 111.921L262.462 111.903C262.588 110.838 263.335 110.368 264.065 110.398C264.773 110.426 265.603 110.738 265.925 110.887L265.955 110.901C270.889 113.27 275.433 116.358 279.709 119.785C288.552 126.87 295.177 136.132 298.387 147.04C299.963 152.393 300.867 157.909 301.821 163.399L302.409 166.763C303.3 171.832 304.295 177 306.306 181.715C306.826 182.934 306.425 184.078 305.149 184.558C303.557 185.157 301.958 185.737 300.357 186.31C301.143 189.683 301.623 193.174 302.212 196.564C303.464 203.771 304.998 210.932 306.313 218.129C306.986 221.809 307.592 225.502 308.264 229.182C308.588 230.955 308.925 232.724 309.254 234.496C309.43 235.451 309.591 236.409 309.76 237.366L309.789 237.525C309.886 238.029 310.007 238.551 309.868 239.056C309.71 239.632 309.261 240.039 308.86 240.452C308.529 240.792 308.052 240.794 307.648 240.609L307.514 240.547C306.792 240.209 306.226 239.872 305.969 239.056C305.807 238.54 305.749 237.958 305.643 237.427C305.439 236.407 305.246 235.386 305.064 234.362C304.7 232.313 304.344 230.263 303.997 228.211L303.672 226.29C302.559 219.669 301.502 213.007 300.967 206.316C300.73 203.347 300.479 200.381 300.225 197.414L300.035 195.189C299.794 192.373 299.499 189.486 299.458 186.631L298.5 186.971L293.829 188.623C292.671 189.033 291.196 189.872 289.95 189.719C289.34 189.644 288.875 189.452 288.515 189.103C288.946 195.176 289.528 201.238 290.304 207.269C291.01 212.757 291.793 218.238 292.717 223.693C293.175 226.395 293.645 229.094 294.156 231.786C294.412 233.132 294.676 234.476 294.947 235.819C295.083 236.489 295.244 237.159 295.349 237.835C295.47 238.608 295.257 239.084 294.825 239.721C294.471 240.243 293.761 240.512 293.186 240.151C292.424 239.673 292.026 239.258 291.802 238.388C291.599 237.596 291.475 236.77 291.317 235.969C291.026 234.49 290.745 233.01 290.474 231.527C289.906 228.426 289.383 225.317 288.915 222.199C287.268 211.216 286.224 200.14 285.696 189.047C285.435 183.573 285.355 178.095 285.401 172.616C285.425 169.808 285.516 166.991 285.715 164.19C285.916 161.354 286.334 158.575 286.708 155.766C286.721 155.668 286.861 155.662 286.866 155.766C287.043 158.915 287.32 162.06 287.456 165.217C287.586 168.23 287.643 171.247 287.746 174.26C287.881 178.221 288.069 182.185 288.318 186.145C288.768 185.653 289.447 185.369 290.126 185.48C291.109 185.273 292.168 184.757 293.106 184.443L296.641 183.262C298.5 182.641 300.358 182.024 302.223 181.426C300.556 175.814 299.414 170.118 298.438 164.34L298.003 161.741C297.142 156.625 296.214 151.507 294.654 146.554C293.015 141.345 290.561 136.503 287.306 132.118C284.097 127.797 280.194 123.992 276.175 120.433C272.734 117.386 269.053 114.635 265.543 111.672C265.58 111.868 265.588 112.084 265.555 112.322C264.809 117.785 261.96 122.873 257.99 126.657C250.014 134.26 238.206 135.837 227.998 132.272C218.122 128.824 209.392 120.657 206.307 110.551C206.254 110.378 206.486 110.309 206.579 110.436C206.75 110.671 206.922 110.905 207.094 111.14C207.082 111.047 207.131 110.945 207.246 110.901C210.844 109.511 214.379 107.539 217.077 104.75C218.391 103.39 219.539 101.85 220.445 100.189C220.879 99.3928 221.269 98.5688 221.58 97.7168L221.659 97.4968C222.036 96.4298 222.351 95.3428 223.137 94.4978Z" fill="#1F00C5"/>
    <path fill-rule="evenodd" clip-rule="evenodd" d="M242.199 6.23367C254.195 6.23367 269.22 19.9231 273.617 25.7484C277.314 30.6461 276.791 55.8773 276.791 70.8447C276.791 73.9747 275.376 79.8997 274.863 82.8937C272.981 93.8657 264.784 103.068 248.559 103.068C235.347 103.068 225.181 98.8817 215.349 88.1747C213.106 85.7317 202.153 94.4767 199.913 91.3277C194.061 91.3277 189.168 36.6348 200.657 20.2302C212.145 3.82547 230.203 6.23367 242.199 6.23367Z" fill="white"/>
    <path fill-rule="evenodd" clip-rule="evenodd" d="M206.145 10.0862C213.077 3.77738 222.311 0.74238 231.628 0.96638C236.453 1.08268 241.262 2.00198 245.819 3.57658C248.098 4.36708 250.306 5.39838 252.417 6.56508C253.177 6.98448 253.878 7.47598 254.553 7.99798L254.722 8.12908H254.724C256.534 8.77998 258.15 9.94878 259.617 11.3162C262.555 11.0816 265.517 11.3458 268.359 12.2525C272.314 13.5164 275.975 15.8307 278.546 19.1172C281.541 22.9433 282.537 27.5843 282.182 32.3753L282.116 33.1892C281.765 37.4214 281.135 42.865 277.663 45.6459C277.399 45.8572 277.107 46.0179 276.805 46.1151C279.043 49.949 280.879 54.2056 281.977 58.5044C286.171 74.9238 282.947 92.0478 277.904 107.874C277.49 109.178 275.519 110.045 274.515 108.77C272.724 106.492 270.121 104.754 267.193 104.429C265.386 104.228 263.588 104.592 261.881 103.772C261.212 103.448 260.565 102.92 260.1 102.277C257.219 103.37 254.115 103.886 251.037 103.759C245.986 103.552 240.586 101.802 237.11 97.9638C236.553 97.3478 236.411 96.6558 236.54 96.0318C236.976 95.8768 237.423 95.7608 237.884 95.6888C242.291 98.2868 247.149 100.023 252.37 100.132C255.386 100.195 258.329 99.7728 260.775 97.8888C261.304 97.4808 261.791 97.0288 262.241 96.5438C267.355 93.2528 270.961 87.6628 272.675 81.6748C274.272 76.0908 274.076 70.2768 273.527 64.5488L273.237 61.5268C272.814 57.0906 272.422 52.6412 272.313 48.1863L272.346 48.1846C273.426 48.1149 273.434 46.4234 272.346 46.4938C269.532 46.676 266.739 46.2142 263.934 46.4154C263.911 45.0888 263.815 43.768 263.425 42.4885C263.203 41.7574 261.93 41.6133 261.796 42.4885C261.615 43.6594 261.549 44.8237 261.53 45.9999C257.332 45.9441 253.137 45.5907 248.939 45.7359C248.164 44.9095 247.918 43.4442 247.555 42.4249C247.503 42.2748 247.45 42.1269 247.395 41.9768C247.076 43.4335 246.625 44.8582 246.032 46.2529L245.002 46.2564C239.159 46.2838 233.198 46.4585 227.493 47.6723C227.096 47.3677 226.86 46.8364 226.796 46.3539C226.382 43.2141 225.792 40.1578 224.745 37.1657L224.595 36.7436C224.583 36.7086 224.57 36.6713 224.557 36.6322C223.785 37.8777 222.865 39.0386 221.861 40.1197C221.27 40.7569 220.649 41.3662 220.013 41.9582C219.394 42.6451 218.755 43.3217 218.136 44.0107C218.16 44.136 218.181 44.2632 218.198 44.3928C218.388 45.8226 218.408 47.2726 218.269 48.7079C218.018 51.3027 217.286 53.8029 216.109 56.116L216.072 56.3476C215.893 57.4315 215.639 58.5517 215.046 59.368C215.786 60.1978 216.357 61.1898 216.688 62.2918C216.982 63.2728 215.626 64.1228 214.922 63.3198C214.364 62.6818 213.743 62.1548 213.061 61.7338C213.018 61.7918 212.94 61.8208 212.853 61.7718C210.953 60.7168 207.728 61.0368 205.83 62.0298C203.471 63.2638 202.549 65.7978 202.811 68.3658C203.063 70.8198 204.136 73.6878 206.217 74.9458C207.172 75.5228 207.916 75.5708 208.93 75.2938C209.254 75.2058 209.656 74.9358 209.828 74.8018L209.998 74.6658C210.663 74.1398 211.282 73.7798 212.067 73.7658C212.869 73.5158 213.676 73.8628 213.983 74.7048L214.002 74.7598C214.146 75.1888 214.407 75.7278 214.35 76.3828C214.291 77.0838 213.97 77.7228 213.491 78.2358C213.408 78.3248 213.319 78.4138 213.229 78.4958C221.489 87.4428 222.55 101.383 218.314 112.56C218.13 113.05 217.934 113.534 217.729 114.014C217.021 115.658 214.296 115.149 213.949 113.519C213.846 113.031 213.731 112.545 213.607 112.063C213.378 111.172 213.115 110.29 212.819 109.421L212.707 109.096C212.455 108.377 212.221 107.652 211.967 106.933L211.942 106.851C211.932 106.819 211.922 106.781 211.91 106.739L211.481 107.675L210.178 110.501C209.568 111.82 207.63 111.103 207.558 109.832L207.556 109.789C207.55 109.554 207.542 109.322 207.527 109.091C207.434 107.365 207.136 105.686 206.663 104.044L206.492 104.257C203.95 107.401 200.966 110.348 196.873 111.074C195.846 111.256 194.684 110.182 195.39 109.144C195.681 108.715 195.962 108.276 196.228 107.83C195.998 107.722 195.78 107.61 195.58 107.496C194.027 106.623 192.734 105.38 191.665 103.97C189.398 100.982 188.587 97.2198 188.388 93.5378C188.177 89.6468 188.519 85.5448 189.582 81.7908C190.042 80.1678 190.666 78.6098 191.386 77.0988C191.335 76.9638 191.287 76.8288 191.238 76.6928C190.461 74.5248 189.823 72.3078 189.292 70.0648C188.223 65.5378 187.649 60.8678 187.579 56.2155C187.452 47.882 188.889 39.4153 191.916 31.6439C195.043 23.6295 199.746 15.9089 206.145 10.0862ZM202.252 82.9468C201.678 82.0428 200.241 82.8578 200.774 83.7688L200.794 83.8008C201.705 85.2358 202.131 86.8678 202.655 88.4678C202.991 89.4968 204.624 89.0568 204.284 88.0178L204.172 87.6698C203.65 86.0478 203.175 84.3988 202.252 82.9468ZM207.252 65.6838L207.633 65.4988C208.837 64.9248 209.891 64.5338 211.312 65.0348C213.216 65.7048 215.254 67.8378 213.968 69.9068C213.495 70.6698 212.654 70.9738 211.788 70.7948C210.327 70.4918 209.95 69.1758 209.21 68.0958L209.082 67.9128C208.63 67.2598 208.059 66.3568 207.307 66.1008C207.136 66.0408 207.064 65.7748 207.252 65.6838ZM208.325 21.753L208.448 21.6428C209.266 20.92 208.066 19.728 207.253 20.4466C203.53 23.7373 202.237 28.8879 200.306 33.2777C199.873 34.2647 201.329 35.127 201.766 34.1315C203.608 29.9427 204.831 24.9319 208.325 21.753ZM253.059 20.3135C252.086 19.875 251.235 21.291 252.171 21.7573L252.206 21.7739C255.493 23.2597 256.891 26.6244 258.231 29.7481C258.658 30.7457 260.113 29.8855 259.691 28.8964L259.449 28.3359C258.051 25.1167 256.421 21.8355 253.059 20.3135ZM258.211 18.2802C257.18 17.9231 256.739 19.5547 257.761 19.9119C260.548 20.882 262.46 22.9743 264.072 25.3668C264.676 26.2629 266.14 25.4175 265.53 24.513C263.658 21.7358 261.435 19.4046 258.211 18.2802Z" fill="#1F00C5"/>
    <path fill-rule="evenodd" clip-rule="evenodd" d="M252.553 88.2269C251.133 87.6479 249.865 86.6809 248.939 85.4459C248.617 85.0159 248.533 84.5629 248.601 84.1479C248.677 83.6819 248.953 83.2589 249.329 82.9759C249.706 82.6919 250.178 82.5509 250.634 82.6229C251.03 82.6849 251.425 82.9019 251.737 83.3519L251.802 83.4419C252.353 84.1879 253.071 84.7989 253.889 85.1939C254.677 85.5739 255.558 85.7509 256.471 85.6479C258.208 85.4519 259.406 84.5119 260.679 83.2349C260.836 83.0739 260.994 82.9079 261.153 82.7389C261.253 82.5859 261.392 82.4869 261.546 82.4359C261.718 82.3779 261.912 82.3819 262.089 82.4439C262.261 82.5029 262.414 82.6169 262.516 82.7679C262.614 82.9109 262.669 83.0879 262.651 83.2919C262.535 84.6139 261.843 85.7949 260.861 86.7219C259.771 87.7519 258.325 88.4639 256.964 88.7139C255.464 88.9889 253.936 88.7919 252.553 88.2269ZM257.671 67.8189C259.267 68.7889 261.697 71.0509 259.981 73.4559C257.961 75.5769 255.052 73.1459 253.619 72.0459C252.29 71.1939 250.797 73.3859 252.03 74.3809C262.387 82.0519 266.59 68.0729 258.478 66.6789C257.585 66.5249 257.253 67.5189 257.671 67.8189ZM239.111 58.8958C239.287 56.707 242.62 56.2099 242.951 58.3759C243.248 60.3159 242.898 62.0979 242.025 63.8449C241.19 65.5139 239.092 64.7359 238.933 63.2159C238.721 61.1789 239.001 60.2569 239.111 58.8958ZM264.477 57.9267C264.941 57.3181 265.612 56.9025 266.416 57.1374C268.927 57.8714 268.187 61.4379 267.305 63.1729C266.826 64.1159 265.277 64.3549 264.577 63.5249C263.436 62.1719 262.89 59.4685 264.34 58.1354C264.379 58.0665 264.423 57.9969 264.477 57.9267ZM241.99 49.3183L242.386 49.2488C243.613 49.0365 245.139 48.8325 246.007 49.8194C246.467 50.3427 246.626 51.3153 246.007 51.8162C244.918 52.6975 243.715 52.356 242.411 52.4306C241.336 52.4923 240.303 52.6703 239.267 52.9664C236.996 53.6159 235.145 54.8015 233.205 56.1035C232.95 56.2742 232.69 55.9485 232.812 55.7103C233.932 53.5159 236.102 51.7133 238.276 50.6145C239.436 50.028 240.706 49.5414 241.99 49.3183ZM262.188 48.3352L262.491 48.3974C265.795 49.0882 270.087 50.4682 271.652 53.7144C271.711 54.1734 271.648 54.2718 271.597 54.3361L271.58 54.3575C271.538 54.4124 271.504 54.488 271.305 54.5505C271.25 54.5373 271.194 54.5234 271.138 54.5086C270.421 54.3206 269.854 54.0616 269.304 53.7929L268.709 53.4994C268.018 53.1605 267.321 52.8339 266.582 52.5928C265.005 52.0783 263.384 51.716 261.737 51.5225C261.38 51.4806 261.037 51.3601 260.765 51.1535C260.508 50.9575 260.312 50.6861 260.222 50.3253C260.106 49.8585 260.139 49.505 260.389 49.0838C260.578 48.7675 260.847 48.5482 261.157 48.4223C261.472 48.294 261.831 48.2637 262.188 48.3352Z" fill="#1F00C5"/>
    <path fill-rule="evenodd" clip-rule="evenodd" d="M230.347 192.976C228.866 193.211 227.654 192.999 226.805 192.226C225.955 191.453 225.474 190.219 225.368 188.622C225.256 186.926 225.565 185.566 226.296 184.543C227.026 183.52 228.178 182.833 229.759 182.583C230.845 182.411 231.747 182.47 232.663 182.728L232.182 184.518C231.267 184.26 230.569 184.27 229.976 184.364C228.297 184.629 227.488 185.968 227.64 188.263C227.713 189.36 227.97 190.227 228.496 190.648C228.931 191.184 229.642 191.374 230.433 191.248C231.42 191.092 232.296 190.752 233.053 190.128L233.179 192.023C232.797 192.286 232.415 192.548 232.026 192.71L230.347 192.976Z" fill="#1F00C5"/>
    <path fill-rule="evenodd" clip-rule="evenodd" d="M243.773 190.749L241.699 191.077L241.29 184.891C241.237 184.093 241.105 183.609 240.782 183.257C240.459 182.904 240.051 182.768 239.36 182.878C238.57 183.003 237.997 183.396 237.635 183.957C237.273 184.519 237.135 185.447 237.221 186.745L237.551 191.734L235.477 192.063L234.809 181.984L236.488 181.718L236.871 182.968L236.969 182.953C237.233 182.407 237.608 182.045 238.082 181.668C238.556 181.291 239.142 181.096 239.833 180.987C241.315 180.752 242.434 181.079 243.001 182.099L243.1 182.084C243.363 181.538 243.731 181.075 244.304 180.683C244.778 180.305 245.463 180.095 246.154 179.985C247.34 179.798 248.248 179.957 248.782 180.478C249.315 180.997 249.671 181.849 249.757 183.145L250.193 189.732L248.119 190.061L247.71 183.874C247.657 183.076 247.525 182.593 247.202 182.24C246.879 181.887 246.372 181.767 245.78 181.861C244.989 181.986 244.417 182.379 244.055 182.941C243.693 183.502 243.548 184.332 243.621 185.428L243.971 190.718L243.773 190.749Z" fill="#1F00C5"/>
    <path fill-rule="evenodd" clip-rule="evenodd" d="M233.927 206.323C230.509 205.958 227.328 204.646 224.694 202.542C222.059 200.439 220.076 197.627 218.963 194.375L220.418 193.742C221.518 196.795 223.382 199.322 225.806 201.257C228.23 203.192 231.101 204.352 234.321 204.748L233.927 206.323Z" fill="#1F00C5"/>
    <path fill-rule="evenodd" clip-rule="evenodd" d="M219.068 194.46C216.834 187.857 218.222 180.176 222.928 174.389L224.087 175.314C219.848 180.623 218.421 187.706 220.523 193.826L219.068 194.46Z" fill="#FF91D0"/>
    <path fill-rule="evenodd" clip-rule="evenodd" d="M224.088 175.314L222.929 174.389C227.537 168.617 234.713 165.464 241.647 166.181L241.351 167.74C234.918 167.045 228.327 170.004 224.088 175.314Z" fill="#00FFCD"/>
    <path fill-rule="evenodd" clip-rule="evenodd" d="M255.05 178.678C254.055 175.709 252.191 173.182 249.767 171.247C247.344 169.312 244.472 168.152 241.351 167.74L241.647 166.181C245.065 166.546 248.245 167.858 250.88 169.962C253.514 172.065 255.497 174.877 256.611 178.128L255.05 178.678Z" fill="#1F00C5"/>
    <path fill-rule="evenodd" clip-rule="evenodd" d="M252.645 198.115L251.486 197.189C255.725 191.881 257.152 184.798 255.05 178.679L256.505 178.044C258.838 184.632 257.352 192.328 252.645 198.115Z" fill="#FF91D0"/>
    <path fill-rule="evenodd" clip-rule="evenodd" d="M239.109 206.208C237.43 206.474 235.738 206.541 234.026 206.308L234.321 204.748C240.656 205.459 247.254 202.599 251.585 197.174L252.744 198.1C249.242 202.486 244.245 205.395 239.109 206.208Z" fill="#00FFCD"/>
</svg>
