<svg viewBox="0 0 147 48" fill="none" xmlns="http://www.w3.org/2000/svg">
  <path fill-rule="evenodd" clip-rule="evenodd" d="M14.4949 30.5785C12.6927 30.5785 11.2509 30.0979 10.2897 29.0165C9.3285 27.9352 8.8479 26.3733 8.8479 24.4509C8.8479 22.4084 9.3285 20.8464 10.2897 19.7651C11.2509 18.6838 12.6927 18.083 14.615 18.083C15.9367 18.083 17.018 18.3233 18.0993 18.8039L17.3785 20.8464C16.2971 20.3658 15.4561 20.2457 14.7352 20.2457C12.6927 20.2457 11.6113 21.6875 11.6113 24.4509C11.6113 25.7725 11.8516 26.8539 12.4524 27.4546C12.933 28.1755 13.774 28.5359 14.7352 28.5359C15.9367 28.5359 17.018 28.2956 17.9792 27.6949V29.9777C17.4986 30.218 17.018 30.4583 16.5374 30.5785H14.4949Z" fill="#1F00C5"/>
  <path fill-rule="evenodd" clip-rule="evenodd" d="M30.8352 30.4587H28.312V23.0094C28.312 22.0483 28.1919 21.4475 27.8314 20.9669C27.471 20.4851 26.9904 20.246 26.1494 20.246C25.1882 20.246 24.4673 20.6065 23.9867 21.2072C23.5061 21.808 23.2658 22.8881 23.2658 24.4512V30.4587H20.7427V18.3225H22.7852L23.1456 19.8844H23.2658C23.6262 19.2836 24.1068 18.9232 24.7076 18.5639C25.3083 18.2035 26.0292 18.0822 26.8703 18.0822C28.6725 18.0822 29.9941 18.6829 30.5949 20.0057H30.715C31.0755 19.405 31.5561 18.9232 32.2769 18.5639C32.8777 18.2035 33.7187 18.0822 34.5598 18.0822C36.0016 18.0822 37.0829 18.4438 37.6836 19.1647C38.2844 19.8844 38.6448 20.9669 38.6448 22.5277V30.4587H36.1217V23.0094C36.1217 22.0483 36.0016 21.4475 35.6411 20.9669C35.2807 20.4851 34.6799 20.246 33.959 20.246C32.9978 20.246 32.2769 20.6065 31.7964 21.2072C31.3158 21.808 31.0755 22.7692 31.0755 24.0896V30.4587H30.8352Z" fill="#1F00C5"/>
  <path fill-rule="evenodd" clip-rule="evenodd" d="M17.7391 47.1587C13.654 46.0786 9.92942 43.9147 6.92571 40.911C3.92199 37.9073 1.75932 34.1827 0.677979 30.0976L2.48021 29.617C3.56155 33.463 5.60407 36.8259 8.36749 39.5893C11.1309 42.3528 14.4951 44.2763 18.3398 45.3565L17.7391 47.1587Z" fill="#1F00C5"/>
  <path fill-rule="evenodd" clip-rule="evenodd" d="M0.797951 30.2181C-1.36472 21.9278 0.918099 13.0368 7.04568 7.02942L8.36731 8.35105C2.84048 13.8767 0.557653 22.048 2.60018 29.7375L0.797951 30.2181Z" fill="#FF91D0"/>
  <path fill-rule="evenodd" clip-rule="evenodd" d="M8.36778 8.35096L7.04614 7.02932C13.0536 1.02189 21.9446 -1.38108 30.2348 0.781591L29.7542 2.58382C22.0647 0.541294 13.8946 2.82412 8.36778 8.35096Z" fill="#00FFCD"/>
  <path fill-rule="evenodd" clip-rule="evenodd" d="M45.3732 18.2033C44.412 14.4775 42.3695 11.1145 39.6061 8.3511C36.8427 5.58768 33.4785 3.6641 29.7539 2.58397L30.2345 0.781738C34.3196 1.86187 38.0442 4.02575 41.0479 7.02947C44.0516 10.0332 46.2143 13.7578 47.2956 17.8428L45.3732 18.2033Z" fill="#1F00C5"/>
  <path fill-rule="evenodd" clip-rule="evenodd" d="M40.9276 40.9107L39.606 39.5891C45.1328 34.0635 47.4156 25.8922 45.3731 18.2038L47.1753 17.722C49.4581 26.0135 47.0552 34.9033 40.9276 40.9107Z" fill="#FF91D0"/>
  <path fill-rule="evenodd" clip-rule="evenodd" d="M23.987 48C21.9444 48 19.9019 47.7597 17.8594 47.159L18.34 45.3567C25.9093 47.3993 34.0794 45.2366 39.7264 39.5896L41.0481 40.9112C36.4824 45.4769 30.2347 48 23.987 48Z" fill="#00FFCD"/>
  <path d="M60.6716 20.0005C59.1991 20.0005 58.08 19.5708 57.3144 18.7113C56.5488 17.8518 56.166 16.6184 56.166 15.0109C56.166 13.3741 56.5664 12.1157 57.3672 11.2357C58.168 10.3557 59.3252 9.91575 60.8388 9.91575C61.8655 9.91575 62.7894 10.1064 63.6108 10.4877L62.986 12.1509C62.1118 11.8107 61.3903 11.6405 60.8212 11.6405C59.1375 11.6405 58.2956 12.7581 58.2956 14.9933C58.2956 16.0845 58.5053 16.9044 58.9248 17.4529C59.3443 18.0014 59.9588 18.2757 60.7684 18.2757C61.6895 18.2757 62.5606 18.0469 63.382 17.5893V19.3933C63.0124 19.6104 62.6178 19.7658 62.1984 19.8597C61.7789 19.9536 61.27 20.0005 60.6716 20.0005ZM74.3027 14.9405C74.3027 16.5304 73.895 17.7712 73.0795 18.6629C72.264 19.5546 71.1289 20.0005 69.6739 20.0005C68.7646 20.0005 67.9609 19.7952 67.2627 19.3845C66.5646 18.9738 66.0278 18.3842 65.6524 17.6157C65.2769 16.8472 65.0892 15.9555 65.0892 14.9405C65.0892 13.3624 65.494 12.1304 66.3036 11.2445C67.1132 10.3587 68.2542 9.91575 69.7267 9.91575C71.1347 9.91575 72.2494 10.3689 73.0707 11.2753C73.892 12.1817 74.3027 13.4035 74.3027 14.9405ZM67.2187 14.9405C67.2187 17.1875 68.0489 18.3109 69.7091 18.3109C71.3518 18.3109 72.1731 17.1875 72.1731 14.9405C72.1731 12.7171 71.3459 11.6053 69.6915 11.6053C68.8233 11.6053 68.1941 11.8928 67.8039 12.4677C67.4138 13.0427 67.2187 13.8669 67.2187 14.9405ZM79.9611 20.0005C78.7467 20.0005 77.7992 19.5605 77.1187 18.6805C76.4382 17.8005 76.0979 16.5656 76.0979 14.9757C76.0979 13.38 76.4426 12.1377 77.1319 11.2489C77.8212 10.3601 78.776 9.91575 79.9963 9.91575C81.2752 9.91575 82.2491 10.388 82.9179 11.3325H83.0235C82.9237 10.6344 82.8739 10.083 82.8739 9.67815V6.13177H84.9506V19.8245H83.3315L82.9707 18.5485H82.8739C82.2109 19.5165 81.24 20.0005 79.9611 20.0005ZM80.5155 18.3285C81.3661 18.3285 81.9851 18.0894 82.3723 17.6113C82.7595 17.1332 82.9589 16.3573 82.9707 15.2837V14.9933C82.9707 13.7672 82.7712 12.896 82.3723 12.3797C81.9733 11.8635 81.3485 11.6053 80.4979 11.6053C79.7704 11.6053 79.2101 11.9001 78.8171 12.4897C78.424 13.0793 78.2275 13.9197 78.2275 15.0109C78.2275 16.0904 78.4181 16.9132 78.7995 17.4793C79.1808 18.0454 79.7528 18.3285 80.5155 18.3285ZM92.1578 20.0005C90.6442 20.0005 89.4606 19.559 88.607 18.6761C87.7534 17.7932 87.3266 16.5773 87.3266 15.0285C87.3266 13.4387 87.7226 12.1891 88.5146 11.2797C89.3066 10.3704 90.3949 9.91575 91.7794 9.91575C93.0642 9.91575 94.0791 10.3059 94.8242 11.0861C95.5692 11.8664 95.9418 12.94 95.9418 14.3069V15.4245H89.4562C89.4855 16.3691 89.7407 17.095 90.2218 17.6025C90.7029 18.11 91.3805 18.3637 92.2546 18.3637C92.8295 18.3637 93.3649 18.3094 93.8606 18.2009C94.3563 18.0924 94.8887 17.912 95.4578 17.6597V19.3405C94.9532 19.581 94.4429 19.7512 93.9266 19.8509C93.4103 19.9506 92.8207 20.0005 92.1578 20.0005ZM91.7794 11.4821C91.1223 11.4821 90.5958 11.6904 90.1998 12.1069C89.8038 12.5235 89.5677 13.1307 89.4914 13.9285H93.909C93.8973 13.1248 93.7037 12.5161 93.3282 12.1025C92.9527 11.6889 92.4365 11.4821 91.7794 11.4821ZM64.9484 37.246H62.8716V31.2445C62.8716 30.4994 62.7308 29.9436 62.4492 29.5769C62.1676 29.2102 61.7276 29.0269 61.1292 29.0269C60.3313 29.0269 59.7461 29.2865 59.3736 29.8057C59.0011 30.3249 58.8148 31.1887 58.8148 32.3973V37.246H56.7468V27.5133H58.366L58.6564 28.7893H58.762C59.0319 28.3258 59.4235 27.968 59.9368 27.7157C60.4501 27.4634 61.0148 27.3373 61.6308 27.3373C63.1268 27.3373 64.1182 27.8477 64.6052 28.8685H64.746C65.0334 28.3874 65.4382 28.012 65.9604 27.7421C66.4825 27.4722 67.0809 27.3373 67.7555 27.3373C68.9171 27.3373 69.7634 27.6306 70.2943 28.2173C70.8253 28.804 71.0907 29.6986 71.0907 30.9013V37.246H69.0227V31.2445C69.0227 30.4994 68.8805 29.9436 68.5959 29.5769C68.3114 29.2102 67.8699 29.0269 67.2715 29.0269C66.4678 29.0269 65.8797 29.2777 65.5072 29.7793C65.1346 30.2809 64.9484 31.0509 64.9484 32.0893V37.246ZM78.2275 37.422C76.7139 37.422 75.5303 36.9806 74.6767 36.0976C73.8231 35.2147 73.3963 33.9989 73.3963 32.4501C73.3963 30.8602 73.7923 29.6106 74.5843 28.7013C75.3763 27.792 76.4646 27.3373 77.8491 27.3373C79.1339 27.3373 80.1488 27.7274 80.8939 28.5077C81.6389 29.288 82.0115 30.3615 82.0115 31.7285V32.8461H75.5259C75.5552 33.7906 75.8104 34.5166 76.2915 35.0241C76.7726 35.5315 77.4501 35.7852 78.3243 35.7852C78.8992 35.7852 79.4345 35.731 79.9303 35.6225C80.426 35.5139 80.9584 35.3335 81.5275 35.0813V36.762C81.0229 37.0026 80.5125 37.1727 79.9963 37.2724C79.48 37.3722 78.8904 37.422 78.2275 37.422ZM77.8491 28.9037C77.192 28.9037 76.6655 29.112 76.2695 29.5285C75.8735 29.945 75.6374 30.5522 75.5611 31.3501H79.9787C79.9669 30.5463 79.7733 29.9377 79.3979 29.5241C79.0224 29.1105 78.5062 28.9037 77.8491 28.9037ZM92.9234 37.246H90.8466V31.2621C90.8466 30.5111 90.6955 29.9509 90.3934 29.5813C90.0913 29.2117 89.6117 29.0269 88.9546 29.0269C88.0805 29.0269 87.441 29.285 87.0362 29.8013C86.6314 30.3176 86.429 31.1829 86.429 32.3973V37.246H84.361V27.5133H85.9802L86.2706 28.7893H86.3762C86.6696 28.3258 87.0861 27.968 87.6258 27.7157C88.1656 27.4634 88.764 27.3373 89.421 27.3373C91.7559 27.3373 92.9234 28.5253 92.9234 30.9013V37.246ZM99.4266 35.75C99.9311 35.75 100.436 35.6709 100.94 35.5125V37.07C100.711 37.1698 100.417 37.2534 100.056 37.3208C99.695 37.3883 99.321 37.422 98.9338 37.422C96.9743 37.422 95.9946 36.3895 95.9946 34.3245V29.0797H94.6658V28.1645L96.0914 27.4077L96.7954 25.3485H98.0714V27.5133H100.843V29.0797H98.0714V34.2893C98.0714 34.7879 98.196 35.1561 98.4454 35.3937C98.6947 35.6313 99.0218 35.75 99.4266 35.75ZM111.518 32.3621C111.518 33.9519 111.11 35.1927 110.294 36.0844C109.479 36.9762 108.344 37.422 106.889 37.422C105.98 37.422 105.176 37.2167 104.478 36.806C103.78 36.3954 103.243 35.8058 102.867 35.0373C102.492 34.2687 102.304 33.377 102.304 32.3621C102.304 30.7839 102.709 29.552 103.519 28.6661C104.328 27.7802 105.469 27.3373 106.942 27.3373C108.35 27.3373 109.464 27.7905 110.286 28.6969C111.107 29.6033 111.518 30.825 111.518 32.3621ZM104.434 32.3621C104.434 34.609 105.264 35.7325 106.924 35.7325C108.567 35.7325 109.388 34.609 109.388 32.3621C109.388 30.1386 108.561 29.0269 106.907 29.0269C106.038 29.0269 105.409 29.3144 105.019 29.8893C104.629 30.4642 104.434 31.2885 104.434 32.3621ZM118.83 27.3373C119.247 27.3373 119.59 27.3666 119.86 27.4253L119.658 29.3525C119.364 29.2821 119.059 29.2469 118.742 29.2469C117.915 29.2469 117.245 29.5168 116.732 30.0565C116.218 30.5962 115.962 31.2973 115.962 32.1597V37.246H113.894V27.5133H115.513L115.786 29.2293H115.891C116.214 28.6485 116.635 28.188 117.154 27.8477C117.673 27.5074 118.232 27.3373 118.83 27.3373ZM123.732 37.246H121.664V27.5133H123.732V37.246ZM121.541 24.9349C121.541 24.5653 121.642 24.2808 121.844 24.0813C122.047 23.8819 122.336 23.7821 122.711 23.7821C123.075 23.7821 123.358 23.8819 123.56 24.0813C123.763 24.2808 123.864 24.5653 123.864 24.9349C123.864 25.2869 123.763 25.5641 123.56 25.7665C123.358 25.9689 123.075 26.0701 122.711 26.0701C122.336 26.0701 122.047 25.9689 121.844 25.7665C121.642 25.5641 121.541 25.2869 121.541 24.9349ZM135.251 37.246H133.174V31.2621C133.174 30.5111 133.023 29.9509 132.721 29.5813C132.419 29.2117 131.939 29.0269 131.282 29.0269C130.408 29.0269 129.769 29.285 129.364 29.8013C128.959 30.3176 128.757 31.1829 128.757 32.3973V37.246H126.689V27.5133H128.308L128.598 28.7893H128.704C128.997 28.3258 129.414 27.968 129.954 27.7157C130.493 27.4634 131.092 27.3373 131.749 27.3373C134.084 27.3373 135.251 28.5253 135.251 30.9013V37.246ZM146.348 27.5133V28.6485L144.685 28.9565C144.837 29.1618 144.963 29.4141 145.063 29.7133C145.163 30.0125 145.213 30.3293 145.213 30.6637C145.213 31.6669 144.867 32.4559 144.174 33.0309C143.482 33.6058 142.529 33.8933 141.314 33.8933C141.003 33.8933 140.722 33.8698 140.47 33.8229C140.024 34.0986 139.801 34.4213 139.801 34.7909C139.801 35.0138 139.905 35.181 140.113 35.2925C140.321 35.4039 140.704 35.4597 141.262 35.4597H142.96C144.033 35.4597 144.849 35.6884 145.406 36.146C145.964 36.6036 146.242 37.2636 146.242 38.126C146.242 39.229 145.788 40.0796 144.878 40.678C143.969 41.2764 142.655 41.5756 140.936 41.5756C139.61 41.5756 138.598 41.341 137.9 40.8716C137.202 40.4023 136.853 39.7335 136.853 38.8652C136.853 38.2668 137.042 37.7638 137.42 37.356C137.799 36.9483 138.328 36.6652 139.009 36.5068C138.733 36.3895 138.506 36.2003 138.327 35.9392C138.148 35.6782 138.058 35.4039 138.058 35.1165C138.058 34.7527 138.161 34.4447 138.366 34.1925C138.572 33.9402 138.877 33.6909 139.282 33.4445C138.777 33.2274 138.368 32.8739 138.054 32.3841C137.74 31.8942 137.583 31.3207 137.583 30.6637C137.583 29.6077 137.916 28.7893 138.582 28.2085C139.248 27.6277 140.197 27.3373 141.429 27.3373C141.704 27.3373 141.993 27.3564 142.295 27.3945C142.598 27.4326 142.825 27.4722 142.977 27.5133H146.348ZM138.701 38.7596C138.701 39.2055 138.902 39.5487 139.304 39.7892C139.705 40.0298 140.27 40.15 140.998 40.15C142.124 40.15 142.963 39.9887 143.514 39.666C144.066 39.3434 144.341 38.9151 144.341 38.3812C144.341 37.9588 144.19 37.6582 143.888 37.4792C143.586 37.3003 143.024 37.2108 142.203 37.2108H140.637C140.044 37.2108 139.573 37.3502 139.224 37.6288C138.875 37.9075 138.701 38.2844 138.701 38.7596ZM139.59 30.6637C139.59 31.2738 139.746 31.7431 140.06 32.0717C140.374 32.4002 140.824 32.5645 141.411 32.5645C142.608 32.5645 143.206 31.925 143.206 30.6461C143.206 30.0125 143.058 29.5241 142.762 29.1809C142.466 28.8377 142.015 28.6661 141.411 28.6661C140.813 28.6661 140.36 28.8362 140.052 29.1765C139.744 29.5168 139.59 30.0125 139.59 30.6637Z" fill="#1F00C5"/>
</svg>
