<svg width="62" height="34" viewBox="0 0 62 34" fill="none" xmlns="http://www.w3.org/2000/svg">
<path fill-rule="evenodd" clip-rule="evenodd" d="M17.7794 33.1238C18.1656 33.1238 18.5115 32.885 18.6485 32.5239L30.1751 2.13571C30.4058 1.52747 29.9564 0.876465 29.3059 0.876465H26.0309C25.6447 0.876465 25.2988 1.11526 25.1618 1.47636L13.6353 31.8645C13.4045 32.4727 13.8539 33.1238 14.5044 33.1238H17.7794ZM33.2349 9.58707H37.0054C37.3884 9.58707 37.7322 9.82203 37.8714 10.1789L40.8283 17.7606L43.7851 10.1789C43.9243 9.82203 44.2681 9.58707 44.6512 9.58707H48.4217C48.8047 9.58707 49.1485 9.82203 49.2877 10.1789L54.3449 23.1461C54.5826 23.7556 54.1331 24.4134 53.4789 24.4134H50.3123C49.9159 24.4134 49.5631 24.162 49.4337 23.7874L48.2414 20.3362L46.6105 15.2952H46.4623L44.8314 20.3362L43.6392 23.7874C43.5097 24.162 43.1569 24.4134 42.7605 24.4134H38.896C38.4996 24.4134 38.1468 24.162 38.0174 23.7874L36.8252 20.3362L35.1943 15.2952H35.046L33.4151 20.3362L32.2229 23.7874C32.0934 24.162 31.7407 24.4134 31.3442 24.4134H28.1777C27.5235 24.4134 27.0739 23.7556 27.3116 23.1461L32.3688 10.1789C32.508 9.82203 32.8518 9.58707 33.2349 9.58707ZM11.7252 23.0766C11.8845 22.6567 11.7207 22.1829 11.3361 21.9509L5.2527 18.2816C5.2133 18.2578 5.18922 18.2152 5.18922 18.1691C5.18922 18.1231 5.2133 18.0805 5.2527 18.0567L14.0804 12.7321C14.3593 12.5639 14.5298 12.2619 14.5298 11.9361V8.44823C14.5298 7.7143 13.7192 7.26983 13.1004 7.66447L0.429731 15.7453C0.162043 15.916 0 16.2115 0 16.529V19.8093C0 20.1268 0.162043 20.4223 0.429731 20.593L9.31988 26.2628C9.81695 26.5798 10.4798 26.3599 10.6889 25.8087L11.7252 23.0766ZM57.1301 21.1351C57.0208 21.4144 56.9661 21.7179 56.9661 22.0457C56.9661 22.3735 57.0208 22.6831 57.1301 22.9745C57.2515 23.2537 57.4154 23.5026 57.6218 23.7212C57.8282 23.9397 58.0771 24.1097 58.3684 24.2311C58.6598 24.3525 58.9816 24.4132 59.3337 24.4132C59.6858 24.4132 60.0075 24.3525 60.2989 24.2311C60.5903 24.1097 60.8392 23.9397 61.0456 23.7212C61.252 23.5026 61.4098 23.2537 61.5191 22.9745C61.6405 22.6831 61.7012 22.3735 61.7012 22.0457C61.7012 21.7179 61.6405 21.4144 61.5191 21.1351C61.4098 20.8437 61.252 20.5948 61.0456 20.3884C60.8392 20.1699 60.5903 19.9999 60.2989 19.8785C60.0075 19.745 59.6858 19.6782 59.3337 19.6782C58.9816 19.6782 58.6598 19.745 58.3684 19.8785C58.0771 19.9999 57.8282 20.1699 57.6218 20.3884C57.4154 20.5948 57.2515 20.8437 57.1301 21.1351Z" fill="url(#paint0_linear)"/>
<path fill-rule="evenodd" clip-rule="evenodd" d="M17.7794 33.1238C18.1656 33.1238 18.5115 32.885 18.6485 32.5239L30.1751 2.13571C30.4058 1.52747 29.9564 0.876465 29.3059 0.876465H26.0309C25.6447 0.876465 25.2988 1.11526 25.1618 1.47636L13.6353 31.8645C13.4045 32.4727 13.8539 33.1238 14.5044 33.1238H17.7794ZM33.2349 9.58707H37.0054C37.3884 9.58707 37.7322 9.82203 37.8714 10.1789L40.8283 17.7606L43.7851 10.1789C43.9243 9.82203 44.2681 9.58707 44.6512 9.58707H48.4217C48.8047 9.58707 49.1485 9.82203 49.2877 10.1789L54.3449 23.1461C54.5826 23.7556 54.1331 24.4134 53.4789 24.4134H50.3123C49.9159 24.4134 49.5631 24.162 49.4337 23.7874L48.2414 20.3362L46.6105 15.2952H46.4623L44.8314 20.3362L43.6392 23.7874C43.5097 24.162 43.1569 24.4134 42.7605 24.4134H38.896C38.4996 24.4134 38.1468 24.162 38.0174 23.7874L36.8252 20.3362L35.1943 15.2952H35.046L33.4151 20.3362L32.2229 23.7874C32.0934 24.162 31.7407 24.4134 31.3442 24.4134H28.1777C27.5235 24.4134 27.0739 23.7556 27.3116 23.1461L32.3688 10.1789C32.508 9.82203 32.8518 9.58707 33.2349 9.58707ZM11.7252 23.0766C11.8845 22.6567 11.7207 22.1829 11.3361 21.9509L5.2527 18.2816C5.2133 18.2578 5.18922 18.2152 5.18922 18.1691C5.18922 18.1231 5.2133 18.0805 5.2527 18.0567L14.0804 12.7321C14.3593 12.5639 14.5298 12.2619 14.5298 11.9361V8.44823C14.5298 7.7143 13.7192 7.26983 13.1004 7.66447L0.429731 15.7453C0.162043 15.916 0 16.2115 0 16.529V19.8093C0 20.1268 0.162043 20.4223 0.429731 20.593L9.31988 26.2628C9.81695 26.5798 10.4798 26.3599 10.6889 25.8087L11.7252 23.0766ZM57.1301 21.1351C57.0208 21.4144 56.9661 21.7179 56.9661 22.0457C56.9661 22.3735 57.0208 22.6831 57.1301 22.9745C57.2515 23.2537 57.4154 23.5026 57.6218 23.7212C57.8282 23.9397 58.0771 24.1097 58.3684 24.2311C58.6598 24.3525 58.9816 24.4132 59.3337 24.4132C59.6858 24.4132 60.0075 24.3525 60.2989 24.2311C60.5903 24.1097 60.8392 23.9397 61.0456 23.7212C61.252 23.5026 61.4098 23.2537 61.5191 22.9745C61.6405 22.6831 61.7012 22.3735 61.7012 22.0457C61.7012 21.7179 61.6405 21.4144 61.5191 21.1351C61.4098 20.8437 61.252 20.5948 61.0456 20.3884C60.8392 20.1699 60.5903 19.9999 60.2989 19.8785C60.0075 19.745 59.6858 19.6782 59.3337 19.6782C58.9816 19.6782 58.6598 19.745 58.3684 19.8785C58.0771 19.9999 57.8282 20.1699 57.6218 20.3884C57.4154 20.5948 57.2515 20.8437 57.1301 21.1351Z" fill="url(#paint1_linear)" fill-opacity="0.45"/>
<defs>
<linearGradient id="paint0_linear" x1="7.41678" y1="11.1826" x2="55.1181" y2="35.2851" gradientUnits="userSpaceOnUse">
<stop stop-color="#5665E7"/>
<stop offset="1" stop-color="#23DDB8"/>
</linearGradient>
<linearGradient id="paint1_linear" x1="3.11074" y1="30.8806" x2="12.1654" y2="9.57377" gradientUnits="userSpaceOnUse">
<stop stop-color="#F86ABB"/>
<stop offset="1" stop-color="#F86ABB" stop-opacity="0"/>
</linearGradient>
</defs>
</svg>
