<svg width="49" height="48" viewBox="0 0 49 48" fill="none" xmlns="http://www.w3.org/2000/svg">
<path fill-rule="evenodd" clip-rule="evenodd" d="M15.0095 30.5785C13.2073 30.5785 11.7655 30.0979 10.8043 29.0165C9.84316 27.9352 9.36256 26.3733 9.36256 24.4509C9.36256 22.4084 9.84316 20.8464 10.8043 19.7651C11.7655 18.6838 13.2073 18.083 15.1297 18.083C16.4513 18.083 17.5327 18.3233 18.614 18.8039L17.8931 20.8464C16.8118 20.3658 15.9707 20.2457 15.2498 20.2457C13.2073 20.2457 12.126 21.6875 12.126 24.4509C12.126 25.7725 12.3663 26.8539 12.967 27.4546C13.4476 28.1755 14.2887 28.5359 15.2498 28.5359C16.4513 28.5359 17.5327 28.2956 18.4939 27.6949V29.9777C18.0133 30.218 17.5327 30.4583 17.0521 30.5785H15.0095Z" fill="#1F00C5"/>
<path fill-rule="evenodd" clip-rule="evenodd" d="M31.3499 30.4585H28.8268V23.0093C28.8268 22.0481 28.7067 21.4474 28.3462 20.9668C27.9858 20.485 27.5052 20.2459 26.6641 20.2459C25.703 20.2459 24.9821 20.6064 24.5015 21.2071C24.0209 21.8078 23.7806 22.888 23.7806 24.4511V30.4585H21.2575V18.3223H23.3L23.6604 19.8843H23.7806C24.141 19.2835 24.6216 18.9231 25.2224 18.5638C25.8231 18.2034 26.544 18.082 27.385 18.082C29.1873 18.082 30.5089 18.6828 31.1096 20.0056H31.2298C31.5902 19.4049 32.0708 18.9231 32.7917 18.5638C33.3925 18.2034 34.2335 18.082 35.0745 18.082C36.5163 18.082 37.5977 18.4437 38.1984 19.1646C38.7992 19.8843 39.1596 20.9668 39.1596 22.5275V30.4585H36.6365V23.0093C36.6365 22.0481 36.5163 21.4474 36.1559 20.9668C35.7954 20.485 35.1947 20.2459 34.4738 20.2459C33.5126 20.2459 32.7917 20.6064 32.3111 21.2071C31.8305 21.8078 31.5902 22.769 31.5902 24.0895V30.4585H31.3499Z" fill="#1F00C5"/>
<path fill-rule="evenodd" clip-rule="evenodd" d="M18.2538 47.1586C14.1687 46.0785 10.4441 43.9146 7.44042 40.9109C4.4367 37.9072 2.27403 34.1826 1.19269 30.0975L2.99492 29.6169C4.07626 33.4629 6.11878 36.8259 8.8822 39.5893C11.6456 42.3527 15.0098 44.2763 18.8545 45.3564L18.2538 47.1586Z" fill="#1F00C5"/>
<path fill-rule="evenodd" clip-rule="evenodd" d="M1.31275 30.218C-0.849924 21.9277 1.4329 13.0367 7.56048 7.0293L8.88211 8.35093C3.35528 13.8766 1.07245 22.0479 3.11498 29.7374L1.31275 30.218Z" fill="#FF91D0"/>
<path fill-rule="evenodd" clip-rule="evenodd" d="M8.88241 8.35096L7.56077 7.02932C13.5682 1.02189 22.4592 -1.38108 30.7495 0.781591L30.2689 2.58382C22.5794 0.541294 14.4092 2.82412 8.88241 8.35096Z" fill="#00FFCD"/>
<path fill-rule="evenodd" clip-rule="evenodd" d="M45.8881 18.2033C44.9269 14.4775 42.8844 11.1145 40.1209 8.3511C37.3575 5.58768 33.9934 3.6641 30.2687 2.58397L30.7493 0.781738C34.8344 1.86187 38.559 4.02575 41.5627 7.02947C44.5664 10.0332 46.7291 13.7578 47.8104 17.8428L45.8881 18.2033Z" fill="#1F00C5"/>
<path fill-rule="evenodd" clip-rule="evenodd" d="M41.4422 40.9109L40.1206 39.5892C45.6474 34.0636 47.9302 25.8923 45.8877 18.204L47.6899 17.7222C49.9728 26.0136 47.5698 34.9034 41.4422 40.9109Z" fill="#FF91D0"/>
<path fill-rule="evenodd" clip-rule="evenodd" d="M24.5017 48C22.4592 48 20.4167 47.7597 18.3741 47.159L18.8547 45.3567C26.4241 47.3993 34.5942 45.2366 40.2412 39.5896L41.5628 40.9112C36.9972 45.4769 30.7495 48 24.5017 48Z" fill="#00FFCD"/>
</svg>
