<svg viewBox="0 0 280 216" fill="none" xmlns="http://www.w3.org/2000/svg">
    <path fill-rule="evenodd" clip-rule="evenodd" d="M54.5219 84.6511C64.9622 83.9033 79.2752 85.9737 82.2951 97.882C83.2317 102.216 85.0764 104.118 88.1765 106.952C107.853 132.146 39.2004 136.382 35.6712 111.814C28.2361 114.522 20.1425 115.096 12.7034 117.834C8.66844 119.325 5.00965 121.677 1.50365 124.138C-12.7934 134.297 -26.8882 144.745 -41.1343 154.977C-35.6215 157.516 -25.1401 167.212 -29.411 173.728C-30.4059 174.997 -31.8827 175.872 -33.1892 176.8L-33.878 177.292C-35.36 178.354 -37.8548 180.165 -39.2343 181.149L-39.4887 181.334C-39.5884 181.407 -39.701 181.488 -39.8026 181.561C-29.8541 196.111 -18.2109 209.537 -5.29588 221.524C-4.19622 222.547 -4.64658 224.833 -6.23823 225.1L-8.13444 225.378C-14.257 226.27 -20.4959 227.073 -26.6657 226.589C-32.6748 225.935 -36.2958 220.613 -40.4037 216.759C-48.6067 208.371 -56.2428 199.424 -63.198 189.972L-63.3428 189.772C-65.5075 186.813 -68.3808 183.789 -68.591 179.967C-68.9745 178.819 -67.9653 177.172 -66.9955 176.389L-66.6645 175.911C-61.4633 168.428 -55.5767 161.212 -48.2016 155.792C-48.2291 154.984 -47.8559 154.136 -47.1169 153.601L-16.2948 131.286C-8.34212 125.812 -0.950493 119.377 7.66954 114.956C16.4837 110.71 26.431 110.544 35.4631 107.001C35.6546 104.447 41.0212 103.795 40.8517 104.189C46.5149 100.77 49.4298 96.7013 50.3287 92.9621C51.2285 89.2238 50.1104 85.8134 54.5219 84.6511ZM130.743 164.764C140.273 150.418 149.357 166.29 153.325 175.857C158.013 188.949 148.305 205.052 142.034 216.339C139.724 219.473 136.686 226.084 132.614 226.564C122.356 226.521 112.083 225.799 101.82 225.584C95.1916 223.939 104.491 213.976 110.914 217.614C112.86 218.343 113.832 220.553 115.73 221.262C116.421 221.41 116.469 221.101 116.75 220.413L116.791 220.317C117.292 219.125 117.778 217.927 118.271 216.731C122.451 206.436 126.869 196.232 131.261 186.032C132.2 183.818 130.883 181.994 129.172 180.676C127.863 179.596 122.231 176.963 127.537 178.122C125.494 173.378 127.949 168.563 130.743 164.764ZM107.081 145.126C107.998 145.011 109.177 145.936 109.318 146.832C110.488 154.261 109.184 161.606 107.62 168.872L107.333 170.203C106.756 172.854 106.112 175.557 104.674 177.88C103.206 180.25 100.986 182.038 98.4372 183.124C90.2598 186.383 80.0903 183.16 74.0753 177.065C70.2274 171.792 73.6102 165.168 74.2558 159.388C73.6452 157.831 73.4205 156.03 73.0677 154.424L73.0245 154.232L71.6531 148.242C71.3501 146.922 72.3125 145.114 73.8948 145.295C84.9208 146.561 96.0665 146.503 107.081 145.126Z" fill="white"/>
    <path fill-rule="evenodd" clip-rule="evenodd" d="M145.591 162.887C145.557 162.739 145.734 162.626 145.849 162.737C147.789 164.607 149.159 166.998 150.663 169.213C152.095 171.323 153.654 173.351 154.722 175.679C155.714 177.844 156.354 180.039 156.545 182.418C156.735 184.78 156.489 187.147 156.072 189.472C155.253 194.054 153.502 198.393 151.58 202.607C149.71 206.704 147.598 210.684 145.369 214.592L144.569 215.987C143.594 217.686 142.608 219.381 141.553 221.027C140.24 223.075 139.041 225.189 137.309 226.898C136.08 228.114 133.762 226.898 134.322 225.159C134.566 224.402 134.757 223.689 135.134 222.987C135.42 222.452 135.743 221.932 136.046 221.404C136.653 220.35 137.255 219.291 137.862 218.235C139.136 216.018 140.479 213.842 141.742 211.618C143.933 207.76 146.001 203.829 147.83 199.785L148.045 199.307C149.729 195.562 151.323 191.682 152.062 187.631C152.841 183.362 152.143 179.338 150.628 175.327C149.844 173.252 148.962 171.224 148.046 169.203L147.87 168.817C146.985 166.889 146.046 164.971 145.591 162.887ZM51.3878 89.0517C51.4053 88.9761 51.5333 88.9706 51.5453 89.0517C52.0905 92.6766 50.8776 96.5107 48.903 99.526C47.8254 101.173 46.4964 102.66 44.9298 103.856L44.8074 103.948C43.2076 105.144 41.0461 106.3 39.0595 105.523C38.9969 105.5 38.9388 105.473 38.8845 105.441C39.1083 105.788 39.3146 106.152 39.5246 106.516C40.149 107.6 40.709 108.724 41.3187 109.817C42.4082 111.773 43.7059 113.523 45.3461 115.056C51.9054 121.18 61.1152 122.635 69.7642 122.565L70.3748 122.56C74.1738 122.533 79.1425 122.727 82.0759 119.976C83.6517 118.499 84.5193 116.398 85.3039 114.427C86.0748 112.493 86.6016 110.499 87.2417 108.532C85.9053 107.616 84.6795 106.497 83.7162 105.188C82.7123 103.826 81.9534 102.293 81.5159 100.655L81.4505 100.411C81.1125 99.1051 80.7718 97.3783 81.317 96.1451C81.3796 96.0032 81.6126 96.0125 81.6789 96.1451C81.9727 96.7354 82.0289 97.4004 82.2103 98.0312C82.4203 98.7653 82.6579 99.4947 82.9711 100.19C83.5762 101.537 84.3756 102.818 85.3352 103.939C86.1273 104.868 86.9847 105.72 87.9656 106.436C88.5439 105.438 89.884 105.303 91.0067 105.632C92.5116 106.072 93.9962 106.637 95.4467 107.234L95.7368 107.353C97.1708 107.948 98.7917 108.495 100.135 109.308C100.95 109.696 101.732 110.088 102.467 110.434C106.132 112.156 109.742 113.985 113.337 115.847L114.107 116.246C115.613 117.031 117.105 117.823 118.414 118.917C119.748 120.031 120.782 121.553 121.756 122.98C123.98 126.242 126.075 129.598 128.273 132.878C132.713 139.496 137.153 146.114 141.619 152.716C142.7 154.314 143.917 155.874 144.886 157.54C145.814 159.132 145.79 160.767 145.608 162.544L145.574 162.87C145.228 166.131 144.631 169.261 142.803 172.057C139.925 176.452 135.391 179.188 130.595 181.073C131.181 181.509 131.731 181.98 132.43 182.28C133.504 182.74 134.649 182.977 135.812 183.072C137.051 183.172 138.447 182.862 139.452 183.705C139.855 184.041 139.867 184.851 139.452 185.188C138.487 185.976 137.239 185.75 136.063 185.618L135.992 185.61C134.901 185.49 133.825 185.287 132.799 184.886C132.547 184.787 132.295 184.676 132.052 184.553C132.06 184.575 132.064 184.6 132.06 184.628C131.885 185.969 131.505 187.237 131.104 188.518L130.849 189.33C130.332 190.989 129.81 192.643 129.274 194.297C128.252 197.447 127.139 200.567 126.022 203.683L125.057 206.372C124.067 209.13 123.064 211.885 121.955 214.597C121.271 216.272 120.582 217.945 119.895 219.618C119.224 221.251 118.666 223.014 117.833 224.57C117.148 225.85 115.28 224.934 115.579 223.617C115.973 221.892 116.714 220.179 117.28 218.499C117.856 216.793 118.421 215.086 119.006 213.384C120.024 210.429 121.152 207.513 122.287 204.6L123.411 201.712C124.513 198.883 125.628 196.055 126.82 193.262L126.951 192.956C128.189 190.035 129.468 186.75 131.718 184.486C131.746 184.454 131.788 184.439 131.828 184.434C131.276 184.135 130.758 183.771 130.303 183.341L130.281 183.318C130.101 183.127 129.357 182.188 129.118 181.626C128.807 181.737 128.495 181.844 128.184 181.949C127.642 182.132 127.192 181.999 126.874 181.709L126.27 182.084C125.625 182.478 124.93 182.852 124.216 182.871C123.318 182.895 122.611 182.399 122.131 181.667C121.699 181.013 121.442 180.306 120.895 179.72C120.357 179.144 119.736 178.658 119.099 178.195L118.35 177.648C116.976 176.645 115.643 175.631 114.537 174.305C113.981 173.636 113.235 172.841 112.897 172.037C112.83 171.882 112.79 171.736 112.781 171.594C112.708 172.096 112.631 172.6 112.556 173.102C111.494 180.17 110.636 187.287 110.361 194.433C110.227 197.959 110.167 201.488 110.324 205.015C110.402 206.776 110.531 208.536 110.707 210.292C110.795 211.171 110.886 212.05 110.994 212.926L111.018 213.128C111.049 213.396 111.069 213.656 111.046 213.903C111.902 214.325 112.395 215.392 112.737 216.225C112.998 216.859 112.795 217.476 112.375 217.922C112.877 218.38 113.325 218.917 113.7 219.532C113.776 219.656 113.612 219.754 113.515 219.676C112.898 219.186 112.234 218.782 111.542 218.473C111.178 218.611 110.781 218.648 110.415 218.547C110.019 218.438 109.676 218.174 109.429 217.836C107.462 217.513 105.417 217.908 103.646 219.141C103.279 219.398 102.946 219.688 102.629 220.003C102.574 220.058 102.518 220.128 102.461 220.196L102.848 220.344C103.008 220.405 103.139 220.452 103.189 220.462C103.527 220.531 103.869 220.568 104.211 220.598L104.725 220.64C106.696 220.803 108.66 220.857 110.494 221.682C110.879 221.856 110.744 222.45 110.38 222.549C109.042 222.912 107.714 222.884 106.351 222.787L106.059 222.765C104.792 222.668 103.433 222.673 102.197 222.323C102.492 223.133 102.09 224.19 100.854 224.355C97.1441 224.85 93.4095 224.617 89.6952 224.289C85.944 223.958 82.1947 223.645 78.4334 223.449C66.2672 222.808 54.0826 222.931 41.9063 223.105L35.0247 223.205C29.5365 223.282 24.0484 223.342 18.5607 223.301L15.9921 223.277C14.9065 223.266 13.8204 223.253 12.736 223.221L12.0856 223.199C10.7937 223.152 9.08341 223.347 7.96064 222.582C7.0345 221.951 6.82829 220.796 7.38669 219.863C7.54813 219.595 7.77 219.355 8.00153 219.121C8.4763 215.063 8.74283 210.985 9.01526 206.909C9.96092 192.645 9.40833 178.455 7.22717 164.335C1.37432 166.124 -4.38892 168.369 -10.0043 170.776C-13.0417 172.078 -16.0634 173.429 -19.0501 174.846C-21.7761 176.141 -24.5137 177.758 -27.4265 178.599C-27.6913 178.834 -28.0615 178.946 -28.3898 178.842L-28.4325 178.826H-28.4344C-28.734 178.896 -29.0668 178.854 -29.3936 178.658C-29.4598 178.617 -29.526 178.577 -29.5921 178.535L-29.6914 178.473C-30.7167 177.826 -31.748 177.03 -32.4738 176.057C-33.3551 176.875 -34.3027 177.624 -35.2348 178.383C-36.2466 179.209 -37.2544 180.037 -38.2545 180.875C-38.6514 181.207 -39.0893 181.525 -39.4395 181.908L-39.4904 181.964C-39.4986 181.973 -39.5063 181.983 -39.5134 181.992C-37.9977 182.973 -36.6707 184.462 -35.4819 185.756C-34.2053 187.146 -32.9728 188.579 -31.7504 190.018L-30.5671 191.414C-22.1992 201.299 -13.7457 211.542 -2.91212 218.808C-1.19983 219.957 -2.83237 222.754 -4.53296 221.579C-7.75115 219.363 -10.7963 216.9 -13.7207 214.309C-18.8458 209.772 -23.4572 204.682 -27.7748 199.378C-29.9599 196.693 -32.0807 193.943 -34.1588 191.175L-34.8641 190.236C-35.8039 188.984 -36.7388 187.728 -37.6339 186.444L-37.8211 186.174C-38.6062 185.041 -39.4411 183.767 -39.9474 182.462C-40.1419 182.66 -40.3618 182.824 -40.6829 182.95C-41.2315 183.163 -41.9047 182.714 -42.039 182.179C-42.3659 180.88 -41.2374 180.107 -40.319 179.419C-39.204 178.585 -38.0677 177.781 -36.9295 176.982L-36.5229 176.694C-35.0995 175.684 -33.6686 174.648 -32.1177 173.849C-32.071 173.788 -32.0146 173.729 -31.9504 173.678C-31.8764 173.62 -31.8044 173.563 -31.7304 173.507C-33.5828 170.502 -35.6141 167.612 -37.881 164.884C-39.5854 162.831 -41.395 160.87 -43.3096 159.013L-44.1697 158.18C-45.4707 156.924 -46.8234 155.648 -48.2673 154.556L-48.7194 155.069C-49.3229 155.751 -49.9325 156.429 -50.5769 157.071C-51.8455 158.332 -53.0966 159.619 -54.342 160.905C-56.4099 163.046 -58.4079 165.252 -60.3996 167.461L-61.3952 168.567C-63.4694 170.869 -65.6914 173.129 -67.5768 175.589L-67.671 175.714C-68.4941 176.819 -69.0801 178.041 -68.6976 179.443C-68.3285 180.796 -67.4511 181.995 -66.6947 183.163L-66.6195 183.28C-63.5317 188.092 -60.2239 192.781 -56.6807 197.268C-49.5846 206.255 -41.4903 214.772 -31.8317 221.021C-30.493 221.887 -31.7441 224.04 -33.0847 223.164C-38.7254 219.476 -43.9069 215.046 -48.674 210.288C-53.0499 205.922 -57.0154 201.114 -60.7318 196.18C-62.5432 193.772 -64.2788 191.314 -65.9424 188.801C-67.5554 186.362 -69.4214 183.853 -70.5908 181.163C-71.2037 179.747 -71.4294 178.216 -70.9274 176.725C-70.467 175.354 -69.5566 174.216 -68.6094 173.146L-68.5205 173.045C-66.3432 170.599 -64.1271 168.182 -61.8914 165.787C-59.6479 163.385 -57.3014 161.069 -54.9062 158.821C-53.0247 157.052 -51.0634 155.492 -48.9658 154.047C-49.1546 153.914 -49.3433 153.785 -49.5359 153.66C-50.1217 153.279 -50.2695 152.463 -49.7558 151.946C-48.3529 150.528 -46.736 149.296 -45.2145 148.006C-43.7844 146.793 -42.3543 145.579 -40.9241 144.364C-38.0133 141.896 -35.1024 139.426 -32.1916 136.956C-26.9634 132.519 -21.7644 128.053 -16.5537 123.597C-14.3809 121.739 -12.188 119.906 -10.0006 118.065L-6.11429 114.794L-4.21357 113.197C-3.23972 112.381 -2.24506 111.574 -1.13757 110.953C1.46817 109.488 4.60098 108.855 7.47197 108.078L7.66298 108.027C10.8832 107.145 14.1209 106.315 17.3761 105.576C20.6352 104.836 23.9084 104.163 27.1945 103.553C30.1481 103.005 33.1716 102.534 36.1833 102.464C36.9311 102.179 37.8687 102.08 38.6045 102.384C38.9075 102.51 39.2253 102.695 39.5071 102.929C40.9797 102.411 42.4331 102.164 43.809 101.288C45.1831 100.414 46.3988 99.2654 47.422 97.9999C49.5375 95.3807 50.6445 92.2852 51.3878 89.0517ZM85.2459 177.772C84.0781 177.69 83.0273 178.172 81.9847 178.686C82.5723 178.941 83.1599 179.195 83.7475 179.445L87.658 181.116C88.9501 181.667 90.3177 182.146 91.5454 182.824C91.6338 182.873 91.7038 182.932 91.7563 183C93.0328 182.182 94.383 181.453 95.677 180.676C95.9726 180.499 96.2701 180.322 96.5676 180.144C95.0267 180.66 93.4473 180.919 91.7738 180.434C89.5414 179.791 87.6036 177.938 85.2459 177.772ZM88.4445 173.856L88.2345 173.713C87.1026 172.936 85.7506 171.936 84.3756 172.635C83.7281 172.964 83.1967 173.496 82.5585 173.849C81.9165 174.208 81.2101 174.482 80.4936 174.648C79.3056 174.922 77.9434 174.963 76.6651 174.698L76.6844 176.426C77.6515 176.826 78.6121 177.235 79.5736 177.648C80.198 177.434 80.7985 177.178 81.4303 176.896L81.8558 176.705C83.0724 176.158 84.3 175.793 85.6447 175.966C88.1756 176.291 90.0884 178.172 92.5088 178.8C95.4762 179.571 98.1535 177.356 100.957 176.808C101.419 176.717 101.896 176.664 102.37 176.656L102.527 176.655L102.597 176.613C103.2 176.26 104.104 175.921 104.524 175.325C104.981 174.679 105.02 173.596 105.17 172.837C105.185 172.762 105.201 172.683 105.215 172.608C104.95 172.608 104.681 172.621 104.409 172.672C103.553 172.83 102.747 173.133 101.95 173.472C100.442 174.113 98.9667 174.842 97.3789 175.269C95.8243 175.687 94.1997 175.886 92.5981 175.654C91.0361 175.428 89.7384 174.723 88.4445 173.856ZM88.6876 167.778L88.4537 167.627C87.8348 167.232 87.1256 166.823 86.3677 166.969C85.6907 167.099 85.1096 167.638 84.5192 167.971C83.2253 168.701 81.7738 169.1 80.2938 169.201C79.0615 169.285 77.7832 169.135 76.5988 168.769L76.6393 172.596C77.0731 172.734 77.5225 172.834 77.9959 172.869C79.4317 172.975 80.8325 172.631 82.0372 171.839L82.646 171.435C83.6885 170.748 84.6675 170.205 86.0471 170.455C87.413 170.704 88.5587 171.58 89.6758 172.343L89.8591 172.466C91.1411 173.313 92.4415 173.859 94.0146 173.873C95.7138 173.886 97.3928 173.414 98.9741 172.832C100.544 172.255 102.037 171.564 103.716 171.353C104.23 171.288 104.856 171.269 105.446 171.37C105.524 170.935 105.598 170.503 105.668 170.07C105.82 169.137 105.95 168.207 106.063 167.274C103.084 166.472 100.333 169.067 97.5659 169.867C95.9606 170.33 94.2135 170.325 92.6082 169.877C91.1227 169.462 89.9549 168.602 88.6876 167.778ZM88.695 161.333C88.0586 161.211 87.4305 161.505 86.8899 161.807C85.5102 162.572 84.3194 163.637 82.7565 164.039C80.7469 164.557 78.5485 164.111 76.5518 163.265C76.5601 164.446 76.5693 165.628 76.5794 166.809C76.9543 166.951 77.3402 167.066 77.7334 167.158C79.1297 167.476 80.6106 167.434 81.9865 167.03C83.3892 166.62 84.4649 165.511 85.8722 165.164C87.3107 164.809 88.6664 165.501 89.8259 166.286L90.175 166.525C91.4994 167.424 92.7851 168.206 94.4428 168.358C96.1964 168.52 97.7197 167.971 99.2863 167.243L99.651 167.075C101.634 166.163 104.208 165.126 106.187 166.163C106.343 164.691 106.456 163.219 106.532 161.746C106.259 161.644 105.977 161.571 105.652 161.569C104.876 161.565 104.061 161.81 103.337 162.065C101.755 162.624 100.282 163.457 98.7162 164.055C97.2316 164.623 95.5867 164.919 94.0035 164.664C92.5364 164.429 91.4349 163.661 90.4209 162.611L90.2735 162.455C89.8296 161.982 89.3535 161.461 88.695 161.333ZM89.8573 155.87C89.1232 155.482 88.2308 155.122 87.3817 155.235C86.573 155.342 86.0333 155.891 85.5351 156.479L85.2652 156.8C84.3728 157.856 83.4951 158.742 82.121 159.177C80.6962 159.625 79.1868 159.449 77.8615 158.793C77.3908 158.56 76.9525 158.27 76.5131 157.984L76.5362 161.088C77.4157 161.526 78.3109 161.922 79.2936 162.161C81.107 162.602 82.6478 162.275 84.1987 161.275L84.3618 161.169C85.5296 160.402 86.7269 159.488 88.17 159.403C89.5782 159.318 90.6346 160.099 91.562 161.055L91.6707 161.168C92.8394 162.402 94.021 163.004 95.7608 162.861C97.4471 162.724 99.0247 161.979 100.57 161.337L100.71 161.279C102.123 160.699 103.751 160.101 105.302 160.323C105.674 160.375 106.155 160.491 106.582 160.691C106.645 159.239 106.674 157.785 106.68 156.329C105.799 155.564 104.426 155.438 103.324 155.751C101.596 156.241 100.182 157.507 98.5311 158.194C97.0677 158.803 95.5425 158.94 94.0505 158.363C92.5088 157.767 91.3004 156.633 89.8573 155.87ZM106.582 149.754C104.001 149.843 101.475 151.523 99.01 152.164C96.2553 152.879 94.0081 151.904 91.5546 150.822L91.2378 150.683C89.9798 150.129 88.6268 149.633 87.2316 149.859C85.8722 150.081 84.6694 150.834 83.4997 151.516L83.2759 151.644C81.1457 152.857 78.9768 153.688 76.4892 153.481C76.503 154.262 76.4975 155.04 76.4993 155.804C76.9082 156.038 77.3006 156.302 77.6745 156.543L77.809 156.628C78.9943 157.37 80.2164 157.857 81.6301 157.4C82.9959 156.956 83.6379 155.767 84.5763 154.788C85.4384 153.888 86.5629 153.342 87.8237 153.393C89.1794 153.448 90.4624 154.045 91.5823 154.776C92.7031 155.506 93.7871 156.449 95.0986 156.816C98.0402 157.633 100.56 154.521 103.342 154.036C104.51 153.832 105.799 154.091 106.68 154.795C106.67 153.117 106.633 151.435 106.582 149.754ZM84.3581 149.049C83.9943 149.063 83.6305 149.079 83.2667 149.094C81.9202 149.152 80.5737 149.219 79.2273 149.294C78.2952 149.345 77.1495 149.631 76.235 149.347C76.212 149.441 76.1807 149.53 76.1392 149.617C76.2774 150.306 76.363 151.019 76.4155 151.739C77.2601 151.831 78.1184 151.799 78.951 151.626C80.9495 151.212 82.5723 149.951 84.3581 149.049ZM106.544 148.471C101.627 148.81 96.6725 148.694 91.7471 148.8L91.1568 148.813C91.1328 148.813 91.1098 148.816 91.0868 148.816C91.6513 149.034 92.2113 149.285 92.7703 149.541L93.3275 149.797C94.6473 150.404 95.9901 150.9 97.4664 150.793C99.0487 150.678 100.539 150.032 102.018 149.511C103.428 149.012 105.053 148.677 106.557 148.895C106.553 148.753 106.549 148.614 106.544 148.471Z" fill="#3317CA"/>
    <path fill-rule="evenodd" clip-rule="evenodd" d="M65.7846 15.6603C76.8327 15.6603 93.0034 23.0407 94.22 30.1414C95.653 38.5094 98.8359 69.9753 97.1026 80.2719C95.3703 90.5694 88.613 98.1767 73.6701 98.1767C58.7271 98.1767 47.5731 90.0251 45.0127 87.2262C42.4515 84.4264 39.3487 75.7167 39.3487 75.7167C39.3487 75.7167 31.1676 74.3288 31.1289 67.8045C31.0912 61.2803 35.2393 59.2642 35.2393 59.2642C35.2393 59.2642 33.0004 32.1979 37.7057 25.4944C42.411 18.7908 54.7365 15.6603 65.7846 15.6603Z" fill="white"/>
    <path fill-rule="evenodd" clip-rule="evenodd" d="M99.1408 50.1285C99.7459 56.7057 99.9733 63.3397 100.09 69.9422C100.203 76.1975 99.6528 82.7227 96.0896 88.0718C92.9748 92.7513 88.2308 96.1479 82.9481 97.9816C79.942 99.0269 76.6126 99.4137 73.438 99.5095C71.7977 99.5583 70.1528 99.4874 68.5227 99.3188C68.3173 99.2967 68.111 99.2783 67.9047 99.2599C66.5242 99.1374 65.1546 99.0149 64.148 97.9714C63.8312 97.6426 63.8349 96.9666 64.3046 96.753C65.197 96.3459 65.8021 96.3035 66.7811 96.438C67.5925 96.5485 68.4057 96.636 69.2226 96.6922C70.9743 96.8156 72.7371 96.8193 74.4879 96.6848C77.7067 96.438 80.9983 95.5281 83.9206 94.1503C88.5034 91.986 92.4397 88.4392 94.5644 83.7855C97.0004 78.4567 96.8779 72.2944 96.7637 66.5567L96.7591 66.3209C96.6329 59.956 96.3972 53.6107 95.8446 47.2671C95.6355 44.8672 95.3371 42.4804 95.0387 40.0928C94.954 39.4206 94.8702 38.7483 94.7882 38.0757C94.5911 36.4484 94.3333 34.8287 94.0155 33.2211C93.9197 32.7356 93.8083 32.2539 93.6959 31.7729C93.6121 31.411 93.5283 31.0495 93.4519 30.6868C93.3211 30.708 93.1885 30.7198 93.0522 30.7255C92.2389 30.753 91.3502 30.5544 90.7469 29.9763C90.5148 30.134 90.2211 30.2333 89.8674 30.2508C87.704 30.3576 85.5194 30.31 83.3395 30.2625C82.1486 30.2365 80.9587 30.2105 79.7743 30.2099C76.4128 30.208 73.0484 30.2099 69.684 30.2196C69.1711 30.221 68.6581 30.2231 68.1451 30.225C65.2955 30.2359 62.4414 30.2468 59.5956 30.1709C58.9923 30.1548 58.3854 30.1443 57.7766 30.1338C55.2274 30.0897 52.6412 30.045 50.1509 29.5831C49.1139 33.2698 49.1507 37.3204 51.3123 40.614C51.9229 41.5424 51.4274 42.6363 50.6317 43.2164C49.8184 43.8083 48.3559 44.716 47.1043 44.8092C47.0564 44.9183 47.0067 45.027 46.9579 45.1356C46.8851 45.2984 46.8114 45.4606 46.7405 45.6226C46.1437 46.9839 45.6058 48.3536 45.2292 49.7948C45.0348 50.5376 44.8681 51.2927 44.7272 52.0524C44.7392 52.1853 44.7512 52.318 44.765 52.4506C44.765 52.4643 44.7668 52.4777 44.7687 52.4933C44.777 52.548 44.7862 52.6102 44.7926 52.6452C44.8101 52.7388 44.8276 52.8323 44.8451 52.9258C44.8985 53.2137 44.9529 53.5014 45.01 53.7879C45.1914 54.7125 45.3314 55.6448 45.4309 56.5809C45.6114 58.2936 45.5939 60.5206 43.9241 61.5346C43.0317 62.0779 41.9615 62.0218 41.0175 61.657C40.4916 61.4544 40.0302 61.1809 39.555 60.8991C39.4583 60.8411 39.3597 60.783 39.2603 60.725C39.1074 60.6357 38.9508 60.5528 38.7942 60.4708C38.5981 60.3667 38.4019 60.2645 38.214 60.1466C38.1201 60.0886 38.0308 60.0186 37.9469 59.9449C37.3152 60.0785 36.6981 60.3299 36.3518 60.5012C35.4234 60.9626 34.6084 61.6303 33.9158 62.3975C32.4431 64.0304 32.0011 66.331 32.2074 68.4668C32.3999 70.4534 33.1799 72.7365 34.7502 74.059C35.4336 74.6346 36.2855 74.9717 37.1862 74.9616C37.6301 74.9579 38.039 74.8649 38.4664 74.7516C38.6497 74.7037 38.8504 74.6825 39.0512 74.6613C39.3155 74.6337 39.5789 74.6061 39.8 74.5177C40.3774 74.2865 41.0893 74.9929 40.8545 75.5731C40.802 75.702 40.7559 75.8264 40.7117 75.947C40.6067 76.2335 40.51 76.495 40.3535 76.7354C41.9652 79.3666 43.7298 81.9168 45.6077 84.3639C46.7976 85.913 48.1367 87.2899 49.4813 88.6723C50.0487 89.2552 50.6169 89.8391 51.176 90.4387C52.0076 91.3302 52.3539 93.0856 50.849 93.4669C49.5265 93.8058 48.4987 92.592 47.6827 91.6295C47.574 91.5006 47.4681 91.3754 47.3668 91.2602C43.7961 87.1978 41.0976 82.5339 39.834 77.2686C39.2649 77.673 38.611 77.8931 37.9221 77.9888C36.5498 78.1777 35.1628 77.9069 33.96 77.2125C29.4076 74.5821 28.3061 67.4758 30.4382 63.0219C30.953 61.9499 31.7119 60.9921 32.6384 60.2489C32.5656 60.1098 32.5362 59.9459 32.5831 59.77C32.666 59.4623 32.7563 59.1584 32.8511 58.8554C32.7471 58.8094 32.6716 58.7145 32.6863 58.5727C32.7581 57.8313 32.829 57.0903 32.9 56.3492L32.9386 55.9446C32.9304 55.5429 32.9175 55.1414 32.9055 54.7397C32.8779 53.8178 32.8502 52.8952 32.8613 51.9678C32.8714 50.9811 32.9055 49.9948 32.9386 49.0085C32.9773 47.8741 33.016 46.7397 33.0206 45.6048C33.0335 41.929 33.1136 38.2552 33.1947 34.5815C33.2766 30.8585 33.3577 27.1356 33.3687 23.4107C33.3807 19.792 33.3881 16.1678 33.2932 12.5512C33.2914 12.5256 33.2914 12.5005 33.2905 12.4753C33.2905 12.4528 33.2895 12.4302 33.2895 12.4072C33.2776 11.9634 33.249 11.4964 33.2205 11.0173C33.0602 8.3718 32.8788 5.35198 35.2733 3.76651C35.7384 3.45909 36.3186 3.45522 36.8243 3.65378C38.2803 2.6396 40.1048 2.15083 41.8501 1.86864C44.4233 1.45309 47.0131 1.20397 49.6048 0.954749C50.3627 0.881899 51.1207 0.808957 51.8787 0.731871C53.6258 0.554765 55.465 0.486796 57.2231 0.525754C58.1386 0.545739 59.0596 0.512677 59.9824 0.479614C60.8527 0.448393 61.7249 0.41717 62.5943 0.43034C64.6251 0.463404 66.6724 0.539383 68.7115 0.706726C68.7584 0.701937 68.8063 0.697518 68.8542 0.69319C68.903 0.688769 68.9519 0.68444 68.9998 0.679467C72.0878 0.383186 75.1731 0.539846 78.2602 0.696597C79.0072 0.734542 79.755 0.772578 80.5028 0.804075C84.1564 0.95788 88.0144 1.33548 91.2958 3.08517C91.7177 3.30979 92.075 3.56518 92.3798 3.84977C92.8072 3.90991 93.2152 4.0312 93.5808 4.23502C94.6372 4.02144 95.816 4.49482 96.0665 5.72093C96.4303 7.51758 96.5685 9.32953 96.3502 11.1517C96.3474 11.1746 96.3447 11.1982 96.3419 11.2223C96.3401 11.2431 96.3373 11.2644 96.3345 11.286C96.7757 12.9763 96.7462 14.8224 96.3797 16.4895C96.5344 18.5961 96.6228 20.7086 96.6348 22.8176C96.6366 23.1368 96.6412 23.4572 96.6458 23.7783C96.6624 24.925 96.679 26.0802 96.5731 27.2166C96.4533 28.4954 95.9275 29.5074 95.0995 30.4787C94.9429 30.6616 94.6795 30.692 94.4603 30.6476C94.4032 30.6362 94.3544 30.6206 94.3093 30.6021C94.7182 31.4782 95.0562 32.3979 95.3878 33.2976C95.4605 33.4972 95.5342 33.6957 95.607 33.8926C96.2498 35.6173 96.8724 37.3711 97.3135 39.158C98.2087 42.7608 98.7982 46.432 99.1408 50.1285ZM37.1365 66.4333C36.9514 66.3062 36.7653 66.1772 36.5636 66.0824C36.5388 66.0704 35.4723 65.7241 35.6786 66.1809C35.7486 66.3329 35.5653 66.5023 35.4354 66.3679C35.0652 65.9921 35.2715 65.5408 35.6242 65.2056C36.2597 64.6005 37.2092 64.7405 37.9902 64.8851C39.0751 65.085 40.1306 65.5602 41.0451 66.1699C42.0297 66.8256 43.2454 67.7346 43.4397 68.978C43.6165 70.1209 42.4809 71.3799 41.3113 70.6155C40.6786 70.201 40.2356 69.584 39.7908 68.9651C39.4739 68.5248 39.1562 68.0818 38.7685 67.7116C38.3107 67.275 37.8162 66.8919 37.293 66.541C37.2406 66.506 37.189 66.4701 37.1365 66.4333Z" fill="#3317CA"/>
    <path fill-rule="evenodd" clip-rule="evenodd" d="M78.1488 84.1125C76.841 83.5792 75.6741 82.6886 74.8203 81.5512C74.5238 81.1552 74.4473 80.738 74.509 80.3558C74.579 79.9266 74.8332 79.537 75.1795 79.2764C75.5267 79.0148 75.9614 78.885 76.3814 78.9513C76.747 79.0084 77.1099 79.2082 77.3982 79.6227L77.458 79.7055C77.9655 80.3926 78.6258 80.9553 79.3792 81.3191C80.1049 81.6691 80.9173 81.8321 81.7572 81.7372C83.3579 81.5567 84.4603 80.691 85.6327 79.5149C85.7782 79.3666 85.9237 79.2137 86.0692 79.0581C86.1613 78.9172 86.2903 78.826 86.4321 78.779C86.5896 78.7256 86.7683 78.7293 86.9322 78.7864C87.0897 78.8407 87.2306 78.9457 87.3254 79.0848C87.4148 79.2165 87.4664 79.3795 87.4498 79.5674C87.342 80.7849 86.7056 81.8726 85.8012 82.7264C84.7964 83.675 83.4647 84.3307 82.2112 84.561C80.8307 84.8142 79.4234 84.6328 78.1488 84.1125ZM82.8633 65.317C84.3323 66.2104 86.5712 68.2936 84.9908 70.5086C83.1294 72.462 80.4512 70.2231 79.1315 69.21C77.9075 68.4253 76.5315 70.4441 77.6671 71.3605C87.2057 78.4254 91.0775 65.5509 83.6065 64.2671C82.7832 64.1253 82.4783 65.0407 82.8633 65.317ZM65.7698 57.099C65.9319 55.0831 69.0006 54.6253 69.3064 56.6202C69.579 58.4069 69.2576 60.0481 68.4526 61.657C67.6845 63.1942 65.7523 62.4776 65.6059 61.0777C65.4097 59.2017 65.6685 58.3525 65.7698 57.099ZM89.1306 56.2065C89.5588 55.646 90.1768 55.2632 90.9164 55.4795C93.229 56.1555 92.5474 59.4402 91.7351 61.0381C91.294 61.9066 89.8674 62.1267 89.2227 61.3623C88.1718 60.1162 87.669 57.6264 89.0044 56.3987C89.0412 56.3352 89.0818 56.2711 89.1306 56.2065ZM68.4204 48.2783L68.786 48.2143C69.9161 48.0187 71.3206 47.8309 72.12 48.7398C72.5446 49.2217 72.6901 50.1175 72.12 50.5788C71.118 51.3905 70.0091 51.0759 68.8082 51.1446C67.8181 51.2015 66.8667 51.3654 65.9135 51.6381C63.821 52.2363 62.1163 53.3282 60.3296 54.5273C60.0957 54.6845 59.8562 54.3846 59.9676 54.1652C60.9991 52.1442 62.9977 50.484 64.9999 49.472C66.0692 48.9319 67.2379 48.4837 68.4204 48.2783ZM87.0225 47.3729L87.3024 47.4301C90.3454 48.0664 94.2982 49.3373 95.7386 52.327C95.7939 52.7497 95.7359 52.8404 95.6889 52.8996L95.6732 52.9193C95.6336 52.9699 95.6032 53.0395 95.42 53.097C95.3693 53.0849 95.3178 53.0721 95.2662 53.0585C94.6049 52.8853 94.0827 52.6468 93.5771 52.3993L93.0282 52.129C92.3918 51.8169 91.7499 51.5161 91.0692 51.294C89.6178 50.8202 88.1239 50.4865 86.608 50.3083C86.2792 50.2697 85.9624 50.1587 85.7128 49.9685C85.4761 49.7879 85.2947 49.538 85.2118 49.2057C85.105 48.7758 85.1363 48.4502 85.3665 48.0623C85.5397 47.771 85.7883 47.569 86.0729 47.4531C86.363 47.3349 86.6937 47.307 87.0225 47.3729Z" fill="#3317CA"/>
    <path fill-rule="evenodd" clip-rule="evenodd" d="M274.387 194.692C273.603 190.261 272.884 185.818 272.231 181.366C271.921 179.253 271.618 177.136 271.346 175.017C271.155 173.533 270.865 171.834 271.876 170.735C273.297 169.187 274.587 167.862 274.761 165.645C274.925 163.559 274.22 161.285 273.778 159.26C272.854 155.013 271.703 150.819 270.432 146.666C269.139 142.445 267.722 138.263 266.284 134.09C264.941 130.189 263.649 126.253 261.899 122.509C258.578 115.406 252.959 110.145 246.014 106.632C244.287 105.758 240.763 102.64 238.959 101.942C237.3 101.3 237.306 103.174 235.674 102.468C234.368 101.903 233.153 101.151 232.422 99.8897C231.629 98.5212 229.638 96.6064 229.335 95.0131C228.694 91.6359 229.389 88.7606 226.98 86.2187C224.84 83.9613 221.965 82.415 218.99 81.5852C212.446 79.7589 203.717 81.0354 199.768 87.1194C197.883 90.0251 197.224 93.5368 194.679 95.9074C192.456 97.9778 192.954 99.3933 190.076 100.461C189.913 100.522 185.494 99.5729 185.331 99.6337C182.183 98.9595 179.173 100.847 176.285 101.942C171.978 103.574 167.878 105.697 164.026 108.223C156.259 113.314 149.606 119.925 144.122 127.406C138.592 134.948 134.302 143.403 131.247 152.238C130.505 154.384 129.838 156.557 129.25 158.751C128.921 159.977 128.57 161.251 128.97 162.508C129.298 163.536 130.027 164.301 130.883 164.919C132.043 165.755 134.37 166.299 134.325 167.981C134.29 169.26 133.857 170.606 133.645 171.869C133.393 173.375 133.186 174.888 132.979 176.4C132.037 183.281 131.304 190.2 130.98 197.14C130.661 203.973 130.396 210.945 130.87 217.776C130.901 218.226 131.036 218.64 131.252 218.989C131.05 219.066 131.034 219.444 131.286 219.497C131.462 219.534 131.638 219.572 131.815 219.608C132.181 219.886 132.637 220.056 133.163 220.073C133.519 220.084 133.875 220.1 134.231 220.118C137.987 220.903 141.742 221.646 145.546 222.207C150.171 222.89 154.809 223.446 159.462 223.899C169.022 224.829 178.507 224.52 188.08 224.019C197.638 223.519 207.191 223.402 216.759 223.651C226.336 223.9 235.909 224.316 245.488 224.487C256.189 224.677 266.874 224.386 277.544 223.535C279.007 223.418 279.912 222.253 279.624 220.799C277.895 212.09 275.936 203.44 274.387 194.692Z" fill="white"/>
    <path fill-rule="evenodd" clip-rule="evenodd" d="M182.346 99.4191C183.336 99.3758 184.345 99.536 185.332 99.6337C185.418 99.6419 185.451 99.7746 185.354 99.7948C183.587 100.164 181.84 100.67 180.104 101.183L179.361 101.402C177.405 101.981 175.505 102.579 173.611 103.351C169.835 104.891 166.25 106.968 162.949 109.356C150.241 118.547 141.044 132.463 135.24 146.871C133.663 150.784 132.328 154.794 131.246 158.872C130.983 159.864 130.735 160.86 130.501 161.859C130.432 162.152 130.132 162.902 130.296 163.202C130.442 163.467 131.008 163.631 131.271 163.768L132.158 164.229C133.889 165.121 136.773 166.588 137.062 166.732L137.513 166.954C144.889 170.571 152.771 173.639 161.072 173.851L161.137 173.142C161.507 169.221 161.992 165.28 163.052 161.48C163.11 161.276 163.369 161.345 163.393 161.527C163.984 166.026 163.795 170.559 163.589 175.078C163.224 183.082 162.739 191.083 162.309 199.084C162.093 203.087 161.815 207.087 161.563 211.086C161.311 215.096 161.23 219.2 160.654 223.175C160.526 224.061 159.488 224.543 158.703 224.45C157.833 224.346 157.165 223.581 157.161 222.702C157.15 220.387 157.441 218.043 157.603 215.733C157.756 213.538 157.921 211.344 158.09 209.151C158.707 201.144 159.417 193.148 160.074 185.145C160.306 182.307 160.558 179.471 160.817 176.635C152.023 176.352 143.808 173.093 135.971 169.287C135.858 171.863 135.584 174.435 135.318 177.001C134.578 184.162 133.925 191.318 133.437 198.501C133.19 202.129 133.01 205.761 132.854 209.394C132.777 211.18 132.714 212.965 132.666 214.751C132.65 215.347 132.636 215.942 132.623 216.538L132.596 217.902C132.574 218.766 132.487 219.567 131.76 220.196C131.021 220.835 130.024 220.869 129.293 220.196C128.315 219.294 128.488 218.067 128.517 216.856C128.541 215.836 128.57 214.815 128.603 213.794C128.671 211.753 128.757 209.712 128.862 207.672C129.229 200.541 129.962 193.439 130.92 186.365L131.294 183.634C131.993 178.557 132.76 173.366 134.322 168.475C133.714 168.172 133.107 167.868 132.503 167.562C131.432 167.019 130.324 166.51 129.283 165.911C128.457 165.436 127.744 164.784 127.514 163.823C127.258 162.751 127.65 161.579 127.911 160.534L127.933 160.442C128.189 159.389 128.464 158.341 128.754 157.297C129.931 153.066 131.387 148.917 133.09 144.87C136.501 136.766 140.904 129.067 146.282 122.107C151.123 115.84 156.841 110.159 163.543 105.896C166.82 103.813 170.312 102.102 174.005 100.893C175.731 100.327 177.609 99.8354 179.416 99.6337C180.391 99.5241 181.367 99.4614 182.346 99.4191ZM199.88 86.5787C201.056 85.3151 203.392 86.622 202.828 88.2954C201.5 92.2308 199.384 95.8208 196.084 98.4069C192.982 100.838 189.281 102.417 185.297 102.08C185.266 102.077 185.239 102.07 185.216 102.059L185.559 102.524C188.255 106.172 191.099 109.77 194.527 112.751C201.511 118.827 211.019 122.103 220.201 119.772C227.425 117.938 233.79 112.223 235.662 104.94C235.394 105.061 235.074 105.102 234.724 105.026C233.227 104.701 231.744 103.125 230.779 101.995C229.733 100.773 228.917 99.4532 228.32 97.9612C227.225 95.2314 226.874 91.716 228.368 89.0718C228.553 88.7458 228.978 88.9281 229.014 89.2468L229.071 89.7432C229.359 92.2216 229.719 94.6198 230.886 96.879C231.458 97.9842 232.144 99.0636 232.978 99.9901C233.424 100.485 233.908 100.958 234.43 101.373C234.94 101.779 235.556 102.072 236.012 102.536L236.096 102.625L236.097 102.608C236.213 101.628 236.901 101.195 237.574 101.222C238.226 101.248 238.99 101.535 239.287 101.673L239.314 101.686C243.858 103.867 248.043 106.711 251.982 109.868C260.126 116.393 266.227 124.923 269.184 134.969C270.635 139.899 271.468 144.979 272.346 150.035L272.888 153.134C273.708 157.802 274.625 162.562 276.477 166.904C276.956 168.027 276.587 169.08 275.411 169.522C273.945 170.074 272.473 170.608 270.998 171.136C271.722 174.243 272.164 177.458 272.706 180.58C273.86 187.217 275.272 193.813 276.483 200.441C277.103 203.83 277.661 207.231 278.28 210.62C278.579 212.253 278.889 213.883 279.192 215.515C279.354 216.394 279.502 217.276 279.658 218.158L279.685 218.304C279.774 218.768 279.886 219.249 279.758 219.714C279.612 220.245 279.198 220.62 278.829 221C278.524 221.313 278.085 221.315 277.713 221.145L277.59 221.087C276.925 220.776 276.403 220.466 276.167 219.714C276.017 219.239 275.964 218.703 275.866 218.214C275.678 217.275 275.501 216.334 275.333 215.391C274.998 213.504 274.67 211.616 274.35 209.726L274.051 207.957C273.026 201.859 272.053 195.724 271.56 189.561C271.342 186.827 271.11 184.095 270.876 181.363L270.701 179.313C270.48 176.72 270.208 174.061 270.17 171.432L269.288 171.745L264.986 173.266C263.919 173.644 262.561 174.417 261.413 174.276C260.852 174.207 260.423 174.03 260.092 173.708C260.489 179.301 261.025 184.884 261.739 190.439C262.39 195.493 263.111 200.541 263.962 205.565C264.384 208.054 264.816 210.539 265.287 213.019C265.523 214.258 265.766 215.496 266.016 216.733C266.141 217.35 266.289 217.967 266.386 218.59C266.497 219.302 266.301 219.74 265.903 220.327C265.577 220.807 264.923 221.055 264.394 220.723C263.692 220.283 263.325 219.9 263.119 219.099C262.932 218.37 262.818 217.609 262.672 216.871C262.404 215.509 262.146 214.146 261.896 212.78C261.373 209.924 260.891 207.061 260.46 204.189C258.943 194.074 257.982 183.873 257.495 173.657C257.255 168.615 257.181 163.57 257.224 158.524C257.246 155.938 257.33 153.344 257.513 150.764C257.698 148.152 258.083 145.593 258.428 143.006C258.44 142.915 258.568 142.91 258.573 143.006C258.736 145.906 258.991 148.802 259.116 151.71C259.236 154.485 259.289 157.263 259.384 160.038C259.508 163.686 259.681 167.337 259.91 170.984C260.325 170.531 260.95 170.269 261.575 170.372C262.481 170.181 263.456 169.706 264.32 169.417L267.576 168.329C269.288 167.757 270.999 167.189 272.717 166.638C271.181 161.469 270.13 156.223 269.231 150.902L268.83 148.508C268.037 143.797 267.182 139.083 265.746 134.521C264.236 129.724 261.976 125.265 258.978 121.226C256.023 117.247 252.428 113.742 248.727 110.464C245.558 107.658 242.168 105.125 238.935 102.396C238.969 102.576 238.976 102.775 238.946 102.994C238.259 108.026 235.635 112.712 231.979 116.197C224.633 123.199 213.758 124.651 204.357 121.368C195.261 118.192 187.22 110.671 184.379 101.363C184.33 101.204 184.544 101.14 184.629 101.257C184.787 101.474 184.945 101.689 185.104 101.906C185.093 101.82 185.138 101.726 185.244 101.686C188.558 100.405 191.814 98.5893 194.299 96.0206C195.509 94.7681 196.566 93.3498 197.4 91.82C197.8 91.0869 198.159 90.328 198.446 89.5434L198.518 89.3407C198.866 88.3581 199.156 87.3569 199.88 86.5787Z" fill="#1F00C5"/>
    <path fill-rule="evenodd" clip-rule="evenodd" d="M217.435 5.28905C228.484 5.28905 242.321 17.8968 246.371 23.2618C249.776 27.7725 249.294 51.01 249.294 64.7947C249.294 67.6774 247.991 73.1342 247.518 75.8917C245.785 85.9967 238.236 94.4716 223.293 94.4716C211.125 94.4716 201.762 90.6163 192.707 80.7554C190.641 78.5054 180.553 86.5594 178.49 83.6592C173.101 83.6592 168.595 33.288 179.176 18.1796C189.756 3.07114 206.387 5.28905 217.435 5.28905Z" fill="white"/>
    <path fill-rule="evenodd" clip-rule="evenodd" d="M184.23 8.83707C190.615 3.02676 199.119 0.23158 207.7 0.43788C212.144 0.544991 216.573 1.39165 220.769 2.84183C222.868 3.56987 224.902 4.51968 226.846 5.59419C227.546 5.98045 228.192 6.43312 228.813 6.91387L228.969 7.03461H228.971C230.638 7.63408 232.126 8.71052 233.477 9.96988C236.183 9.75381 238.911 9.99714 241.528 10.8322C245.171 11.9962 248.543 14.1277 250.91 17.1545C253.669 20.6782 254.586 24.9525 254.259 29.365L254.198 30.1145C253.875 34.0123 253.295 39.0258 250.097 41.587C249.854 41.7816 249.585 41.9296 249.307 42.0191C251.368 45.55 253.059 49.4703 254.07 53.4294C257.933 68.5514 254.964 84.3224 250.319 98.8978C249.938 100.099 248.123 100.897 247.198 99.723C245.549 97.625 243.151 96.0244 240.455 95.7251C238.79 95.5399 237.134 95.8752 235.562 95.12C234.946 94.8216 234.35 94.3353 233.922 93.7431C231.269 94.7497 228.41 95.225 225.575 95.108C220.923 94.9174 215.95 93.3056 212.749 89.7709C212.236 89.2036 212.105 88.5662 212.224 87.9915C212.625 87.8488 213.037 87.742 213.461 87.6756C217.52 90.0684 221.994 91.6672 226.803 91.7676C229.58 91.8256 232.291 91.437 234.544 89.7018C235.031 89.3261 235.479 88.9098 235.894 88.4631C240.604 85.4321 243.925 80.2838 245.503 74.769C246.974 69.6262 246.794 64.2716 246.288 58.9962L246.021 56.213C245.631 52.1273 245.27 48.0295 245.17 43.9266L245.2 43.9251C246.195 43.8609 246.202 42.303 245.2 42.3679C242.609 42.5357 240.036 42.1104 237.453 42.2957C237.432 41.0739 237.343 39.8574 236.984 38.6791C236.78 38.0057 235.607 37.873 235.484 38.6791C235.317 39.7574 235.257 40.8297 235.239 41.913C231.373 41.8616 227.509 41.5361 223.643 41.6698C222.929 40.9087 222.703 39.5592 222.368 38.6205C222.32 38.4822 222.272 38.346 222.221 38.2078C221.927 39.5494 221.512 40.8615 220.966 42.146L220.017 42.1492C214.636 42.1745 209.146 42.3354 203.892 43.4532C203.526 43.1727 203.309 42.6834 203.25 42.239C202.868 39.3473 202.325 36.5325 201.361 33.7768L201.222 33.3881C201.211 33.3559 201.199 33.3215 201.187 33.2855C200.476 34.4326 199.629 35.5018 198.705 36.4974C198.16 37.0843 197.588 37.6454 197.003 38.1907C196.432 38.8233 195.844 39.4464 195.274 40.081C195.296 40.1964 195.315 40.3135 195.331 40.4329C195.506 41.7497 195.524 43.0851 195.396 44.407C195.165 46.7968 194.491 49.0994 193.407 51.2298L193.373 51.4431C193.208 52.4413 192.974 53.473 192.428 54.2248C193.11 54.989 193.635 55.9026 193.94 56.9176C194.211 57.821 192.962 58.6039 192.314 57.8643C191.8 57.2767 191.228 56.7914 190.6 56.4037C190.56 56.4571 190.488 56.4838 190.408 56.4387C188.658 55.467 185.688 55.7617 183.94 56.6763C181.767 57.8128 180.918 60.1465 181.16 62.5116C181.391 64.7717 182.38 67.4131 184.296 68.5717C185.176 69.1031 185.861 69.1473 186.795 68.8922C187.093 68.8111 187.464 68.5625 187.622 68.4391L187.779 68.3138C188.391 67.8294 188.961 67.4978 189.684 67.4849C190.423 67.2547 191.166 67.5743 191.449 68.3497L191.467 68.4004C191.599 68.7955 191.84 69.2919 191.787 69.8951C191.733 70.5408 191.437 71.1293 190.996 71.6017C190.919 71.6837 190.837 71.7657 190.755 71.8412C198.362 80.0812 199.339 92.9197 195.438 103.214C195.268 103.665 195.088 104.111 194.899 104.553C194.247 106.067 191.737 105.598 191.418 104.097C191.323 103.647 191.217 103.2 191.103 102.756C190.892 101.935 190.65 101.123 190.377 100.323L190.274 100.023C190.042 99.3611 189.826 98.6934 189.592 98.0312L189.569 97.9557C189.56 97.9262 189.551 97.8912 189.54 97.8525L189.145 98.7146L187.945 101.317C187.383 102.532 185.598 101.872 185.532 100.701L185.53 100.662C185.524 100.445 185.516 100.231 185.503 100.019C185.417 98.4291 185.143 96.8827 184.707 95.3705L184.55 95.5666C182.208 98.4622 179.46 101.176 175.69 101.845C174.745 102.013 173.675 101.023 174.324 100.067C174.593 99.6724 174.852 99.2681 175.097 98.8573C174.885 98.7579 174.684 98.6547 174.5 98.5497C173.069 97.7457 171.879 96.6009 170.894 95.3023C168.806 92.5504 168.059 89.0857 167.876 85.6946C167.682 82.1111 167.997 78.3332 168.976 74.8758C169.4 73.3811 169.974 71.9462 170.637 70.5546C170.591 70.4302 170.546 70.3059 170.501 70.1806C169.785 68.184 169.197 66.1421 168.709 64.0764C167.724 59.9071 167.195 55.6061 167.131 51.3214C167.014 43.6464 168.337 35.8487 171.126 28.6914C174.005 21.3102 178.337 14.1997 184.23 8.83707ZM180.644 75.9405C180.116 75.1079 178.793 75.8585 179.284 76.6975L179.302 76.727C180.141 78.0486 180.534 79.5517 181.016 81.0252C181.325 81.9729 182.83 81.5677 182.516 80.6108L182.413 80.2903C181.932 78.7965 181.494 77.2778 180.644 75.9405ZM185.25 60.0415L185.601 59.8712C186.709 59.3425 187.68 58.9824 188.989 59.4438C190.743 60.0609 192.62 62.0253 191.435 63.9309C191 64.6336 190.225 64.9136 189.427 64.7487C188.082 64.4696 187.735 63.2576 187.053 62.263L186.935 62.0944C186.519 61.493 185.993 60.6614 185.3 60.4256C185.143 60.3703 185.076 60.1254 185.25 60.0415ZM186.238 19.582L186.351 19.4805C187.104 18.8148 185.999 17.717 185.25 18.3788C181.822 21.4095 180.631 26.1531 178.852 30.1961C178.454 31.1051 179.794 31.8992 180.197 30.9824C181.893 27.1246 183.019 22.5097 186.238 19.582ZM227.437 18.2562C226.541 17.8524 225.757 19.1565 226.62 19.586L226.652 19.6012C229.679 20.9696 230.967 24.0685 232.201 26.9454C232.594 27.8641 233.934 27.0719 233.545 26.161L233.322 25.6447C232.035 22.6799 230.534 19.658 227.437 18.2562ZM232.182 16.3836C231.233 16.0547 230.827 17.5574 231.768 17.8864C234.335 18.7798 236.096 20.7068 237.58 22.9102C238.136 23.7355 239.485 22.9569 238.923 22.1239C237.199 19.5662 235.152 17.4192 232.182 16.3836Z" fill="#1F00C5"/>
    <path fill-rule="evenodd" clip-rule="evenodd" d="M226.971 80.8033C225.664 80.27 224.496 79.3794 223.643 78.242C223.346 77.846 223.269 77.4288 223.332 77.0466C223.402 76.6174 223.656 76.2278 224.002 75.9672C224.349 75.7056 224.784 75.5757 225.204 75.6421C225.569 75.6992 225.932 75.899 226.22 76.3135L226.28 76.3963C226.787 77.0834 227.448 77.6461 228.202 78.0099C228.927 78.3599 229.739 78.5229 230.58 78.428C232.179 78.2475 233.283 77.3818 234.455 76.2057C234.6 76.0574 234.745 75.9045 234.892 75.7489C234.984 75.608 235.112 75.5168 235.254 75.4698C235.412 75.4164 235.591 75.4201 235.754 75.4772C235.912 75.5315 236.053 75.6365 236.147 75.7756C236.237 75.9073 236.288 76.0703 236.271 76.2582C236.165 77.4757 235.527 78.5634 234.623 79.4172C233.619 80.3658 232.287 81.0215 231.034 81.2518C229.652 81.505 228.245 81.3236 226.971 80.8033ZM231.685 62.0078C233.155 62.9012 235.393 64.9844 233.812 67.1994C231.952 69.1528 229.273 66.9139 227.953 65.9008C226.729 65.1161 225.354 67.1349 226.49 68.0513C236.028 75.1162 239.899 62.2417 232.428 60.9579C231.606 60.8161 231.3 61.7315 231.685 62.0078ZM214.591 53.7898C214.754 51.7739 217.823 51.3161 218.128 53.311C218.402 55.0977 218.079 56.7389 217.275 58.3478C216.506 59.8849 214.574 59.1684 214.428 57.7685C214.232 55.8925 214.49 55.0433 214.591 53.7898ZM237.953 52.8973C238.38 52.3368 238.998 51.954 239.739 52.1703C242.051 52.8463 241.37 56.131 240.558 57.7289C240.117 58.5974 238.69 58.8175 238.045 58.0531C236.994 56.807 236.492 54.3172 237.827 53.0895C237.863 53.026 237.903 52.9619 237.953 52.8973ZM217.243 44.9691L217.608 44.9051C218.738 44.7095 220.143 44.5217 220.943 45.4306C221.366 45.9125 221.513 46.8083 220.943 47.2696C219.94 48.0813 218.832 47.7667 217.631 47.8354C216.641 47.8923 215.689 48.0562 214.735 48.3289C212.644 48.9271 210.939 50.019 209.152 51.2181C208.917 51.3753 208.678 51.0754 208.79 50.856C209.822 48.835 211.82 47.1748 213.822 46.1628C214.891 45.6227 216.06 45.1745 217.243 44.9691ZM235.845 44.0637L236.124 44.1209C239.167 44.7572 243.12 46.0281 244.561 49.0178C244.616 49.4405 244.557 49.5312 244.511 49.5904L244.495 49.6101C244.456 49.6607 244.425 49.7303 244.242 49.7878C244.191 49.7757 244.139 49.7629 244.088 49.7493C243.427 49.5761 242.905 49.3376 242.399 49.0901L241.851 48.8198C241.214 48.5077 240.572 48.2069 239.892 47.9848C238.439 47.511 236.946 47.1773 235.43 46.9991C235.101 46.9605 234.785 46.8495 234.534 46.6593C234.298 46.4787 234.117 46.2288 234.034 45.8965C233.927 45.4666 233.958 45.141 234.188 44.7531C234.362 44.4618 234.61 44.2598 234.895 44.1439C235.186 44.0257 235.516 43.9978 235.845 44.0637Z" fill="#1F00C5"/>
    <path fill-rule="evenodd" clip-rule="evenodd" d="M206.52 177.275C205.155 177.491 204.04 177.297 203.257 176.585C202.474 175.873 202.032 174.736 201.934 173.266C201.831 171.703 202.115 170.451 202.788 169.509C203.461 168.566 204.522 167.934 205.978 167.704C206.978 167.545 207.809 167.599 208.652 167.837L208.21 169.486C207.367 169.248 206.724 169.257 206.178 169.343C204.632 169.588 203.886 170.821 204.026 172.934C204.093 173.945 204.33 174.743 204.815 175.131C205.216 175.625 205.871 175.799 206.598 175.684C207.508 175.54 208.314 175.227 209.012 174.652L209.127 176.398C208.776 176.639 208.424 176.881 208.066 177.03L206.52 177.275Z" fill="#1F00C5"/>
    <path fill-rule="evenodd" clip-rule="evenodd" d="M218.885 175.224L216.975 175.527L216.597 169.829C216.549 169.094 216.427 168.649 216.13 168.325C215.833 167.999 215.457 167.874 214.82 167.975C214.092 168.09 213.565 168.452 213.231 168.969C212.898 169.486 212.771 170.341 212.85 171.537L213.154 176.132L211.244 176.434L210.629 167.152L212.176 166.907L212.528 168.058L212.619 168.044C212.861 167.541 213.207 167.208 213.643 166.861C214.08 166.513 214.62 166.334 215.256 166.233C216.621 166.017 217.652 166.318 218.174 167.258L218.265 167.244C218.507 166.741 218.846 166.315 219.374 165.954C219.811 165.606 220.441 165.412 221.078 165.311C222.17 165.138 223.007 165.285 223.498 165.765C223.989 166.243 224.317 167.028 224.396 168.222L224.798 174.288L222.888 174.59L222.51 168.893C222.461 168.158 222.34 167.712 222.043 167.388C221.746 167.063 221.279 166.952 220.733 167.038C220.005 167.154 219.478 167.516 219.144 168.033C218.811 168.55 218.677 169.314 218.744 170.324L219.067 175.195L218.885 175.224Z" fill="#1F00C5"/>
    <path fill-rule="evenodd" clip-rule="evenodd" d="M209.816 189.568C206.669 189.232 203.739 188.023 201.313 186.086C198.887 184.149 197.061 181.559 196.035 178.564L197.375 177.981C198.389 180.793 200.105 183.12 202.338 184.902C204.57 186.684 207.214 187.752 210.18 188.117L209.816 189.568Z" fill="#1F00C5"/>
    <path fill-rule="evenodd" clip-rule="evenodd" d="M196.132 178.642C194.074 172.561 195.352 165.486 199.687 160.157L200.755 161.009C196.85 165.898 195.536 172.422 197.472 178.058L196.132 178.642Z" fill="#FF91D0"/>
    <path fill-rule="evenodd" clip-rule="evenodd" d="M200.755 161.009L199.687 160.157C203.931 154.842 210.541 151.937 216.927 152.597L216.654 154.034C210.729 153.393 204.659 156.119 200.755 161.009Z" fill="#00FFCD"/>
    <path fill-rule="evenodd" clip-rule="evenodd" d="M229.271 164.107C228.354 161.373 226.638 159.046 224.405 157.263C222.173 155.481 219.529 154.413 216.654 154.034L216.927 152.598C220.074 152.934 223.004 154.142 225.43 156.08C227.856 158.017 229.682 160.606 230.708 163.601L229.271 164.107Z" fill="#1F00C5"/>
    <path fill-rule="evenodd" clip-rule="evenodd" d="M227.056 182.009L225.988 181.156C229.892 176.267 231.207 169.743 229.271 164.108L230.611 163.523C232.759 169.591 231.39 176.679 227.056 182.009Z" fill="#FF91D0"/>
    <path fill-rule="evenodd" clip-rule="evenodd" d="M214.589 189.462C213.043 189.707 211.484 189.768 209.907 189.554L210.18 188.117C216.014 188.772 222.09 186.138 226.079 181.142L227.147 181.994C223.922 186.034 219.319 188.713 214.589 189.462Z" fill="#00FFCD"/>
</svg>
