<svg width="105" height="55" viewBox="0 0 105 55" fill="none" xmlns="http://www.w3.org/2000/svg">
<path fill-rule="evenodd" clip-rule="evenodd" d="M30.3877 54.7661C31.035 54.7661 31.6148 54.3658 31.8444 53.7606L51.1635 2.82846C51.5502 1.80902 50.7971 0.717896 49.7068 0.717896H44.2178C43.5705 0.717896 42.9906 1.11813 42.761 1.72335L23.4419 52.6555C23.0553 53.6749 23.8084 54.7661 24.8987 54.7661H30.3877ZM56.2916 15.3172H62.6111C63.2531 15.3172 63.8294 15.711 64.0627 16.3091L69.0185 29.0164L73.9743 16.3091C74.2076 15.711 74.7839 15.3172 75.4259 15.3172H81.7454C82.3874 15.3172 82.9637 15.711 83.197 16.3091L91.6731 38.0428C92.0715 39.0643 91.3181 40.1669 90.2216 40.1669H84.9142C84.2498 40.1669 83.6585 39.7456 83.4416 39.1176L81.4434 33.3332L78.7099 24.8843H78.4614L75.7279 33.3332L73.7297 39.1176C73.5128 39.7456 72.9215 40.1669 72.2571 40.1669H65.7799C65.1155 40.1669 64.5243 39.7456 64.3073 39.1176L62.3091 33.3332L59.5756 24.8843H59.3271L56.5936 33.3332L54.5954 39.1176C54.3785 39.7456 53.7872 40.1669 53.1228 40.1669H47.8154C46.7189 40.1669 45.9655 39.0643 46.3639 38.0428L54.84 16.3091C55.0733 15.711 55.6496 15.3172 56.2916 15.3172ZM20.2401 37.9264C20.5071 37.2225 20.2327 36.4285 19.5881 36.0397L9.39178 29.8895C9.32575 29.8497 9.28539 29.7782 9.28539 29.7011C9.28539 29.624 9.32575 29.5525 9.39178 29.5127L24.1874 20.5883C24.6549 20.3063 24.9407 19.8002 24.9407 19.2542V13.4083C24.9407 12.1782 23.5821 11.4333 22.545 12.0947L1.30823 25.6385C0.859574 25.9247 0.587982 26.42 0.587982 26.9521V32.4501C0.587982 32.9822 0.859573 33.4775 1.30823 33.7637L16.2087 43.2665C17.0419 43.7979 18.1528 43.4294 18.5032 42.5055L20.2401 37.9264ZM96.3413 34.6728C96.1582 35.1409 96.0666 35.6496 96.0666 36.199C96.0666 36.7485 96.1582 37.2674 96.3413 37.7557C96.5448 38.2238 96.8195 38.6409 97.1655 39.0072C97.5114 39.3735 97.9285 39.6584 98.4169 39.8619C98.9053 40.0654 99.4446 40.1671 100.035 40.1671C100.625 40.1671 101.164 40.0654 101.652 39.8619C102.141 39.6584 102.558 39.3735 102.904 39.0072C103.25 38.6409 103.514 38.2238 103.698 37.7557C103.901 37.2674 104.003 36.7485 104.003 36.199C104.003 35.6496 103.901 35.1409 103.698 34.6728C103.514 34.1845 103.25 33.7673 102.904 33.4214C102.558 33.0551 102.141 32.7702 101.652 32.5667C101.164 32.3429 100.625 32.231 100.035 32.231C99.4446 32.231 98.9053 32.3429 98.4169 32.5667C97.9285 32.7702 97.5114 33.0551 97.1655 33.4214C96.8195 33.7673 96.5448 34.1845 96.3413 34.6728Z" fill="url(#paint0_linear)"/>
<path fill-rule="evenodd" clip-rule="evenodd" d="M30.3877 54.7661C31.035 54.7661 31.6148 54.3658 31.8444 53.7606L51.1635 2.82846C51.5502 1.80902 50.7971 0.717896 49.7068 0.717896H44.2178C43.5705 0.717896 42.9906 1.11813 42.761 1.72335L23.4419 52.6555C23.0553 53.6749 23.8084 54.7661 24.8987 54.7661H30.3877ZM56.2916 15.3172H62.6111C63.2531 15.3172 63.8294 15.711 64.0627 16.3091L69.0185 29.0164L73.9743 16.3091C74.2076 15.711 74.7839 15.3172 75.4259 15.3172H81.7454C82.3874 15.3172 82.9637 15.711 83.197 16.3091L91.6731 38.0428C92.0715 39.0643 91.3181 40.1669 90.2216 40.1669H84.9142C84.2498 40.1669 83.6585 39.7456 83.4416 39.1176L81.4434 33.3332L78.7099 24.8843H78.4614L75.7279 33.3332L73.7297 39.1176C73.5128 39.7456 72.9215 40.1669 72.2571 40.1669H65.7799C65.1155 40.1669 64.5243 39.7456 64.3073 39.1176L62.3091 33.3332L59.5756 24.8843H59.3271L56.5936 33.3332L54.5954 39.1176C54.3785 39.7456 53.7872 40.1669 53.1228 40.1669H47.8154C46.7189 40.1669 45.9655 39.0643 46.3639 38.0428L54.84 16.3091C55.0733 15.711 55.6496 15.3172 56.2916 15.3172ZM20.2401 37.9264C20.5071 37.2225 20.2327 36.4285 19.5881 36.0397L9.39178 29.8895C9.32575 29.8497 9.28539 29.7782 9.28539 29.7011C9.28539 29.624 9.32575 29.5525 9.39178 29.5127L24.1874 20.5883C24.6549 20.3063 24.9407 19.8002 24.9407 19.2542V13.4083C24.9407 12.1782 23.5821 11.4333 22.545 12.0947L1.30823 25.6385C0.859574 25.9247 0.587982 26.42 0.587982 26.9521V32.4501C0.587982 32.9822 0.859573 33.4775 1.30823 33.7637L16.2087 43.2665C17.0419 43.7979 18.1528 43.4294 18.5032 42.5055L20.2401 37.9264ZM96.3413 34.6728C96.1582 35.1409 96.0666 35.6496 96.0666 36.199C96.0666 36.7485 96.1582 37.2674 96.3413 37.7557C96.5448 38.2238 96.8195 38.6409 97.1655 39.0072C97.5114 39.3735 97.9285 39.6584 98.4169 39.8619C98.9053 40.0654 99.4446 40.1671 100.035 40.1671C100.625 40.1671 101.164 40.0654 101.652 39.8619C102.141 39.6584 102.558 39.3735 102.904 39.0072C103.25 38.6409 103.514 38.2238 103.698 37.7557C103.901 37.2674 104.003 36.7485 104.003 36.199C104.003 35.6496 103.901 35.1409 103.698 34.6728C103.514 34.1845 103.25 33.7673 102.904 33.4214C102.558 33.0551 102.141 32.7702 101.652 32.5667C101.164 32.3429 100.625 32.231 100.035 32.231C99.4446 32.231 98.9053 32.3429 98.4169 32.5667C97.9285 32.7702 97.5114 33.0551 97.1655 33.4214C96.8195 33.7673 96.5448 34.1845 96.3413 34.6728Z" fill="url(#paint1_linear)" fill-opacity="0.45"/>
<defs>
<linearGradient id="paint0_linear" x1="13.0189" y1="17.9916" x2="92.9691" y2="58.3888" gradientUnits="userSpaceOnUse">
<stop stop-color="#5665E7"/>
<stop offset="1" stop-color="#23DDB8"/>
</linearGradient>
<linearGradient id="paint1_linear" x1="5.80176" y1="51.0064" x2="20.9778" y2="15.295" gradientUnits="userSpaceOnUse">
<stop stop-color="#F86ABB"/>
<stop offset="1" stop-color="#F86ABB" stop-opacity="0"/>
</linearGradient>
</defs>
</svg>
