<svg width="276" height="218" viewBox="0 0 276 218" fill="none" xmlns="http://www.w3.org/2000/svg">
<path fill-rule="evenodd" clip-rule="evenodd" d="M47.9598 85.8463C58.5157 85.0901 72.9872 87.1834 76.0406 99.2236C76.9876 103.606 78.8528 105.529 81.9871 108.394C101.882 133.867 32.4687 138.15 28.9004 113.31C21.3829 116.048 13.1997 116.628 5.67815 119.397C1.59854 120.904 -2.10077 123.283 -5.6456 125.771C-20.101 136.042 -34.3518 146.606 -48.7557 156.95C-43.1819 159.518 -32.5844 169.321 -36.9026 175.909C-37.9086 177.193 -39.4017 178.077 -40.7226 179.016L-41.419 179.513C-42.9175 180.587 -45.4399 182.418 -46.8347 183.413L-47.0919 183.6C-47.1928 183.674 -47.3065 183.756 -47.4094 183.829C-37.3506 198.541 -25.5785 212.116 -12.5204 224.235C-11.4086 225.27 -11.8639 227.581 -13.4732 227.851L-15.3904 228.132C-21.5807 229.033 -27.8888 229.845 -34.127 229.356C-40.2025 228.694 -43.8637 223.314 -48.017 219.417C-56.3109 210.937 -64.0315 201.89 -71.0638 192.334L-71.2103 192.132C-73.3989 189.14 -76.304 186.082 -76.5166 182.218C-76.9043 181.057 -75.8839 179.392 -74.9034 178.6L-74.5687 178.117C-69.3098 170.551 -63.3581 163.255 -55.9014 157.775C-55.9291 156.958 -55.5518 156.1 -54.8046 155.559L-23.6412 132.998C-15.6004 127.463 -8.12692 120.957 0.588577 116.487C9.50037 112.194 19.5578 112.026 28.6899 108.443C28.8836 105.861 34.3096 105.202 34.1383 105.6C39.8641 102.144 42.8113 98.0299 43.7202 94.2493C44.6299 90.4696 43.4995 87.0214 47.9598 85.8463ZM125.025 166.846C134.66 152.341 143.846 168.389 147.857 178.062C152.597 191.299 142.781 207.581 136.441 218.992C134.105 222.161 131.033 228.845 126.917 229.33C116.545 229.288 106.159 228.558 95.7817 228.34C89.08 226.677 98.4821 216.603 104.976 220.282C106.944 221.019 107.927 223.254 109.845 223.971C110.545 224.12 110.593 223.808 110.877 223.112L110.918 223.014C111.425 221.809 111.916 220.598 112.415 219.389C116.641 208.98 121.108 198.663 125.549 188.35C126.498 186.111 125.167 184.267 123.437 182.934C122.113 181.843 116.419 179.181 121.783 180.352C119.718 175.556 122.2 170.687 125.025 166.846ZM101.101 146.991C102.028 146.874 103.22 147.81 103.362 148.716C104.546 156.227 103.227 163.653 101.646 171L101.356 172.346C100.773 175.026 100.121 177.759 98.6674 180.107C97.1831 182.504 94.938 184.311 92.3614 185.409C84.0935 188.705 73.8113 185.446 67.7298 179.284C63.8393 173.952 67.2595 167.255 67.9123 161.411C67.2949 159.836 67.0677 158.016 66.7111 156.392L66.6673 156.198L65.2808 150.142C64.9744 148.806 65.9475 146.978 67.5473 147.162C78.6954 148.441 89.9646 148.384 101.101 146.991Z" fill="white"/>
<path fill-rule="evenodd" clip-rule="evenodd" d="M140.037 164.949C140.003 164.799 140.182 164.685 140.299 164.797C142.26 166.688 143.645 169.105 145.166 171.345C146.614 173.478 148.19 175.529 149.27 177.883C150.273 180.071 150.92 182.291 151.113 184.696C151.305 187.084 151.056 189.477 150.635 191.828C149.806 196.461 148.036 200.848 146.092 205.109C144.202 209.251 142.067 213.275 139.813 217.226L139.004 218.637C138.018 220.355 137.022 222.068 135.955 223.732C134.627 225.803 133.415 227.94 131.664 229.669C130.421 230.898 128.078 229.669 128.644 227.911C128.89 227.145 129.084 226.424 129.464 225.714C129.754 225.173 130.081 224.648 130.387 224.114C131.001 223.048 131.609 221.977 132.223 220.91C133.511 218.669 134.869 216.468 136.146 214.219C138.361 210.319 140.452 206.344 142.302 202.256L142.519 201.772C144.221 197.985 145.833 194.063 146.58 189.967C147.367 185.651 146.662 181.582 145.131 177.526C144.337 175.428 143.446 173.378 142.52 171.335L142.342 170.945C141.447 168.995 140.498 167.056 140.037 164.949ZM44.791 90.2957C44.8086 90.2194 44.9381 90.2138 44.9502 90.2957C45.5014 93.9608 44.2751 97.8374 42.2786 100.886C41.1891 102.551 39.8454 104.055 38.2615 105.264L38.1376 105.357C36.5202 106.566 34.3347 107.735 32.3261 106.95C32.2628 106.926 32.2041 106.899 32.1492 106.867C32.3755 107.217 32.5841 107.586 32.7964 107.954C33.4277 109.05 33.9939 110.186 34.6103 111.291C35.7119 113.269 37.024 115.038 38.6824 116.588C45.3143 122.78 54.6261 124.251 63.3708 124.181L63.9882 124.175C67.8293 124.148 72.8531 124.344 75.8189 121.563C77.4122 120.069 78.2893 117.945 79.0827 115.952C79.8621 113.997 80.3947 111.98 81.0419 109.992C79.6908 109.066 78.4514 107.934 77.4773 106.611C76.4624 105.234 75.6951 103.683 75.2527 102.028L75.1866 101.781C74.8449 100.461 74.5004 98.7145 75.0516 97.4677C75.1149 97.3243 75.3505 97.3336 75.4176 97.4677C75.7146 98.0646 75.7714 98.7369 75.9548 99.3747C76.1672 100.117 76.4074 100.854 76.724 101.557C77.3358 102.92 78.1441 104.214 79.1144 105.348C79.9152 106.287 80.7821 107.148 81.7738 107.873C82.3586 106.863 83.7135 106.727 84.8486 107.06C86.3701 107.505 87.8712 108.076 89.3378 108.679L89.6311 108.8C91.081 109.402 92.7199 109.955 94.0775 110.776C94.9016 111.169 95.6922 111.565 96.4362 111.915C100.141 113.656 103.792 115.505 107.426 117.388L108.205 117.792C109.727 118.585 111.236 119.386 112.56 120.492C113.908 121.618 114.954 123.157 115.938 124.6C118.187 127.898 120.305 131.291 122.528 134.607C127.017 141.298 131.506 147.99 136.022 154.666C137.114 156.281 138.345 157.858 139.325 159.542C140.263 161.152 140.238 162.805 140.055 164.602L140.02 164.932C139.67 168.228 139.067 171.393 137.218 174.22C134.308 178.664 129.724 181.431 124.876 183.336C125.468 183.777 126.024 184.253 126.73 184.557C127.816 185.021 128.975 185.261 130.15 185.357C131.403 185.458 132.815 185.145 133.831 185.997C134.238 186.337 134.25 187.156 133.831 187.496C132.855 188.293 131.593 188.065 130.404 187.931L130.332 187.924C129.229 187.802 128.141 187.597 127.104 187.192C126.849 187.091 126.594 186.979 126.349 186.855C126.357 186.877 126.361 186.902 126.357 186.93C126.179 188.286 125.796 189.568 125.39 190.863L125.132 191.685C124.609 193.362 124.082 195.034 123.539 196.707C122.507 199.891 121.381 203.046 120.251 206.196L119.276 208.915C118.275 211.704 117.261 214.489 116.14 217.232C115.448 218.925 114.752 220.617 114.057 222.308C113.378 223.959 112.814 225.742 111.972 227.315C111.279 228.609 109.391 227.682 109.693 226.352C110.091 224.607 110.841 222.875 111.413 221.176C111.995 219.452 112.566 217.726 113.158 216.005C114.187 213.017 115.328 210.069 116.475 207.124L117.611 204.204C118.726 201.343 119.854 198.484 121.059 195.66L121.191 195.351C122.442 192.397 123.736 189.076 126.011 186.787C126.039 186.755 126.081 186.739 126.122 186.735C125.564 186.432 125.04 186.064 124.58 185.629L124.558 185.606C124.375 185.413 123.624 184.463 123.382 183.895C123.067 184.007 122.752 184.115 122.438 184.221C121.889 184.407 121.435 184.273 121.114 183.979L120.503 184.358C119.85 184.757 119.148 185.135 118.426 185.154C117.517 185.179 116.803 184.677 116.318 183.936C115.881 183.275 115.621 182.561 115.068 181.968C114.524 181.386 113.896 180.894 113.252 180.426L112.494 179.874C111.105 178.859 109.758 177.833 108.639 176.493C108.077 175.817 107.323 175.013 106.981 174.2C106.914 174.044 106.873 173.895 106.865 173.752C106.79 174.26 106.713 174.769 106.636 175.277C105.563 182.423 104.695 189.619 104.417 196.844C104.281 200.409 104.221 203.977 104.38 207.543C104.458 209.324 104.589 211.104 104.768 212.879C104.856 213.768 104.948 214.656 105.057 215.542L105.081 215.747C105.113 216.018 105.133 216.28 105.11 216.53C105.975 216.956 106.473 218.035 106.82 218.877C107.083 219.519 106.879 220.143 106.454 220.593C106.961 221.056 107.414 221.599 107.793 222.221C107.87 222.347 107.704 222.445 107.607 222.366C106.983 221.871 106.311 221.463 105.611 221.15C105.243 221.29 104.842 221.327 104.472 221.226C104.071 221.115 103.725 220.848 103.475 220.507C101.486 220.18 99.4188 220.579 97.6281 221.825C97.2566 222.085 96.9204 222.378 96.5992 222.697C96.5442 222.753 96.4874 222.824 96.4297 222.892L96.8208 223.042C96.9828 223.104 97.1151 223.151 97.1663 223.162C97.5071 223.231 97.8535 223.269 98.199 223.298L98.7186 223.341C100.711 223.506 102.698 223.561 104.551 224.395C104.941 224.57 104.805 225.171 104.437 225.272C103.084 225.639 101.741 225.611 100.363 225.512L100.068 225.49C98.7865 225.392 97.4121 225.397 96.1625 225.044C96.4614 225.862 96.0544 226.931 94.8048 227.098C91.054 227.598 87.278 227.362 83.5226 227.031C79.7299 226.696 75.939 226.38 72.1361 226.181C59.8351 225.533 47.5156 225.658 35.2044 225.834L28.2466 225.935C22.6977 226.013 17.1488 226.073 11.6003 226.031L9.00326 226.007C7.90567 225.996 6.80753 225.983 5.71115 225.95L5.05355 225.929C3.74728 225.882 2.01808 226.078 0.882881 225.305C-0.0535202 224.667 -0.262009 223.499 0.302567 222.555C0.465797 222.284 0.690117 222.042 0.924217 221.806C1.40424 217.703 1.67373 213.58 1.94917 209.458C2.90531 195.036 2.3466 180.689 0.141281 166.412C-5.77639 168.222 -11.6035 170.491 -17.2811 172.925C-20.352 174.242 -23.4072 175.608 -26.427 177.04C-29.1832 178.349 -31.9511 179.984 -34.8962 180.835C-35.1639 181.072 -35.5382 181.186 -35.8702 181.08L-35.9133 181.065H-35.9152C-36.2182 181.135 -36.5546 181.093 -36.8851 180.894C-36.952 180.853 -37.0189 180.812 -37.0857 180.77L-37.1861 180.707C-38.2228 180.053 -39.2655 179.249 -39.9993 178.265C-40.8905 179.091 -41.8486 179.849 -42.7909 180.617C-43.8139 181.451 -44.8329 182.289 -45.8441 183.136C-46.2454 183.472 -46.6881 183.793 -47.0422 184.18L-47.0936 184.237C-47.1019 184.247 -47.1097 184.256 -47.1169 184.265C-45.5845 185.257 -44.2427 186.763 -43.0408 188.071C-41.75 189.476 -40.5038 190.925 -39.268 192.38L-38.0715 193.792C-29.611 203.786 -21.0638 214.143 -10.1103 221.489C-8.37904 222.65 -10.0297 225.478 -11.7491 224.291C-15.0029 222.05 -18.0818 219.56 -21.0386 216.94C-26.2204 212.353 -30.8829 207.207 -35.2483 201.844C-37.4576 199.13 -39.6019 196.349 -41.703 193.55L-42.4161 192.601C-43.3664 191.335 -44.3116 190.065 -45.2166 188.766L-45.4059 188.494C-46.1997 187.348 -47.0438 186.06 -47.5557 184.741C-47.7524 184.94 -47.9747 185.107 -48.2993 185.234C-48.854 185.45 -49.5347 184.995 -49.6705 184.454C-50.001 183.141 -48.86 182.36 -47.9314 181.663C-46.8041 180.821 -45.6552 180.008 -44.5044 179.199L-44.0933 178.909C-42.6541 177.887 -41.2074 176.84 -39.6393 176.033C-39.5921 175.97 -39.535 175.911 -39.4701 175.859C-39.3954 175.801 -39.3225 175.743 -39.2478 175.686C-41.1207 172.648 -43.1745 169.727 -45.4664 166.967C-47.1897 164.892 -49.0193 162.909 -50.9552 161.032L-51.8248 160.189C-53.1402 158.919 -54.5079 157.63 -55.9678 156.525L-56.4248 157.044C-57.035 157.734 -57.6514 158.419 -58.3029 159.068C-59.5856 160.343 -60.8506 161.645 -62.1097 162.945C-64.2006 165.11 -66.2207 167.34 -68.2345 169.574L-69.2411 170.691C-71.3382 173.019 -73.5849 175.304 -75.4912 177.792L-75.5864 177.918C-76.4186 179.035 -77.011 180.27 -76.6243 181.689C-76.2512 183.056 -75.364 184.269 -74.5993 185.45L-74.5233 185.568C-71.4012 190.433 -68.0568 195.174 -64.4744 199.711C-57.2997 208.797 -49.1157 217.409 -39.3501 223.727C-37.9966 224.602 -39.2615 226.779 -40.6171 225.894C-46.3202 222.164 -51.5591 217.685 -56.3789 212.875C-60.8033 208.46 -64.8127 203.599 -68.5703 198.61C-70.4018 196.176 -72.1566 193.691 -73.8386 191.149C-75.4695 188.684 -77.3561 186.147 -78.5385 183.427C-79.1581 181.996 -79.3864 180.447 -78.8788 178.94C-78.4134 177.554 -77.4928 176.403 -76.5352 175.321L-76.4453 175.22C-74.2439 172.746 -72.0032 170.302 -69.7427 167.881C-67.4744 165.452 -65.1019 163.111 -62.6801 160.837C-60.7778 159.049 -58.7948 157.472 -56.674 156.011C-56.8649 155.876 -57.0557 155.746 -57.2504 155.62C-57.8427 155.235 -57.9921 154.41 -57.4728 153.886C-56.0543 152.453 -54.4195 151.207 -52.8811 149.903C-51.4352 148.676 -49.9892 147.449 -48.5432 146.221C-45.6002 143.725 -42.6571 141.228 -39.714 138.73C-34.428 134.245 -29.1713 129.729 -23.903 125.223C-21.7061 123.345 -19.4889 121.491 -17.2772 119.631L-13.3479 116.323L-11.4262 114.709C-10.4415 113.884 -9.43584 113.068 -8.31609 112.439C-5.6815 110.959 -2.51398 110.318 0.388794 109.533L0.581917 109.481C3.8378 108.59 7.11137 107.751 10.4026 107.003C13.6978 106.255 17.0072 105.575 20.3297 104.958C23.316 104.403 26.3731 103.927 29.4181 103.857C30.1742 103.569 31.1221 103.468 31.8661 103.776C32.1725 103.903 32.4938 104.09 32.7787 104.327C34.2677 103.803 35.7371 103.553 37.1282 102.667C38.5176 101.784 39.7467 100.623 40.7813 99.3431C42.9202 96.6948 44.0395 93.5651 44.791 90.2957ZM79.024 179.998C77.8433 179.916 76.7808 180.404 75.7267 180.923C76.3208 181.181 76.9149 181.437 77.509 181.69L81.4628 183.38C82.7693 183.936 84.1521 184.421 85.3933 185.107C85.4827 185.156 85.5535 185.216 85.6066 185.285C86.8972 184.458 88.2623 183.72 89.5706 182.934C89.8695 182.756 90.1703 182.577 90.4711 182.397C88.9132 182.919 87.3162 183.18 85.6243 182.691C83.3671 182.04 81.4079 180.166 79.024 179.998ZM82.258 176.039L82.0457 175.895C80.9013 175.109 79.5343 174.098 78.1441 174.804C77.4894 175.138 76.9522 175.675 76.3069 176.033C75.6578 176.395 74.9436 176.672 74.2191 176.84C73.0179 177.117 71.6407 177.158 70.3482 176.89L70.3678 178.638C71.3455 179.042 72.3167 179.456 73.2889 179.873C73.9202 179.657 74.5273 179.398 75.1661 179.113L75.5964 178.92C76.8264 178.367 78.0677 177.997 79.4272 178.172C81.9861 178.501 83.9202 180.404 86.3674 181.038C89.3676 181.817 92.0746 179.578 94.9091 179.024C95.3766 178.932 95.8589 178.878 96.3375 178.87L96.4967 178.869L96.5675 178.827C97.1774 178.469 98.0909 178.127 98.5155 177.524C98.9774 176.872 99.0175 175.776 99.1683 175.009C99.1841 174.933 99.2 174.854 99.2139 174.777C98.9467 174.777 98.6748 174.79 98.3992 174.842C97.5341 175.002 96.7193 175.308 95.9129 175.651C94.3885 176.299 92.8968 177.036 91.2914 177.468C89.7196 177.89 88.077 178.091 86.4577 177.857C84.8784 177.629 83.5663 176.916 82.258 176.039ZM82.5039 169.894L82.2673 169.741C81.6416 169.342 80.9246 168.929 80.1582 169.076C79.4738 169.208 78.8862 169.753 78.2893 170.089C76.981 170.827 75.5135 171.23 74.0171 171.333C72.7711 171.418 71.4787 171.266 70.2812 170.896L70.3221 174.765C70.7607 174.905 71.2151 175.005 71.6938 175.041C73.1455 175.149 74.5618 174.801 75.7798 174L76.3953 173.591C77.4494 172.897 78.4393 172.348 79.8342 172.6C81.2151 172.853 82.3735 173.738 83.503 174.509L83.6883 174.634C84.9845 175.491 86.2994 176.043 87.8898 176.057C89.6079 176.07 91.3054 175.592 92.9043 175.004C94.4919 174.421 96.0014 173.722 97.6989 173.508C98.2185 173.443 98.8517 173.423 99.4477 173.526C99.5268 173.086 99.6013 172.65 99.6721 172.211C99.8257 171.268 99.957 170.327 100.072 169.385C97.0592 168.574 94.2777 171.197 91.4805 172.006C89.8574 172.474 88.091 172.469 86.4679 172.016C84.9659 171.596 83.7852 170.727 82.5039 169.894ZM82.5113 163.378C81.8679 163.254 81.2328 163.551 80.6862 163.856C79.2913 164.63 78.0873 165.707 76.507 166.114C74.4752 166.637 72.2525 166.186 70.2337 165.33C70.2421 166.525 70.2514 167.72 70.2616 168.915C70.6406 169.058 71.0308 169.174 71.4284 169.267C72.8401 169.589 74.3374 169.546 75.7286 169.138C77.1468 168.723 78.2344 167.602 79.6572 167.251C81.1117 166.892 82.4825 167.591 83.6548 168.386L84.0077 168.627C85.3468 169.536 86.6467 170.326 88.3228 170.481C90.0958 170.644 91.636 170.089 93.2199 169.353L93.5887 169.183C95.5935 168.261 98.1962 167.212 100.197 168.261C100.355 166.773 100.469 165.285 100.546 163.795C100.27 163.692 99.985 163.618 99.6563 163.616C98.8713 163.612 98.0472 163.86 97.3153 164.118C95.7164 164.683 94.2265 165.525 92.6435 166.129C91.1424 166.704 89.4794 167.003 87.8787 166.746C86.3953 166.507 85.2816 165.732 84.2564 164.669L84.1074 164.512C83.6585 164.033 83.1771 163.507 82.5113 163.378ZM83.6865 157.854C82.9443 157.462 82.042 157.098 81.1835 157.212C80.3659 157.32 79.8202 157.875 79.3164 158.469L79.0436 158.794C78.1413 159.862 77.2539 160.758 75.8645 161.198C74.424 161.65 72.8978 161.473 71.5578 160.81C71.082 160.574 70.6387 160.281 70.1946 159.991L70.2178 163.13C71.1071 163.572 72.0122 163.973 73.0058 164.215C74.8393 164.661 76.3972 164.33 77.9653 163.319L78.1301 163.212C79.3108 162.436 80.5214 161.513 81.9805 161.426C83.4043 161.34 84.4724 162.13 85.4101 163.097L85.52 163.211C86.7016 164.458 87.8963 165.067 89.6553 164.923C91.3604 164.784 92.9555 164.031 94.518 163.381L94.6595 163.323C96.088 162.736 97.7343 162.132 99.3024 162.356C99.6786 162.409 100.165 162.526 100.597 162.729C100.66 161.26 100.69 159.79 100.695 158.319C99.8043 157.545 98.4169 157.417 97.3022 157.734C95.5553 158.229 94.125 159.509 92.4564 160.203C90.9767 160.82 89.4347 160.958 87.9261 160.375C86.3673 159.772 85.1456 158.625 83.6865 157.854ZM100.597 151.67C97.9866 151.76 95.4324 153.459 92.9406 154.107C90.1554 154.83 87.8833 153.844 85.4026 152.75L85.0823 152.61C83.8103 152.05 82.4424 151.548 81.0317 151.776C79.6572 152.001 78.4411 152.762 77.2585 153.451L77.0322 153.582C74.8784 154.808 72.6855 155.648 70.1703 155.438C70.1843 156.228 70.1787 157.015 70.1806 157.787C70.594 158.023 70.9907 158.291 71.3688 158.535L71.5047 158.62C72.7032 159.371 73.9389 159.863 75.3682 159.401C76.7492 158.952 77.3982 157.75 78.3471 156.76C79.2187 155.85 80.3556 155.298 81.6304 155.35C83.0011 155.405 84.2983 156.009 85.4306 156.748C86.5638 157.486 87.6598 158.44 88.9858 158.81C91.96 159.636 94.5078 156.49 97.3209 156C98.5016 155.793 99.8043 156.055 100.695 156.767C100.685 155.071 100.648 153.37 100.597 151.67ZM78.1264 150.958C77.7586 150.972 77.3907 150.987 77.0229 151.003C75.6615 151.062 74.3001 151.129 72.9388 151.205C71.9964 151.257 70.838 151.546 69.9133 151.258C69.8901 151.353 69.8584 151.444 69.8165 151.532C69.9562 152.229 70.0428 152.949 70.0959 153.678C70.9498 153.77 71.8176 153.738 72.6594 153.563C74.6801 153.144 76.3208 151.869 78.1264 150.958ZM100.558 150.373C95.5861 150.716 90.5772 150.598 85.5973 150.705L85.0004 150.719C84.9762 150.719 84.9529 150.722 84.9296 150.722C85.5004 150.943 86.0666 151.196 86.6318 151.455L87.1952 151.714C88.5296 152.327 89.8872 152.829 91.3799 152.721C92.9797 152.605 94.4863 151.951 95.9818 151.424C97.4075 150.92 99.0501 150.581 100.572 150.802C100.567 150.659 100.563 150.517 100.558 150.373Z" fill="#5665E7"/>
<path fill-rule="evenodd" clip-rule="evenodd" d="M59.3473 16.0916C70.5178 16.0916 86.8675 23.5537 88.0976 30.733C89.5465 39.1937 92.7646 71.0081 91.0122 81.4187C89.2606 91.8303 82.4285 99.5218 67.3201 99.5218C52.2116 99.5218 40.9341 91.2799 38.3454 88.4501C35.7557 85.6193 32.6186 76.8131 32.6186 76.8131C32.6186 76.8131 24.3469 75.4098 24.3078 68.8133C24.2696 62.2168 28.4637 60.1784 28.4637 60.1784C28.4637 60.1784 26.1999 32.8123 30.9574 26.0345C35.7148 19.2567 48.1768 16.0916 59.3473 16.0916Z" fill="white"/>
<path fill-rule="evenodd" clip-rule="evenodd" d="M93.0728 50.9411C93.6846 57.5911 93.9146 64.2986 94.0329 70.9743C94.1465 77.2989 93.5906 83.8963 89.9878 89.3046C86.8386 94.036 82.042 97.4702 76.7008 99.3241C73.6614 100.381 70.2952 100.772 67.0854 100.869C65.4269 100.918 63.7638 100.847 62.1157 100.676C61.908 100.654 61.6994 100.635 61.4908 100.617C60.095 100.493 58.7103 100.369 57.6925 99.3139C57.3722 98.9815 57.3759 98.298 57.8508 98.0819C58.7531 97.6704 59.3649 97.6275 60.3548 97.7635C61.1752 97.8752 61.9974 97.9637 62.8234 98.0205C64.5945 98.1453 66.3767 98.149 68.1469 98.013C71.4014 97.7635 74.7295 96.8435 77.6841 95.4504C82.3177 93.2621 86.2975 89.6762 88.4458 84.9709C90.9088 79.5831 90.7849 73.3525 90.6694 67.5512L90.6648 67.3129C90.5372 60.8775 90.2988 54.4619 89.7401 48.048C89.5288 45.6216 89.2271 43.2084 88.9253 40.7943C88.8397 40.1147 88.7549 39.4349 88.6721 38.7549C88.4728 37.1096 88.2121 35.4719 87.8908 33.8465C87.794 33.3556 87.6813 32.8686 87.5677 32.3822C87.4829 32.0164 87.3982 31.6508 87.3209 31.2841C87.1887 31.3055 87.0546 31.3175 86.9168 31.3233C86.0946 31.351 85.196 31.1503 84.586 30.5658C84.3514 30.7252 84.0543 30.8256 83.6968 30.8433C81.5094 30.9513 79.3006 30.9031 77.0965 30.8551C75.8925 30.8288 74.6894 30.8026 73.4919 30.8019C70.0931 30.8 66.6915 30.8019 63.2899 30.8118C62.7712 30.8132 62.2525 30.8152 61.7339 30.8172C58.8528 30.8282 55.9671 30.8393 53.0897 30.7625C52.4798 30.7462 51.8661 30.7356 51.2506 30.725C48.6731 30.6804 46.0583 30.6352 43.5404 30.1682C42.4919 33.8957 42.5291 37.9912 44.7146 41.3212C45.332 42.2599 44.831 43.366 44.0265 43.9525C43.2043 44.5509 41.7255 45.4687 40.4601 45.5629C40.4116 45.6732 40.3614 45.7832 40.312 45.893C40.2384 46.0575 40.1639 46.2216 40.0922 46.3854C39.4888 47.7617 38.945 49.1466 38.5642 50.6037C38.3677 51.3547 38.1991 52.1182 38.0567 52.8863C38.0688 53.0207 38.0809 53.1549 38.0949 53.289C38.0949 53.3027 38.0967 53.3163 38.0986 53.3321C38.107 53.3874 38.1163 53.4503 38.1228 53.4857C38.1405 53.5803 38.1582 53.6749 38.1759 53.7695C38.2299 54.0605 38.2848 54.3514 38.3425 54.641C38.526 55.5759 38.6675 56.5185 38.7681 57.465C38.9506 59.1967 38.9329 61.4483 37.2447 62.4735C36.3424 63.0229 35.2603 62.9661 34.3059 62.5974C33.7742 62.3925 33.3076 62.1159 32.8271 61.831C32.7294 61.7723 32.6297 61.7137 32.5292 61.655C32.3746 61.5647 32.2163 61.4809 32.058 61.398C31.8596 61.2928 31.6613 61.1894 31.4713 61.0702C31.3764 61.0115 31.286 60.9408 31.2013 60.8663C30.5625 61.0013 29.9386 61.2555 29.5885 61.4287C28.6499 61.8952 27.8258 62.5703 27.1255 63.346C25.6366 64.997 25.1896 67.3231 25.3982 69.4825C25.5928 71.4911 26.3815 73.7995 27.9692 75.1367C28.6601 75.7187 29.5215 76.0595 30.4321 76.0492C30.881 76.0455 31.2944 75.9514 31.7265 75.8369C31.9118 75.7885 32.1148 75.7671 32.3178 75.7457C32.585 75.7177 32.8514 75.6898 33.0748 75.6004C33.6587 75.3667 34.3785 76.0809 34.141 76.6675C34.088 76.7979 34.0414 76.9236 33.9967 77.0456C33.8906 77.3352 33.7928 77.5996 33.6345 77.8427C35.2641 80.5031 37.0482 83.0815 38.9469 85.5557C40.15 87.1219 41.5039 88.514 42.8634 89.9118C43.437 90.5012 44.0116 91.0916 44.5768 91.6978C45.4177 92.5991 45.7678 94.374 44.2462 94.7595C42.9091 95.1022 41.8699 93.8749 41.0448 92.9018C40.935 92.7714 40.8279 92.6448 40.7254 92.5284C37.1153 88.4209 34.3869 83.7054 33.1093 78.3818C32.5338 78.7906 31.8727 79.0132 31.1762 79.11C29.7887 79.3009 28.3863 79.0271 27.1702 78.325C22.5674 75.6656 21.4537 68.4806 23.6094 63.9774C24.1299 62.8935 24.8972 61.925 25.834 61.1736C25.7604 61.033 25.7306 60.8672 25.7781 60.6894C25.8619 60.3783 25.9532 60.0711 26.0491 59.7647C25.9438 59.7181 25.8675 59.6222 25.8824 59.4788C25.955 58.7292 26.0267 57.98 26.0984 57.2308L26.1375 56.8216C26.1292 56.4155 26.1161 56.0095 26.104 55.6034C26.0761 54.6713 26.0481 53.7384 26.0593 52.8008C26.0695 51.8032 26.104 50.806 26.1375 49.8088C26.1766 48.6617 26.2157 47.5148 26.2204 46.3673C26.2334 42.6509 26.3145 38.9364 26.3964 35.222C26.4793 31.4578 26.5612 27.6936 26.5724 23.9275C26.5845 20.2687 26.5919 16.6044 26.496 12.9477C26.4942 12.9218 26.4942 12.8964 26.4932 12.871C26.4932 12.8482 26.4923 12.8253 26.4923 12.8021C26.4802 12.3533 26.4513 11.8812 26.4225 11.3968C26.2604 8.72199 26.077 5.66873 28.4981 4.0657C28.9683 3.75487 29.555 3.75096 30.0662 3.95172C31.5384 2.9263 33.3831 2.43212 35.1477 2.14681C37.7494 1.72666 40.3679 1.47478 42.9882 1.2228C43.7546 1.14914 44.521 1.07539 45.2873 0.997451C47.0538 0.818385 48.9133 0.749663 50.691 0.789052C51.6166 0.809259 52.5477 0.775831 53.4808 0.742401C54.3608 0.710834 55.2426 0.679266 56.1216 0.692582C58.1749 0.726011 60.2449 0.802832 62.3065 0.972028C62.354 0.967186 62.4025 0.962718 62.4509 0.958342C62.5002 0.953872 62.5496 0.949495 62.598 0.944467C65.7203 0.644905 68.8397 0.8033 71.961 0.961787C72.7162 1.00015 73.4724 1.03861 74.2285 1.07046C77.9225 1.22596 81.8232 1.60775 85.141 3.37681C85.5675 3.60392 85.9288 3.86214 86.237 4.14988C86.6691 4.21068 87.0816 4.33332 87.4513 4.53939C88.5194 4.32345 89.7113 4.80208 89.9645 6.04176C90.3324 7.85831 90.472 9.69033 90.2513 11.5327C90.2486 11.5559 90.2458 11.5797 90.243 11.6041C90.2411 11.6251 90.2383 11.6466 90.2355 11.6684C90.6816 13.3775 90.6518 15.244 90.2812 16.9296C90.4376 19.0595 90.527 21.1955 90.5391 23.3278C90.5409 23.6505 90.5456 23.9745 90.5503 24.2991C90.567 25.4585 90.5838 26.6265 90.4767 27.7755C90.3556 29.0684 89.8239 30.0916 88.9868 31.0737C88.8285 31.2587 88.5622 31.2894 88.3406 31.2445C88.2828 31.233 88.2335 31.2171 88.1879 31.1985C88.6013 32.0843 88.943 33.0141 89.2783 33.9238C89.3518 34.1256 89.4263 34.3264 89.4999 34.5254C90.1499 36.2692 90.7793 38.0424 91.2254 39.8491C92.1305 43.4918 92.7264 47.2037 93.0728 50.9411ZM30.3819 67.4265C30.1947 67.298 30.0066 67.1676 29.8027 67.0717C29.7775 67.0596 28.6992 66.7095 28.9078 67.1713C28.9786 67.325 28.7933 67.4963 28.662 67.3604C28.2876 66.9804 28.4962 66.5242 28.8529 66.1852C29.4954 65.5734 30.4554 65.715 31.2451 65.8612C32.342 66.0632 33.4091 66.5437 34.3338 67.1601C35.3292 67.8232 36.5584 68.7422 36.7549 69.9993C36.9337 71.1549 35.7855 72.4279 34.6029 71.655C33.9632 71.2359 33.5153 70.612 33.0655 69.9863C32.7452 69.5412 32.4239 69.0933 32.0319 68.719C31.5691 68.2776 31.0691 67.8902 30.5402 67.5354C30.4871 67.5 30.4349 67.4637 30.3819 67.4265Z" fill="#5665E7"/>
<path fill-rule="evenodd" clip-rule="evenodd" d="M71.8483 85.3016C70.526 84.7624 69.3462 83.862 68.483 82.712C68.1832 82.3115 68.1059 81.8897 68.1683 81.5033C68.239 81.0693 68.496 80.6755 68.8462 80.4119C69.1972 80.1475 69.6367 80.0162 70.0614 80.0832C70.431 80.141 70.7979 80.343 71.0894 80.7621L71.1499 80.8459C71.663 81.5405 72.3307 82.1095 73.0924 82.4773C73.8261 82.8311 74.6474 82.996 75.4967 82.9001C77.1151 82.7175 78.2297 81.8422 79.4151 80.6531C79.5622 80.5032 79.7093 80.3486 79.8565 80.1912C79.9496 80.0488 80.08 79.9566 80.2234 79.9091C80.3826 79.8551 80.5632 79.8588 80.729 79.9165C80.8882 79.9715 81.0307 80.0776 81.1266 80.2183C81.2169 80.3514 81.2691 80.5162 81.2523 80.7062C81.1434 81.9372 80.4999 83.0369 79.5855 83.9001C78.5696 84.8593 77.2231 85.5223 75.9557 85.7551C74.5599 86.0111 73.137 85.8277 71.8483 85.3016ZM76.615 66.298C78.1003 67.2012 80.364 69.3076 78.7661 71.5471C76.8841 73.5221 74.1763 71.2584 72.8419 70.2341C71.6043 69.4407 70.2131 71.4819 71.3613 72.4084C81.0056 79.5515 84.9202 66.5345 77.3665 65.2364C76.534 65.093 76.2258 66.0186 76.615 66.298ZM59.3323 57.989C59.4962 55.9508 62.5989 55.4879 62.908 57.5048C63.1836 59.3113 62.8586 60.9707 62.0448 62.5975C61.2682 64.1516 59.3146 63.4272 59.1665 62.0118C58.9682 60.1149 59.2298 59.2564 59.3323 57.989ZM82.9517 57.0865C83.3847 56.5198 84.0095 56.1328 84.7573 56.3516C87.0955 57.035 86.4064 60.3561 85.5851 61.9717C85.1391 62.8498 83.6967 63.0724 83.0448 62.2995C81.9824 61.0396 81.4739 58.5222 82.8242 57.2809C82.8614 57.2167 82.9024 57.1519 82.9517 57.0865ZM62.0122 49.0705L62.3819 49.0058C63.5244 48.8081 64.9445 48.6182 65.7528 49.5372C66.1821 50.0245 66.3292 50.9301 65.7528 51.3965C64.7396 52.2172 63.6185 51.8992 62.4042 51.9687C61.4032 52.0261 60.4413 52.1919 59.4775 52.4676C57.3619 53.0724 55.6383 54.1764 53.8318 55.3888C53.5952 55.5478 53.3531 55.2445 53.4658 55.0227C54.5087 52.9793 56.5294 51.3007 58.5538 50.2775C59.6349 49.7314 60.8166 49.2783 62.0122 49.0705ZM80.8202 48.1551L81.1033 48.213C84.18 48.8563 88.1766 50.1413 89.633 53.1641C89.6888 53.5915 89.6302 53.6832 89.5827 53.743L89.5668 53.763C89.5268 53.8141 89.4961 53.8845 89.3108 53.9427C89.2596 53.9304 89.2074 53.9174 89.1553 53.9037C88.4867 53.7286 87.9587 53.4874 87.4475 53.2372L86.8925 52.9639C86.249 52.6483 85.6 52.3442 84.9119 52.1197C83.4443 51.6406 81.9339 51.3032 80.4012 51.1231C80.0688 51.084 79.7485 50.9718 79.4961 50.7795C79.2568 50.5969 79.0733 50.3442 78.9895 50.0082C78.8815 49.5736 78.9132 49.2444 79.146 48.8522C79.321 48.5576 79.5725 48.3534 79.8602 48.2362C80.1535 48.1167 80.4878 48.0885 80.8202 48.1551Z" fill="#5665E7"/>
<path fill-rule="evenodd" clip-rule="evenodd" d="M270.26 197.106C269.468 192.626 268.74 188.134 268.08 183.633C267.766 181.495 267.46 179.356 267.185 177.213C266.993 175.712 266.699 173.995 267.721 172.883C269.158 171.319 270.462 169.979 270.638 167.737C270.804 165.628 270.091 163.329 269.645 161.281C268.71 156.988 267.547 152.747 266.261 148.547C264.954 144.28 263.521 140.052 262.067 135.833C260.709 131.889 259.403 127.909 257.633 124.123C254.275 116.941 248.594 111.622 241.572 108.071C239.826 107.187 236.263 104.034 234.439 103.328C232.762 102.679 232.768 104.574 231.118 103.86C229.797 103.289 228.569 102.528 227.83 101.254C227.028 99.8698 225.016 97.9339 224.709 96.3229C224.06 92.9083 224.763 90.0011 222.327 87.4311C220.164 85.1487 217.257 83.5853 214.249 82.7463C207.632 80.8997 198.808 82.1904 194.815 88.3418C192.909 91.2796 192.242 94.8302 189.669 97.2271C187.422 99.3204 187.925 100.752 185.015 101.831C184.85 101.892 180.383 100.933 180.218 100.995C177.034 100.313 173.992 102.221 171.071 103.328C166.717 104.978 162.571 107.126 158.677 109.679C150.823 114.826 144.097 121.51 138.552 129.074C132.961 136.7 128.623 145.248 125.534 154.182C124.784 156.352 124.11 158.548 123.516 160.766C123.183 162.007 122.828 163.295 123.233 164.566C123.564 165.605 124.301 166.379 125.166 167.003C126.34 167.848 128.693 168.398 128.647 170.099C128.612 171.392 128.173 172.753 127.959 174.03C127.704 175.553 127.495 177.083 127.286 178.612C126.334 185.568 125.593 192.564 125.265 199.581C124.942 206.489 124.675 213.538 125.154 220.445C125.185 220.9 125.321 221.318 125.54 221.671C125.335 221.75 125.32 222.131 125.574 222.185C125.752 222.223 125.93 222.261 126.108 222.298C126.479 222.578 126.94 222.751 127.472 222.767C127.832 222.779 128.192 222.795 128.552 222.813C132.349 223.607 136.145 224.358 139.992 224.926C144.668 225.616 149.357 226.178 154.062 226.636C163.728 227.576 173.318 227.264 182.997 226.757C192.661 226.252 202.32 226.134 211.994 226.385C221.676 226.637 231.355 227.058 241.04 227.231C251.86 227.423 262.663 227.128 273.452 226.268C274.931 226.149 275.846 224.972 275.555 223.502C273.807 214.697 271.826 205.95 270.26 197.106Z" fill="white"/>
<path fill-rule="evenodd" clip-rule="evenodd" d="M177.2 100.778C178.2 100.734 179.221 100.896 180.219 100.995C180.306 101.003 180.339 101.137 180.241 101.157C178.455 101.531 176.688 102.042 174.933 102.561L174.182 102.782C172.203 103.368 170.283 103.972 168.368 104.753C164.55 106.31 160.925 108.41 157.588 110.824C144.739 120.117 135.44 134.187 129.571 148.755C127.978 152.711 126.627 156.766 125.534 160.889C125.268 161.892 125.017 162.899 124.78 163.909C124.71 164.205 124.407 164.964 124.573 165.267C124.72 165.535 125.293 165.701 125.558 165.839L126.456 166.305C128.206 167.207 131.121 168.691 131.414 168.836L131.87 169.06C139.328 172.718 147.297 175.82 155.69 176.034L155.755 175.317C156.129 171.353 156.621 167.368 157.692 163.526C157.75 163.32 158.013 163.389 158.037 163.573C158.634 168.122 158.443 172.705 158.234 177.274C157.866 185.367 157.376 193.456 156.94 201.546C156.722 205.593 156.441 209.638 156.186 213.682C155.932 217.735 155.849 221.885 155.267 225.904C155.138 226.8 154.089 227.287 153.294 227.193C152.415 227.088 151.739 226.314 151.735 225.426C151.725 223.085 152.019 220.715 152.182 218.379C152.337 216.16 152.504 213.942 152.675 211.724C153.299 203.63 154.017 195.544 154.681 187.453C154.916 184.583 155.17 181.716 155.432 178.849C146.541 178.562 138.235 175.268 130.311 171.419C130.196 174.023 129.919 176.624 129.651 179.219C128.903 186.459 128.243 193.695 127.749 200.957C127.499 204.625 127.318 208.298 127.159 211.97C127.082 213.776 127.018 215.581 126.97 217.387C126.953 217.989 126.939 218.591 126.926 219.193L126.899 220.572C126.877 221.446 126.788 222.256 126.053 222.892C125.306 223.538 124.298 223.573 123.559 222.892C122.57 221.98 122.745 220.739 122.774 219.516C122.798 218.484 122.828 217.451 122.862 216.419C122.93 214.356 123.017 212.292 123.123 210.23C123.494 203.02 124.236 195.838 125.204 188.686L125.583 185.925C126.289 180.792 127.064 175.543 128.643 170.599C128.029 170.292 127.416 169.985 126.805 169.675C125.722 169.126 124.602 168.611 123.549 168.006C122.714 167.526 121.993 166.866 121.761 165.894C121.501 164.811 121.898 163.626 122.161 162.569L122.184 162.476C122.442 161.412 122.721 160.352 123.014 159.297C124.204 155.019 125.676 150.824 127.398 146.731C130.847 138.538 135.298 130.754 140.736 123.716C145.63 117.381 151.412 111.636 158.189 107.327C161.501 105.22 165.032 103.49 168.766 102.267C170.511 101.696 172.41 101.198 174.237 100.995C175.223 100.884 176.21 100.82 177.2 100.778ZM194.927 87.795C196.116 86.5174 198.479 87.8388 197.908 89.5307C196.565 93.5097 194.426 97.1394 191.09 99.7542C187.953 102.213 184.211 103.809 180.183 103.468C180.152 103.465 180.125 103.458 180.101 103.446L180.448 103.917C183.174 107.605 186.049 111.243 189.515 114.257C196.576 120.4 206.19 123.713 215.474 121.356C222.778 119.502 229.213 113.724 231.106 106.36C230.835 106.482 230.512 106.524 230.158 106.447C228.644 106.118 227.144 104.525 226.169 103.382C225.112 102.146 224.287 100.812 223.682 99.3035C222.575 96.5435 222.22 92.9891 223.732 90.3157C223.918 89.9861 224.348 90.1705 224.384 90.4926L224.442 90.9946C224.734 93.5004 225.097 95.9252 226.277 98.2094C226.856 99.3268 227.549 100.418 228.392 101.355C228.843 101.855 229.333 102.334 229.861 102.754C230.376 103.163 230.999 103.459 231.46 103.929L231.544 104.019L231.546 104.002C231.663 103.011 232.359 102.573 233.039 102.601C233.698 102.627 234.471 102.917 234.771 103.056L234.799 103.069C239.393 105.275 243.624 108.151 247.606 111.342C255.841 117.939 262.01 126.564 264.999 136.721C266.466 141.706 267.308 146.842 268.197 151.954L268.744 155.087C269.574 159.807 270.5 164.619 272.373 169.01C272.857 170.145 272.484 171.21 271.296 171.657C269.813 172.215 268.324 172.755 266.833 173.289C267.565 176.43 268.012 179.68 268.561 182.837C269.726 189.548 271.155 196.216 272.379 202.918C273.006 206.345 273.57 209.784 274.196 213.21C274.498 214.861 274.812 216.509 275.118 218.159C275.282 219.048 275.432 219.94 275.589 220.831L275.616 220.979C275.707 221.449 275.819 221.935 275.69 222.405C275.543 222.941 275.125 223.32 274.751 223.705C274.443 224.021 273.999 224.023 273.623 223.851L273.498 223.793C272.825 223.479 272.298 223.165 272.059 222.405C271.908 221.924 271.854 221.383 271.756 220.888C271.566 219.938 271.386 218.988 271.216 218.034C270.877 216.126 270.546 214.217 270.223 212.306L269.92 210.517C268.884 204.352 267.899 198.149 267.401 191.918C267.181 189.153 266.947 186.391 266.71 183.629L266.533 181.557C266.309 178.935 266.034 176.246 265.996 173.588L265.104 173.904L260.755 175.443C259.676 175.824 258.303 176.606 257.142 176.463C256.574 176.393 256.141 176.215 255.806 175.89C256.208 181.545 256.75 187.189 257.472 192.805C258.13 197.916 258.859 203.02 259.719 208.099C260.146 210.615 260.583 213.129 261.059 215.635C261.297 216.889 261.543 218.14 261.796 219.391C261.922 220.015 262.072 220.639 262.17 221.268C262.283 221.988 262.084 222.431 261.682 223.024C261.352 223.51 260.691 223.761 260.156 223.425C259.446 222.98 259.076 222.593 258.867 221.783C258.678 221.045 258.563 220.276 258.415 219.53C258.144 218.153 257.883 216.775 257.63 215.394C257.101 212.507 256.614 209.611 256.179 206.708C254.645 196.481 253.673 186.167 253.181 175.837C252.938 170.74 252.864 165.639 252.907 160.537C252.929 157.922 253.014 155.299 253.199 152.691C253.386 150.05 253.775 147.462 254.124 144.847C254.136 144.755 254.266 144.75 254.271 144.847C254.436 147.779 254.693 150.708 254.82 153.647C254.941 156.453 254.994 159.262 255.09 162.068C255.216 165.756 255.391 169.448 255.623 173.135C256.042 172.677 256.674 172.413 257.306 172.516C258.222 172.323 259.208 171.843 260.081 171.55L263.373 170.451C265.104 169.872 266.834 169.298 268.571 168.741C267.019 163.515 265.955 158.211 265.046 152.831L264.641 150.411C263.84 145.647 262.975 140.881 261.523 136.269C259.997 131.418 257.711 126.909 254.68 122.826C251.692 118.802 248.058 115.259 244.315 111.945C241.111 109.108 237.684 106.546 234.415 103.787C234.45 103.97 234.457 104.171 234.426 104.392C233.732 109.479 231.079 114.217 227.382 117.741C219.955 124.821 208.959 126.289 199.454 122.97C190.257 119.759 182.127 112.154 179.255 102.743C179.206 102.582 179.421 102.518 179.508 102.636C179.667 102.855 179.828 103.073 179.988 103.292C179.977 103.205 180.022 103.11 180.129 103.069C183.48 101.775 186.772 99.9386 189.284 97.3415C190.508 96.0751 191.577 94.6411 192.421 93.0944C192.825 92.3531 193.188 91.5859 193.477 90.7925L193.551 90.5876C193.902 89.5941 194.195 88.5819 194.927 87.795Z" fill="#5665E7"/>
<path fill-rule="evenodd" clip-rule="evenodd" d="M212.678 5.60526C223.848 5.60526 237.839 18.3526 241.933 23.777C245.376 28.3377 244.889 51.8325 244.889 65.7699C244.889 68.6845 243.571 74.2018 243.094 76.9898C241.341 87.2067 233.708 95.7755 218.6 95.7755C206.297 95.7755 196.831 91.8775 187.675 81.9073C185.587 79.6325 175.387 87.7757 173.301 84.8434C167.852 84.8434 163.296 33.9143 173.994 18.6386C184.692 3.36279 201.507 5.60526 212.678 5.60526Z" fill="white"/>
<path fill-rule="evenodd" clip-rule="evenodd" d="M179.105 9.19241C185.56 3.31776 194.158 0.49162 202.834 0.700205C207.327 0.808502 211.805 1.66454 216.049 3.13078C218.171 3.86688 220.227 4.82721 222.192 5.91362C222.9 6.30416 223.553 6.76184 224.181 7.24791L224.339 7.36999H224.341C226.026 7.9761 227.531 9.06446 228.897 10.3378C231.633 10.1193 234.391 10.3653 237.037 11.2096C240.72 12.3866 244.129 14.5416 246.523 17.6019C249.312 21.1647 250.24 25.4863 249.909 29.9476L249.848 30.7055C249.521 34.6465 248.934 39.7155 245.701 42.305C245.455 42.5018 245.183 42.6514 244.902 42.7419C246.986 46.312 248.696 50.2757 249.718 54.2786C253.624 69.5681 250.621 85.5137 245.926 100.251C245.54 101.465 243.705 102.272 242.77 101.085C241.102 98.9637 238.678 97.3453 235.952 97.0426C234.269 96.8555 232.595 97.1944 231.005 96.4309C230.382 96.1292 229.78 95.6375 229.347 95.0387C226.664 96.0565 223.774 96.537 220.907 96.4188C216.204 96.226 211.176 94.5964 207.939 91.0226C207.42 90.4489 207.288 89.8046 207.408 89.2235C207.814 89.0792 208.23 88.9711 208.66 88.9041C212.763 91.3233 217.287 92.9399 222.149 93.0414C224.957 93.1 227.698 92.7071 229.975 90.9527C230.468 90.5728 230.921 90.1519 231.34 89.7003C236.102 86.6357 239.46 81.4304 241.056 75.8545C242.543 70.6548 242.361 65.2409 241.85 59.9071L241.58 57.093C241.186 52.9621 240.821 48.8189 240.719 44.6706L240.75 44.669C241.756 44.6041 241.763 43.029 240.75 43.0946C238.13 43.2642 235.529 42.8342 232.917 43.0215C232.895 41.7862 232.806 40.5563 232.443 39.3649C232.236 38.6841 231.051 38.5499 230.926 39.3649C230.757 40.4552 230.696 41.5394 230.678 42.6346C226.769 42.5827 222.863 42.2536 218.954 42.3888C218.232 41.6193 218.003 40.2548 217.665 39.3057C217.617 39.1659 217.567 39.0282 217.516 38.8884C217.219 40.2449 216.799 41.5715 216.247 42.8702L215.288 42.8735C209.847 42.899 204.296 43.0617 198.984 44.192C198.614 43.9083 198.394 43.4136 198.335 42.9643C197.949 40.0406 197.4 37.1946 196.425 34.4084L196.285 34.0153C196.274 33.9827 196.262 33.948 196.25 33.9116C195.531 35.0714 194.674 36.1524 193.739 37.1591C193.189 37.7524 192.611 38.3198 192.018 38.8711C191.442 39.5107 190.847 40.1407 190.271 40.7823C190.293 40.899 190.312 41.0175 190.328 41.1381C190.505 42.4695 190.524 43.8198 190.394 45.1563C190.161 47.5725 189.479 49.9007 188.383 52.0546L188.349 52.2702C188.182 53.2796 187.945 54.3227 187.393 55.0828C188.082 55.8555 188.614 56.7792 188.922 57.8054C189.196 58.7189 187.933 59.5104 187.278 58.7626C186.758 58.1685 186.18 57.6778 185.545 57.2858C185.505 57.3398 185.432 57.3668 185.351 57.3212C183.582 56.3388 180.578 56.6368 178.811 57.5614C176.614 58.7105 175.756 61.0701 176 63.4614C176.234 65.7465 177.234 68.4171 179.172 69.5886C180.061 70.1259 180.753 70.1706 181.697 69.9126C181.999 69.8307 182.374 69.5793 182.534 69.4545L182.693 69.3278C183.312 68.838 183.888 68.5028 184.619 68.4898C185.366 68.257 186.118 68.5801 186.403 69.3642L186.421 69.4154C186.555 69.8149 186.798 70.3168 186.745 70.9267C186.69 71.5794 186.391 72.1745 185.945 72.6522C185.868 72.735 185.785 72.8179 185.701 72.8943C193.393 81.2256 194.381 94.2063 190.436 104.614C190.265 105.07 190.082 105.521 189.892 105.968C189.232 107.499 186.695 107.025 186.372 105.507C186.276 105.053 186.169 104.6 186.053 104.151C185.84 103.322 185.595 102.5 185.319 101.691L185.215 101.388C184.981 100.719 184.763 100.044 184.526 99.3743L184.503 99.298C184.494 99.2682 184.484 99.2328 184.473 99.1937L184.074 100.065L182.86 102.697C182.292 103.925 180.487 103.257 180.42 102.074L180.419 102.034C180.413 101.815 180.405 101.599 180.391 101.384C180.305 99.7766 180.027 98.2132 179.587 96.6842L179.428 96.8825C177.06 99.8101 174.282 102.554 170.47 103.23C169.514 103.4 168.432 102.4 169.089 101.433C169.361 101.034 169.622 100.625 169.87 100.21C169.656 100.109 169.453 100.005 169.266 99.8986C167.82 99.0857 166.616 97.9282 165.621 96.6152C163.51 93.8329 162.754 90.3298 162.57 86.9011C162.373 83.2779 162.692 79.4582 163.681 75.9625C164.11 74.4512 164.69 73.0004 165.361 71.5934C165.314 71.4677 165.269 71.342 165.223 71.2154C164.499 69.1965 163.905 67.1321 163.412 65.0435C162.416 60.828 161.881 56.4794 161.816 52.1472C161.698 44.3872 163.036 36.5032 165.855 29.2666C168.766 21.8037 173.146 14.6144 179.105 9.19241ZM175.479 77.039C174.945 76.1972 173.607 76.9561 174.103 77.8044L174.122 77.8342C174.97 79.1704 175.367 80.6901 175.855 82.18C176.168 83.1382 177.688 82.7285 177.372 81.761L177.267 81.437C176.781 79.9266 176.338 78.3911 175.479 77.039ZM180.135 60.964L180.49 60.7917C181.611 60.2572 182.593 59.8931 183.916 60.3596C185.689 60.9835 187.587 62.9697 186.389 64.8963C185.949 65.6068 185.166 65.8899 184.359 65.7232C182.999 65.4411 182.648 64.2156 181.958 63.21L181.84 63.0396C181.419 62.4315 180.887 61.5906 180.186 61.3523C180.027 61.2964 179.96 61.0487 180.135 60.964ZM181.135 20.0563L181.249 19.9537C182.011 19.2807 180.893 18.1707 180.136 18.8398C176.669 21.9041 175.465 26.7002 173.667 30.7879C173.264 31.707 174.619 32.51 175.027 31.583C176.742 27.6825 177.88 23.0165 181.135 20.0563ZM222.79 18.7159C221.884 18.3076 221.092 19.6261 221.963 20.0603L221.996 20.0758C225.057 21.4594 226.359 24.5925 227.606 27.5012C228.004 28.4302 229.359 27.6292 228.966 26.7082L228.741 26.1862C227.439 23.1886 225.921 20.1332 222.79 18.7159ZM227.588 16.8225C226.628 16.49 226.217 18.0093 227.169 18.3419C229.764 19.2453 231.544 21.1936 233.045 23.4214C233.608 24.2559 234.971 23.4687 234.403 22.6264C232.66 20.0403 230.59 17.8695 227.588 16.8225Z" fill="#5665E7"/>
<path fill-rule="evenodd" clip-rule="evenodd" d="M222.319 81.9556C220.997 81.4165 219.816 80.516 218.954 79.366C218.654 78.9656 218.576 78.5438 218.639 78.1573C218.71 77.7234 218.967 77.3295 219.317 77.066C219.668 76.8015 220.108 76.6702 220.532 76.7373C220.901 76.795 221.269 76.9971 221.559 77.4161L221.62 77.4999C222.133 78.1946 222.801 78.7635 223.563 79.1313C224.297 79.4852 225.117 79.65 225.967 79.5541C227.585 79.3716 228.7 78.4963 229.886 77.3072C230.032 77.1572 230.179 77.0027 230.327 76.8453C230.42 76.7028 230.55 76.6106 230.693 76.5631C230.853 76.5091 231.034 76.5129 231.199 76.5706C231.359 76.6255 231.501 76.7317 231.596 76.8723C231.688 77.0055 231.739 77.1703 231.722 77.3602C231.614 78.5913 230.97 79.691 230.055 80.5542C229.04 81.5133 227.694 82.1763 226.427 82.4091C225.03 82.6652 223.607 82.4818 222.319 81.9556ZM227.085 62.952C228.571 63.8553 230.834 65.9616 229.236 68.2011C227.355 70.1762 224.646 67.9125 223.312 66.8882C222.074 66.0948 220.684 68.1359 221.832 69.0625C231.476 76.2056 235.39 63.1886 227.836 61.8905C227.005 61.7471 226.696 62.6727 227.085 62.952ZM209.802 54.643C209.966 52.6048 213.07 52.1419 213.378 54.1589C213.654 55.9654 213.328 57.6247 212.516 59.2515C211.738 60.8057 209.784 60.0812 209.636 58.6658C209.439 56.769 209.7 55.9104 209.802 54.643ZM233.422 53.7406C233.855 53.1739 234.479 52.7869 235.228 53.0056C237.566 53.6891 236.877 57.0102 236.056 58.6258C235.61 59.5039 234.167 59.7264 233.516 58.9535C232.453 57.6937 231.945 55.1763 233.295 53.9349C233.331 53.8708 233.372 53.806 233.422 53.7406ZM212.483 45.7246L212.852 45.6599C213.994 45.4622 215.415 45.2722 216.224 46.1912C216.652 46.6785 216.8 47.5842 216.224 48.0506C215.209 48.8712 214.089 48.5533 212.875 48.6227C211.874 48.6802 210.912 48.8459 209.947 49.1216C207.833 49.7264 206.109 50.8305 204.303 52.0429C204.065 52.2018 203.823 51.8985 203.937 51.6767C204.98 49.6333 207 47.9548 209.025 46.9316C210.105 46.3855 211.287 45.9323 212.483 45.7246ZM231.291 44.8092L231.573 44.8671C234.65 45.5103 238.646 46.7954 240.104 49.8182C240.159 50.2456 240.1 50.3372 240.053 50.3971L240.037 50.417C239.998 50.4681 239.966 50.5385 239.781 50.5967C239.729 50.5844 239.677 50.5715 239.625 50.5577C238.957 50.3827 238.429 50.1415 237.917 49.8913L237.363 49.618C236.72 49.3024 236.071 48.9983 235.383 48.7738C233.914 48.2947 232.405 47.9573 230.871 47.7771C230.539 47.7381 230.219 47.6259 229.966 47.4335C229.727 47.251 229.544 46.9983 229.46 46.6623C229.352 46.2276 229.383 45.8984 229.616 45.5062C229.792 45.2117 230.042 45.0075 230.331 44.8903C230.624 44.7708 230.959 44.7426 231.291 44.8092Z" fill="#5665E7"/>
</svg>
